800-italic.ufo
<glyph name="exclam" format="2">
  <advance width="345"/>
  <unicode hex="0021"/>
  <outline>
    <contour>
      <point x="162" y="700" type="line"/>
      <point x="371" y="700" type="line"/>
      <point x="258" y="240" type="line"/>
      <point x="117" y="240" type="line"/>
    </contour>
    <contour>
      <point x="52" y="68" type="curve" smooth="yes"/>
      <point x="52" y="125"/>
      <point x="96" y="164"/>
      <point x="158" y="164" type="curve" smooth="yes"/>
      <point x="220" y="164"/>
      <point x="265" y="125"/>
      <point x="265" y="68" type="curve" smooth="yes"/>
      <point x="265" y="11"/>
      <point x="220" y="-27"/>
      <point x="158" y="-27" type="curve" smooth="yes"/>
      <point x="96" y="-27"/>
      <point x="52" y="11"/>
    </contour>
  </outline>
</glyph>
<glyph name="numbersign" format="2">
  <advance width="665"/>
  <unicode hex="0023"/>
  <outline>
    <contour>
      <point x="116" y="404" type="line"/>
      <point x="137" y="542" type="line"/>
      <point x="699" y="542" type="line"/>
      <point x="675" y="404" type="line"/>
      <point x="524" y="404" type="line"/>
      <point x="493" y="412" type="line"/>
      <point x="291" y="412" type="line"/>
      <point x="260" y="404" type="line"/>
    </contour>
    <contour>
      <point x="32" y="164" type="line"/>
      <point x="57" y="302" type="line"/>
      <point x="192" y="302" type="line"/>
      <point x="227" y="294" type="line"/>
      <point x="459" y="294" type="line"/>
      <point x="492" y="302" type="line"/>
      <point x="620" y="302" type="line"/>
      <point x="595" y="164" type="line"/>
    </contour>
    <contour>
      <point x="554" y="700" type="line"/>
      <point x="705" y="700" type="line"/>
      <point x="420" y="0" type="line"/>
      <point x="270" y="0" type="line"/>
      <point x="361" y="223" type="line"/>
      <point x="380" y="250" type="line"/>
      <point x="463" y="454" type="line"/>
      <point x="469" y="490" type="line"/>
    </contour>
    <contour>
      <point x="311" y="700" type="line"/>
      <point x="462" y="700" type="line"/>
      <point x="376" y="490" type="line"/>
      <point x="352" y="453" type="line"/>
      <point x="271" y="254" type="line"/>
      <point x="268" y="226" type="line"/>
      <point x="176" y="0" type="line"/>
      <point x="27" y="0" type="line"/>
    </contour>
  </outline>
</glyph>
<glyph name="dollar" format="2">
  <advance width="615"/>
  <unicode hex="0024"/>
  <outline>
    <contour>
      <point x="363" y="818" type="line"/>
      <point x="501" y="818" type="line"/>
      <point x="463" y="628" type="line"/>
      <point x="341" y="628" type="line"/>
    </contour>
    <contour>
      <point x="256" y="66" type="line"/>
      <point x="376" y="66" type="line"/>
      <point x="356" y="-112" type="line"/>
      <point x="219" y="-112" type="line"/>
    </contour>
    <contour>
      <point x="499" y="482" type="line"/>
      <point x="477" y="531"/>
      <point x="448" y="572"/>
      <point x="401" y="572" type="curve" smooth="yes"/>
      <point x="361" y="572"/>
      <point x="329" y="547"/>
      <point x="323" y="517" type="curve" smooth="yes"/>
      <point x="311" y="460"/>
      <point x="397" y="443"/>
      <point x="459" y="419" type="curve" smooth="yes"/>
      <point x="555" y="381"/>
      <point x="617" y="306"/>
      <point x="603" y="198" type="curve" smooth="yes"/>
      <point x="584" y="60"/>
      <point x="453" y="-11"/>
      <point x="299" y="-10" type="curve" smooth="yes"/>
      <point x="175" y="-9"/>
      <point x="72" y="66"/>
      <point x="32" y="164" type="curve"/>
      <point x="174" y="258" type="line"/>
      <point x="209" y="189"/>
      <point x="247" y="142"/>
      <point x="317" y="142" type="curve" smooth="yes"/>
      <point x="361" y="142"/>
      <point x="396" y="161"/>
      <point x="402" y="199" type="curve" smooth="yes"/>
      <point x="411" y="249"/>
      <point x="345" y="268"/>
      <point x="286" y="292" type="curve" smooth="yes"/>
      <point x="208" y="326"/>
      <point x="114" y="396"/>
      <point x="128" y="516" type="curve" smooth="yes"/>
      <point x="145" y="630"/>
      <point x="270" y="710"/>
      <point x="407" y="710" type="curve" smooth="yes"/>
      <point x="537" y="710"/>
      <point x="606" y="648"/>
      <point x="650" y="562" type="curve"/>
    </contour>
  </outline>
</glyph>
<glyph name="percent" format="2">
  <advance width="941"/>
  <unicode hex="0025"/>
  <outline>
    <contour>
      <point x="80" y="530" type="curve" smooth="yes"/>
      <point x="94" y="634"/>
      <point x="192" y="722"/>
      <point x="302" y="722" type="curve" smooth="yes"/>
      <point x="411" y="722"/>
      <point x="482" y="630"/>
      <point x="468" y="529" type="curve" smooth="yes"/>
      <point x="454" y="425"/>
      <point x="357" y="338"/>
      <point x="247" y="338" type="curve" smooth="yes"/>
      <point x="138" y="338"/>
      <point x="66" y="429"/>
    </contour>
    <contour>
      <point x="218" y="528" type="curve" smooth="yes"/>
      <point x="215" y="501"/>
      <point x="232" y="472"/>
      <point x="266" y="472" type="curve" smooth="yes"/>
      <point x="297" y="472"/>
      <point x="326" y="502"/>
      <point x="330" y="531" type="curve" smooth="yes"/>
      <point x="333" y="558"/>
      <point x="318" y="587"/>
      <point x="284" y="587" type="curve" smooth="yes"/>
      <point x="253" y="587"/>
      <point x="222" y="557"/>
    </contour>
    <contour>
      <point x="538" y="172" type="curve" smooth="yes"/>
      <point x="552" y="276"/>
      <point x="650" y="363"/>
      <point x="760" y="363" type="curve" smooth="yes"/>
      <point x="869" y="363"/>
      <point x="941" y="271"/>
      <point x="927" y="170" type="curve" smooth="yes"/>
      <point x="913" y="66"/>
      <point x="816" y="-21"/>
      <point x="706" y="-21" type="curve" smooth="yes"/>
      <point x="597" y="-21"/>
      <point x="524" y="71"/>
    </contour>
    <contour>
      <point x="677" y="170" type="curve" smooth="yes"/>
      <point x="673" y="143"/>
      <point x="692" y="114"/>
      <point x="722" y="114" type="curve" smooth="yes"/>
      <point x="753" y="114"/>
      <point x="783" y="139"/>
      <point x="789" y="172" type="curve" smooth="yes"/>
      <point x="793" y="199"/>
      <point x="774" y="228"/>
      <point x="744" y="228" type="curve" smooth="yes"/>
      <point x="713" y="228"/>
      <point x="683" y="203"/>
    </contour>
    <contour>
      <point x="744" y="700" type="line"/>
      <point x="929" y="700" type="line"/>
      <point x="262" y="0" type="line"/>
      <point x="78" y="0" type="line"/>
    </contour>
  </outline>
</glyph>
<glyph name="ampersand" format="2">
  <advance width="752"/>
  <unicode hex="0026"/>
  <outline>
    <contour>
      <point x="258" y="368" type="line" smooth="yes"/>
      <point x="217" y="422"/>
      <point x="182" y="474"/>
      <point x="190" y="540" type="curve" smooth="yes"/>
      <point x="204" y="638"/>
      <point x="310" y="718"/>
      <point x="436" y="718" type="curve" smooth="yes"/>
      <point x="554" y="718"/>
      <point x="634" y="640"/>
      <point x="621" y="546" type="curve" smooth="yes"/>
      <point x="608" y="444"/>
      <point x="521" y="398"/>
      <point x="418" y="336" type="curve" smooth="yes"/>
      <point x="351" y="296"/>
      <point x="242" y="282"/>
      <point x="230" y="204" type="curve" smooth="yes"/>
      <point x="223" y="162"/>
      <point x="251" y="132"/>
      <point x="304" y="130" type="curve" smooth="yes"/>
      <point x="426" y="124"/>
      <point x="544" y="244"/>
      <point x="624" y="348" type="curve"/>
      <point x="725" y="258" type="line"/>
      <point x="623" y="130"/>
      <point x="465" y="-15"/>
      <point x="267" y="-14" type="curve" smooth="yes"/>
      <point x="139" y="-14"/>
      <point x="33" y="63"/>
      <point x="50" y="189" type="curve" smooth="yes"/>
      <point x="70" y="343"/>
      <point x="241" y="380"/>
      <point x="337" y="421" type="curve" smooth="yes"/>
      <point x="397" y="448"/>
      <point x="462" y="484"/>
      <point x="468" y="529" type="curve" smooth="yes"/>
      <point x="470" y="554"/>
      <point x="453" y="582"/>
      <point x="417" y="582" type="curve" smooth="yes"/>
      <point x="380" y="582"/>
      <point x="356" y="558"/>
      <point x="350" y="528" type="curve" smooth="yes"/>
      <point x="342" y="484"/>
      <point x="380" y="442"/>
      <point x="420" y="392" type="curve" smooth="yes"/>
      <point x="718" y="0" type="line"/>
      <point x="532" y="0" type="line"/>
    </contour>
  </outline>
</glyph>
<glyph name="parenleft" format="2">
  <advance width="339"/>
  <unicode hex="0028"/>
  <outline>
    <contour>
      <point x="278" y="780" type="curve"/>
      <point x="434" y="779" type="line"/>
      <point x="348" y="628"/>
      <point x="279" y="463"/>
      <point x="251" y="290" type="curve" smooth="yes"/>
      <point x="226" y="126"/>
      <point x="237" y="-42"/>
      <point x="285" y="-200" type="curve"/>
      <point x="133" y="-200" type="line"/>
      <point x="77" y="-43"/>
      <point x="62" y="125"/>
      <point x="86" y="290" type="curve" smooth="yes"/>
      <point x="112" y="464"/>
      <point x="180" y="632"/>
    </contour>
  </outline>
</glyph>
<glyph name="parenright" format="2">
  <advance width="339"/>
  <unicode hex="0029"/>
  <outline>
    <contour>
      <point x="117" y="-200" type="curve"/>
      <point x="-38" y="-199" type="line"/>
      <point x="48" y="-48"/>
      <point x="116" y="117"/>
      <point x="144" y="290" type="curve" smooth="yes"/>
      <point x="169" y="454"/>
      <point x="158" y="622"/>
      <point x="110" y="780" type="curve"/>
      <point x="262" y="780" type="line"/>
      <point x="318" y="623"/>
      <point x="334" y="455"/>
      <point x="310" y="290" type="curve" smooth="yes"/>
      <point x="284" y="116"/>
      <point x="215" y="-52"/>
    </contour>
  </outline>
</glyph>
<glyph name="asterisk" format="2">
  <advance width="574"/>
  <unicode hex="002A"/>
  <outline>
    <contour>
      <point x="565" y="604" type="line"/>
      <point x="589" y="452" type="line"/>
      <point x="342" y="412" type="line"/>
      <point x="330" y="493" type="line"/>
    </contour>
    <contour>
      <point x="516" y="297" type="line"/>
      <point x="374" y="203" type="line"/>
      <point x="302" y="432" type="line"/>
      <point x="369" y="476" type="line"/>
    </contour>
    <contour>
      <point x="220" y="206" type="line"/>
      <point x="106" y="303" type="line"/>
      <point x="306" y="476" type="line"/>
      <point x="366" y="426" type="line"/>
    </contour>
    <contour>
      <point x="85" y="454" type="line"/>
      <point x="156" y="603" type="line"/>
      <point x="358" y="488" type="line"/>
      <point x="322" y="413" type="line"/>
    </contour>
    <contour>
      <point x="300" y="700" type="line"/>
      <point x="460" y="700" type="line"/>
      <point x="379" y="452" type="line"/>
      <point x="298" y="452" type="line"/>
    </contour>
  </outline>
</glyph>
<glyph name="plus" format="2">
  <advance width="671"/>
  <unicode hex="002B"/>
  <outline>
    <contour>
      <point x="67" y="190" type="line"/>
      <point x="96" y="356" type="line"/>
      <point x="644" y="356" type="line"/>
      <point x="616" y="190" type="line"/>
    </contour>
    <contour>
      <point x="316" y="552" type="line"/>
      <point x="492" y="553" type="line"/>
      <point x="396" y="-6" type="line"/>
      <point x="220" y="-6" type="line"/>
    </contour>
  </outline>
</glyph>
<glyph name="comma" format="2">
  <advance width="318"/>
  <unicode hex="002C"/>
  <outline>
    <contour>
      <point x="97" y="109" type="line"/>
      <point x="266" y="75" type="line"/>
      <point x="97" y="-172" type="line"/>
      <point x="-32" y="-148" type="line"/>
    </contour>
  </outline>
</glyph>
<glyph name="period" format="2">
  <advance width="319"/>
  <unicode hex="002E"/>
  <outline>
    <contour>
      <point x="44" y="76" type="curve" smooth="yes"/>
      <point x="44" y="133"/>
      <point x="88" y="180"/>
      <point x="150" y="180" type="curve" smooth="yes"/>
      <point x="212" y="180"/>
      <point x="256" y="133"/>
      <point x="256" y="76" type="curve" smooth="yes"/>
      <point x="256" y="19"/>
      <point x="212" y="-27"/>
      <point x="150" y="-27" type="curve" smooth="yes"/>
      <point x="88" y="-27"/>
      <point x="44" y="19"/>
    </contour>
  </outline>
</glyph>
<glyph name="slash" format="2">
  <advance width="617"/>
  <unicode hex="002F"/>
  <outline>
    <contour>
      <point x="531" y="700" type="line"/>
      <point x="700" y="700" type="line"/>
      <point x="133" y="-150" type="line"/>
      <point x="-42" y="-150" type="line"/>
    </contour>
  </outline>
</glyph>
<glyph name="zero" format="2">
  <advance width="660"/>
  <unicode hex="0030"/>
  <outline>
    <contour>
      <point x="253" y="350" type="curve" smooth="yes"/>
      <point x="244" y="264"/>
      <point x="244" y="154"/>
      <point x="324" y="152" type="curve" smooth="yes"/>
      <point x="405" y="150"/>
      <point x="458" y="253"/>
      <point x="472" y="350" type="curve" smooth="yes"/>
      <point x="481" y="436"/>
      <point x="482" y="546"/>
      <point x="402" y="548" type="curve" smooth="yes"/>
      <point x="321" y="550"/>
      <point x="267" y="447"/>
    </contour>
    <contour>
      <point x="70" y="350" type="curve" smooth="yes"/>
      <point x="98" y="554"/>
      <point x="230" y="714"/>
      <point x="420" y="714" type="curve" smooth="yes"/>
      <point x="616" y="714"/>
      <point x="680" y="544"/>
      <point x="656" y="350" type="curve" smooth="yes"/>
      <point x="628" y="144"/>
      <point x="500" y="-14"/>
      <point x="306" y="-14" type="curve" smooth="yes"/>
      <point x="115" y="-14"/>
      <point x="46" y="156"/>
    </contour>
  </outline>
</glyph>
<glyph name="one" format="2">
  <advance width="511"/>
  <unicode hex="0031"/>
  <outline>
    <contour>
      <point x="114" y="477" type="line"/>
      <point x="144" y="645" type="line"/>
      <point x="514" y="715" type="line"/>
      <point x="391" y="0" type="line"/>
      <point x="206" y="0" type="line"/>
      <point x="296" y="518" type="line"/>
    </contour>
  </outline>
</glyph>
<glyph name="two" format="2">
  <advance width="662"/>
  <unicode hex="0032"/>
  <outline>
    <contour>
      <point x="-2" y="0" type="line"/>
      <point x="344" y="314" type="line" smooth="yes"/>
      <point x="399" y="367"/>
      <point x="456" y="411"/>
      <point x="465" y="473" type="curve" smooth="yes"/>
      <point x="470" y="512"/>
      <point x="450" y="549"/>
      <point x="400" y="550" type="curve" smooth="yes"/>
      <point x="339" y="552"/>
      <point x="300" y="494"/>
      <point x="288" y="436" type="curve"/>
      <point x="100" y="436" type="line"/>
      <point x="126" y="588"/>
      <point x="240" y="715"/>
      <point x="422" y="715" type="curve" smooth="yes"/>
      <point x="576" y="715"/>
      <point x="682" y="610"/>
      <point x="664" y="486" type="curve" smooth="yes"/>
      <point x="654" y="408"/>
      <point x="601" y="347"/>
      <point x="538" y="299" type="curve" smooth="yes"/>
      <point x="380" y="178" type="line"/>
      <point x="637" y="178" type="line"/>
      <point x="609" y="0" type="line"/>
    </contour>
  </outline>
</glyph>
<glyph name="three" format="2">
  <advance width="623"/>
  <unicode hex="0033"/>
  <outline>
    <contour>
      <point x="308" y="338" type="curve"/>
      <point x="319" y="419" type="line"/>
      <point x="381" y="423"/>
      <point x="450" y="452"/>
      <point x="456" y="505" type="curve" smooth="yes"/>
      <point x="459" y="537"/>
      <point x="440" y="561"/>
      <point x="400" y="561" type="curve" smooth="yes"/>
      <point x="352" y="563"/>
      <point x="318" y="526"/>
      <point x="306" y="486" type="curve"/>
      <point x="130" y="487" type="line"/>
      <point x="154" y="618"/>
      <point x="262" y="714"/>
      <point x="414" y="714" type="curve" smooth="yes"/>
      <point x="556" y="714"/>
      <point x="663" y="637"/>
      <point x="646" y="517" type="curve" smooth="yes"/>
      <point x="626" y="377"/>
      <point x="462" y="340"/>
    </contour>
    <contour>
      <point x="303" y="-18" type="curve" smooth="yes"/>
      <point x="139" y="-17"/>
      <point x="48" y="98"/>
      <point x="59" y="234" type="curve"/>
      <point x="246" y="234" type="line"/>
      <point x="243" y="175"/>
      <point x="269" y="138"/>
      <point x="325" y="136" type="curve" smooth="yes"/>
      <point x="375" y="135"/>
      <point x="422" y="161"/>
      <point x="430" y="212" type="curve" smooth="yes"/>
      <point x="442" y="273"/>
      <point x="382" y="298"/>
      <point x="303" y="300" type="curve"/>
      <point x="316" y="395" type="line"/>
      <point x="477" y="393"/>
      <point x="635" y="346"/>
      <point x="614" y="192" type="curve" smooth="yes"/>
      <point x="596" y="60"/>
      <point x="464" y="-19"/>
    </contour>
  </outline>
</glyph>
<glyph name="four" format="2">
  <advance width="711"/>
  <unicode hex="0034"/>
  <outline>
    <contour>
      <point x="1" y="120" type="line"/>
      <point x="500" y="700" type="line"/>
      <point x="654" y="700" type="line"/>
      <point x="534" y="0" type="line"/>
      <point x="334" y="0" type="line"/>
      <point x="364" y="176" type="line"/>
      <point x="389" y="186" type="line"/>
      <point x="430" y="429" type="line"/>
      <point x="275" y="256" type="line"/>
      <point x="522" y="256" type="line"/>
      <point x="544" y="284" type="line"/>
      <point x="690" y="284" type="line"/>
      <point x="662" y="120" type="line"/>
    </contour>
  </outline>
</glyph>
<glyph name="five" format="2">
  <advance width="649"/>
  <unicode hex="0035"/>
  <outline>
    <contour>
      <point x="630" y="222" type="curve" smooth="yes"/>
      <point x="610" y="64"/>
      <point x="452" y="-13"/>
      <point x="312" y="-14" type="curve" smooth="yes"/>
      <point x="199" y="-14"/>
      <point x="110" y="18"/>
      <point x="36" y="61" type="curve"/>
      <point x="121" y="226" type="line"/>
      <point x="174" y="187"/>
      <point x="231" y="164"/>
      <point x="282" y="164" type="curve" smooth="yes"/>
      <point x="350" y="164"/>
      <point x="415" y="185"/>
      <point x="424" y="246" type="curve" smooth="yes"/>
      <point x="432" y="305"/>
      <point x="370" y="323"/>
      <point x="316" y="324" type="curve" smooth="yes"/>
      <point x="256" y="325"/>
      <point x="180" y="313"/>
      <point x="110" y="287" type="curve"/>
      <point x="267" y="700" type="line"/>
      <point x="686" y="700" type="line"/>
      <point x="660" y="532" type="line"/>
      <point x="384" y="532" type="line"/>
      <point x="326" y="424" type="line"/>
      <point x="364" y="440"/>
      <point x="407" y="448"/>
      <point x="451" y="448" type="curve" smooth="yes"/>
      <point x="567" y="446"/>
      <point x="645" y="350"/>
    </contour>
  </outline>
</glyph>
<glyph name="six" format="2">
  <advance width="676"/>
  <unicode hex="0036"/>
  <outline>
    <contour>
      <point x="258" y="250" type="curve" smooth="yes"/>
      <point x="250" y="194"/>
      <point x="282" y="148"/>
      <point x="340" y="147" type="curve" smooth="yes"/>
      <point x="400" y="146"/>
      <point x="453" y="191"/>
      <point x="462" y="250" type="curve" smooth="yes"/>
      <point x="470" y="306"/>
      <point x="438" y="355"/>
      <point x="380" y="356" type="curve" smooth="yes"/>
      <point x="320" y="357"/>
      <point x="267" y="309"/>
    </contour>
    <contour>
      <point x="410" y="696" type="line"/>
      <point x="658" y="696" type="line"/>
      <point x="398" y="455" type="line"/>
      <point x="349" y="434" type="line"/>
      <point x="387" y="464"/>
      <point x="420" y="478"/>
      <point x="468" y="478" type="curve" smooth="yes"/>
      <point x="580" y="478"/>
      <point x="666" y="377"/>
      <point x="652" y="250" type="curve" smooth="yes"/>
      <point x="632" y="81"/>
      <point x="486" y="-18"/>
      <point x="324" y="-18" type="curve" smooth="yes"/>
      <point x="165" y="-18"/>
      <point x="46" y="84"/>
      <point x="68" y="250" type="curve" smooth="yes"/>
      <point x="80" y="333"/>
      <point x="131" y="400"/>
      <point x="188" y="460" type="curve" smooth="yes"/>
    </contour>
  </outline>
</glyph>
<glyph name="seven" format="2">
  <advance width="607"/>
  <unicode hex="0037"/>
  <outline>
    <contour>
      <point x="90" y="518" type="line"/>
      <point x="118" y="700" type="line"/>
      <point x="702" y="700" type="line"/>
      <point x="264" y="0" type="line"/>
      <point x="52" y="0" type="line"/>
      <point x="390" y="518" type="line"/>
    </contour>
  </outline>
</glyph>
<glyph name="eight" format="2">
  <advance width="631"/>
  <unicode hex="0038"/>
  <outline>
    <contour>
      <point x="136" y="532" type="curve" smooth="yes"/>
      <point x="154" y="655"/>
      <point x="279" y="718"/>
      <point x="406" y="718" type="curve" smooth="yes"/>
      <point x="527" y="718"/>
      <point x="642" y="654"/>
      <point x="624" y="530" type="curve" smooth="yes"/>
      <point x="606" y="402"/>
      <point x="470" y="338"/>
      <point x="352" y="338" type="curve" smooth="yes"/>
      <point x="240" y="338"/>
      <point x="118" y="404"/>
    </contour>
    <contour>
      <point x="311" y="512" type="curve" smooth="yes"/>
      <point x="306" y="477"/>
      <point x="323" y="443"/>
      <point x="361" y="443" type="curve" smooth="yes"/>
      <point x="403" y="443"/>
      <point x="436" y="477"/>
      <point x="442" y="514" type="curve" smooth="yes"/>
      <point x="447" y="550"/>
      <point x="430" y="582"/>
      <point x="392" y="582" type="curve" smooth="yes"/>
      <point x="349" y="582"/>
      <point x="317" y="550"/>
    </contour>
    <contour>
      <point x="54" y="190" type="curve" smooth="yes"/>
      <point x="74" y="334"/>
      <point x="228" y="398"/>
      <point x="352" y="398" type="curve" smooth="yes"/>
      <point x="468" y="398"/>
      <point x="610" y="334"/>
      <point x="590" y="190" type="curve" smooth="yes"/>
      <point x="570" y="56"/>
      <point x="428" y="-18"/>
      <point x="292" y="-18" type="curve" smooth="yes"/>
      <point x="162" y="-18"/>
      <point x="35" y="57"/>
    </contour>
    <contour>
      <point x="249" y="219" type="curve" smooth="yes"/>
      <point x="242" y="174"/>
      <point x="265" y="138"/>
      <point x="309" y="138" type="curve" smooth="yes"/>
      <point x="359" y="138"/>
      <point x="397" y="173"/>
      <point x="404" y="221" type="curve" smooth="yes"/>
      <point x="410" y="260"/>
      <point x="387" y="298"/>
      <point x="344" y="298" type="curve" smooth="yes"/>
      <point x="295" y="298"/>
      <point x="257" y="260"/>
    </contour>
  </outline>
</glyph>
<glyph name="nine" format="2">
  <advance width="676"/>
  <unicode hex="0039"/>
  <outline>
    <contour>
      <point x="493" y="450" type="curve" smooth="yes"/>
      <point x="501" y="506"/>
      <point x="468" y="552"/>
      <point x="410" y="553" type="curve" smooth="yes"/>
      <point x="350" y="554"/>
      <point x="297" y="509"/>
      <point x="288" y="450" type="curve" smooth="yes"/>
      <point x="280" y="394"/>
      <point x="312" y="345"/>
      <point x="370" y="344" type="curve" smooth="yes"/>
      <point x="430" y="343"/>
      <point x="484" y="391"/>
    </contour>
    <contour>
      <point x="340" y="4" type="line"/>
      <point x="92" y="4" type="line"/>
      <point x="353" y="245" type="line"/>
      <point x="402" y="266" type="line"/>
      <point x="364" y="236"/>
      <point x="330" y="222"/>
      <point x="282" y="222" type="curve" smooth="yes"/>
      <point x="170" y="222"/>
      <point x="85" y="323"/>
      <point x="99" y="450" type="curve" smooth="yes"/>
      <point x="119" y="619"/>
      <point x="265" y="718"/>
      <point x="427" y="718" type="curve" smooth="yes"/>
      <point x="586" y="718"/>
      <point x="704" y="616"/>
      <point x="682" y="450" type="curve" smooth="yes"/>
      <point x="670" y="367"/>
      <point x="619" y="300"/>
      <point x="562" y="240" type="curve" smooth="yes"/>
    </contour>
  </outline>
</glyph>
<glyph name="colon" format="2">
  <advance width="319"/>
  <unicode hex="003A"/>
  <outline>
    <contour>
      <point x="40" y="76" type="curve" smooth="yes"/>
      <point x="40" y="133"/>
      <point x="84" y="180"/>
      <point x="146" y="180" type="curve" smooth="yes"/>
      <point x="208" y="180"/>
      <point x="252" y="133"/>
      <point x="252" y="76" type="curve" smooth="yes"/>
      <point x="252" y="19"/>
      <point x="208" y="-27"/>
      <point x="146" y="-27" type="curve" smooth="yes"/>
      <point x="84" y="-27"/>
      <point x="40" y="19"/>
    </contour>
    <contour>
      <point x="103" y="448" type="curve" smooth="yes"/>
      <point x="103" y="505"/>
      <point x="147" y="552"/>
      <point x="209" y="552" type="curve" smooth="yes"/>
      <point x="271" y="552"/>
      <point x="316" y="505"/>
      <point x="316" y="448" type="curve" smooth="yes"/>
      <point x="316" y="391"/>
      <point x="271" y="344"/>
      <point x="209" y="344" type="curve" smooth="yes"/>
      <point x="147" y="344"/>
      <point x="103" y="391"/>
    </contour>
  </outline>
</glyph>
<glyph name="semicolon" format="2">
  <advance width="399"/>
  <unicode hex="003B"/>
  <outline>
    <contour>
      <point x="158" y="440" type="curve" smooth="yes"/>
      <point x="158" y="497"/>
      <point x="202" y="544"/>
      <point x="264" y="544" type="curve" smooth="yes"/>
      <point x="326" y="544"/>
      <point x="371" y="497"/>
      <point x="371" y="440" type="curve" smooth="yes"/>
      <point x="371" y="383"/>
      <point x="326" y="336"/>
      <point x="264" y="336" type="curve" smooth="yes"/>
      <point x="202" y="336"/>
      <point x="158" y="383"/>
    </contour>
    <contour>
      <point x="125" y="109" type="line"/>
      <point x="293" y="75" type="line"/>
      <point x="124" y="-172" type="line"/>
      <point x="-5" y="-148" type="line"/>
    </contour>
  </outline>
</glyph>
<glyph name="less" format="2">
  <advance width="621"/>
  <unicode hex="003C"/>
  <outline>
    <contour>
      <point x="316" y="265" type="line"/>
      <point x="560" y="159" type="line"/>
      <point x="532" y="-4" type="line"/>
      <point x="70" y="209" type="line"/>
      <point x="90" y="326" type="line"/>
      <point x="626" y="539" type="line"/>
      <point x="594" y="364" type="line"/>
    </contour>
  </outline>
</glyph>
<glyph name="equal" format="2">
  <advance width="610"/>
  <unicode hex="003D"/>
  <outline>
    <contour>
      <point x="34" y="67" type="line"/>
      <point x="60" y="215" type="line"/>
      <point x="572" y="215" type="line"/>
      <point x="546" y="67" type="line"/>
    </contour>
    <contour>
      <point x="72" y="290" type="line"/>
      <point x="98" y="438" type="line"/>
      <point x="610" y="438" type="line"/>
      <point x="584" y="290" type="line"/>
    </contour>
  </outline>
</glyph>
<glyph name="greater" format="2">
  <advance width="621"/>
  <unicode hex="003E"/>
  <outline>
    <contour>
      <point x="342" y="266" type="line"/>
      <point x="98" y="372" type="line"/>
      <point x="126" y="535" type="line"/>
      <point x="588" y="322" type="line"/>
      <point x="566" y="205" type="line"/>
      <point x="32" y="-8" type="line"/>
      <point x="63" y="168" type="line"/>
    </contour>
  </outline>
</glyph>
<glyph name="question" format="2">
  <advance width="628"/>
  <unicode hex="003F"/>
  <outline>
    <contour>
      <point x="467" y="500" type="curve" smooth="yes"/>
      <point x="475" y="549"/>
      <point x="442" y="577"/>
      <point x="386" y="578" type="curve" smooth="yes"/>
      <point x="322" y="580"/>
      <point x="258" y="540"/>
      <point x="214" y="490" type="curve"/>
      <point x="114" y="590" type="line"/>
      <point x="197" y="668"/>
      <point x="293" y="722"/>
      <point x="411" y="722" type="curve" smooth="yes"/>
      <point x="540" y="722"/>
      <point x="658" y="637"/>
      <point x="638" y="500" type="curve" smooth="yes"/>
      <point x="620" y="377"/>
      <point x="506" y="310"/>
      <point x="396" y="284" type="curve"/>
      <point x="378" y="210" type="line"/>
      <point x="236" y="210" type="line"/>
      <point x="246" y="390" type="line"/>
      <point x="278" y="390" type="line"/>
      <point x="374" y="392"/>
      <point x="454" y="440"/>
    </contour>
    <contour>
      <point x="173" y="65" type="curve" smooth="yes"/>
      <point x="173" y="115"/>
      <point x="220" y="156"/>
      <point x="278" y="156" type="curve" smooth="yes"/>
      <point x="337" y="156"/>
      <point x="382" y="115"/>
      <point x="382" y="65" type="curve" smooth="yes"/>
      <point x="382" y="15"/>
      <point x="336" y="-26"/>
      <point x="278" y="-26" type="curve" smooth="yes"/>
      <point x="219" y="-26"/>
      <point x="173" y="14"/>
    </contour>
  </outline>
</glyph>
<glyph name="at" format="2">
  <advance width="747"/>
  <unicode hex="0040"/>
  <outline>
    <contour>
      <point x="348" y="320" type="curve" smooth="yes"/>
      <point x="345" y="292"/>
      <point x="346" y="263"/>
      <point x="368" y="259" type="curve" smooth="yes"/>
      <point x="402" y="252"/>
      <point x="443" y="320"/>
      <point x="448" y="362" type="curve" smooth="yes"/>
      <point x="451" y="392"/>
      <point x="450" y="419"/>
      <point x="428" y="423" type="curve" smooth="yes"/>
      <point x="392" y="430"/>
      <point x="353" y="361"/>
    </contour>
    <contour>
      <point x="217" y="312" type="curve" smooth="yes"/>
      <point x="230" y="426"/>
      <point x="310" y="532"/>
      <point x="402" y="530" type="curve" smooth="yes"/>
      <point x="478" y="529"/>
      <point x="509" y="444"/>
      <point x="500" y="370" type="curve" smooth="yes"/>
      <point x="488" y="256"/>
      <point x="414" y="152"/>
      <point x="322" y="152" type="curve" smooth="yes"/>
      <point x="236" y="152"/>
      <point x="207" y="228"/>
    </contour>
    <contour>
      <point x="40" y="320" type="curve" smooth="yes"/>
      <point x="74" y="540"/>
      <point x="262" y="726"/>
      <point x="494" y="726" type="curve" smooth="yes"/>
      <point x="698" y="726"/>
      <point x="800" y="556"/>
      <point x="774" y="390" type="curve" smooth="yes"/>
      <point x="757" y="245"/>
      <point x="662" y="139"/>
      <point x="546" y="142" type="curve" smooth="yes"/>
      <point x="472" y="144"/>
      <point x="439" y="197"/>
      <point x="446" y="262" type="curve"/>
      <point x="438" y="303" type="line"/>
      <point x="493" y="520" type="line"/>
      <point x="618" y="520" type="line"/>
      <point x="563" y="314" type="line" smooth="yes"/>
      <point x="561" y="306"/>
      <point x="558" y="295"/>
      <point x="556" y="286" type="curve" smooth="yes"/>
      <point x="554" y="269"/>
      <point x="554" y="252"/>
      <point x="569" y="249" type="curve" smooth="yes"/>
      <point x="603" y="239"/>
      <point x="647" y="317"/>
      <point x="652" y="390" type="curve" smooth="yes"/>
      <point x="671" y="504"/>
      <point x="627" y="616"/>
      <point x="486" y="616" type="curve" smooth="yes"/>
      <point x="315" y="616"/>
      <point x="190" y="482"/>
      <point x="162" y="320" type="curve" smooth="yes"/>
      <point x="140" y="186"/>
      <point x="197" y="82"/>
      <point x="352" y="80" type="curve" smooth="yes"/>
      <point x="420" y="80"/>
      <point x="478" y="98"/>
      <point x="536" y="122" type="curve"/>
      <point x="559" y="21" type="line"/>
      <point x="493" y="-11"/>
      <point x="417" y="-30"/>
      <point x="328" y="-30" type="curve" smooth="yes"/>
      <point x="112" y="-28"/>
      <point x="12" y="130"/>
    </contour>
  </outline>
</glyph>
<glyph name="A" format="2">
  <advance width="734"/>
  <unicode hex="0041"/>
  <outline>
    <contour>
      <point x="180" y="112" type="line"/>
      <point x="211" y="256" type="line"/>
      <point x="562" y="256" type="line"/>
      <point x="542" y="112" type="line"/>
    </contour>
    <contour>
      <point x="410" y="412" type="line"/>
      <point x="288" y="202" type="line"/>
      <point x="293" y="158" type="line"/>
      <point x="188" y="0" type="line"/>
      <point x="-34" y="0" type="line"/>
      <point x="467" y="750" type="line"/>
      <point x="710" y="0" type="line"/>
      <point x="498" y="0" type="line"/>
      <point x="449" y="152" type="line"/>
      <point x="465" y="202" type="line"/>
    </contour>
  </outline>
</glyph>
<glyph name="B" format="2">
  <advance width="675"/>
  <unicode hex="0042"/>
  <outline>
    <contour>
      <point x="239" y="342" type="line"/>
      <point x="254" y="424" type="line"/>
      <point x="360" y="424" type="line" smooth="yes"/>
      <point x="408" y="424"/>
      <point x="448" y="448"/>
      <point x="456" y="491" type="curve" smooth="yes"/>
      <point x="463" y="532"/>
      <point x="435" y="552"/>
      <point x="390" y="552" type="curve" smooth="yes"/>
      <point x="328" y="552" type="line"/>
      <point x="257" y="148" type="line"/>
      <point x="330" y="148" type="line" smooth="yes"/>
      <point x="384" y="149"/>
      <point x="440" y="166"/>
      <point x="449" y="224" type="curve" smooth="yes"/>
      <point x="457" y="276"/>
      <point x="414" y="291"/>
      <point x="364" y="292" type="curve" smooth="yes"/>
      <point x="230" y="292" type="line"/>
      <point x="249" y="398" type="line"/>
      <point x="396" y="398" type="line" smooth="yes"/>
      <point x="522" y="398"/>
      <point x="662" y="336"/>
      <point x="642" y="194" type="curve" smooth="yes"/>
      <point x="622" y="52"/>
      <point x="495" y="0"/>
      <point x="340" y="0" type="curve" smooth="yes"/>
      <point x="41" y="0" type="line"/>
      <point x="161" y="700" type="line"/>
      <point x="430" y="700" type="line" smooth="yes"/>
      <point x="557" y="700"/>
      <point x="678" y="644"/>
      <point x="659" y="520" type="curve" smooth="yes"/>
      <point x="641" y="398"/>
      <point x="514" y="342"/>
      <point x="380" y="342" type="curve" smooth="yes"/>
    </contour>
  </outline>
</glyph>
<glyph name="D" format="2">
  <advance width="726"/>
  <unicode hex="0044"/>
  <outline>
    <contour>
      <point x="161" y="700" type="line"/>
      <point x="360" y="700" type="line"/>
      <point x="240" y="0" type="line"/>
      <point x="41" y="0" type="line"/>
    </contour>
    <contour>
      <point x="303" y="0" type="curve" smooth="yes"/>
      <point x="169" y="0" type="line"/>
      <point x="199" y="170" type="line"/>
      <point x="313" y="170" type="line" smooth="yes"/>
      <point x="417" y="170"/>
      <point x="510" y="224"/>
      <point x="530" y="350" type="curve" smooth="yes"/>
      <point x="549" y="472"/>
      <point x="485" y="530"/>
      <point x="385" y="530" type="curve" smooth="yes"/>
      <point x="259" y="530" type="line"/>
      <point x="289" y="700" type="line"/>
      <point x="411" y="700" type="line" smooth="yes"/>
      <point x="631" y="700"/>
      <point x="761" y="557"/>
      <point x="730" y="350" type="curve" smooth="yes"/>
      <point x="698" y="138"/>
      <point x="529" y="0"/>
    </contour>
  </outline>
</glyph>
<glyph name="E" format="2">
  <advance width="600"/>
  <unicode hex="0045"/>
  <outline>
    <contour>
      <point x="169" y="0" type="line"/>
      <point x="197" y="157" type="line"/>
      <point x="542" y="157" type="line"/>
      <point x="514" y="0" type="line"/>
    </contour>
    <contour>
      <point x="262" y="543" type="line"/>
      <point x="289" y="700" type="line"/>
      <point x="635" y="700" type="line"/>
      <point x="608" y="543" type="line"/>
    </contour>
    <contour>
      <point x="218" y="288" type="line"/>
      <point x="245" y="440" type="line"/>
      <point x="572" y="440" type="line"/>
      <point x="544" y="288" type="line"/>
    </contour>
    <contour>
      <point x="161" y="700" type="line"/>
      <point x="345" y="700" type="line"/>
      <point x="224" y="0" type="line"/>
      <point x="41" y="0" type="line"/>
    </contour>
  </outline>
</glyph>
<glyph name="F" format="2">
  <advance width="552"/>
  <unicode hex="0046"/>
  <outline>
    <contour>
      <point x="260" y="534" type="line"/>
      <point x="289" y="700" type="line"/>
      <point x="596" y="700" type="line"/>
      <point x="568" y="534" type="line"/>
    </contour>
    <contour>
      <point x="214" y="263" type="line"/>
      <point x="241" y="416" type="line"/>
      <point x="538" y="416" type="line"/>
      <point x="512" y="263" type="line"/>
    </contour>
    <contour>
      <point x="161" y="700" type="line"/>
      <point x="345" y="700" type="line"/>
      <point x="224" y="0" type="line"/>
      <point x="41" y="0" type="line"/>
    </contour>
  </outline>
</glyph>
<glyph name="G" format="2">
  <advance width="801"/>
  <unicode hex="0047"/>
  <outline>
    <contour>
      <point x="426" y="246" type="line"/>
      <point x="452" y="391" type="line"/>
      <point x="804" y="391" type="line"/>
      <point x="783" y="168"/>
      <point x="640" y="-26"/>
      <point x="390" y="-26" type="curve" smooth="yes"/>
      <point x="170" y="-26"/>
      <point x="32" y="140"/>
      <point x="62" y="350" type="curve" smooth="yes"/>
      <point x="95" y="567"/>
      <point x="285" y="718"/>
      <point x="509" y="718" type="curve" smooth="yes"/>
      <point x="647" y="718"/>
      <point x="740" y="648"/>
      <point x="800" y="546" type="curve"/>
      <point x="616" y="462" type="line"/>
      <point x="594" y="513"/>
      <point x="558" y="552"/>
      <point x="492" y="552" type="curve" smooth="yes"/>
      <point x="380" y="552"/>
      <point x="282" y="466"/>
      <point x="262" y="350" type="curve" smooth="yes"/>
      <point x="244" y="239"/>
      <point x="293" y="140"/>
      <point x="410" y="140" type="curve" smooth="yes"/>
      <point x="498" y="140"/>
      <point x="552" y="182"/>
      <point x="586" y="246" type="curve"/>
    </contour>
  </outline>
</glyph>
<glyph name="H" format="2">
  <advance width="783"/>
  <unicode hex="0048"/>
  <outline>
    <contour>
      <point x="134" y="280" type="line"/>
      <point x="164" y="452" type="line"/>
      <point x="696" y="452" type="line"/>
      <point x="666" y="280" type="line"/>
    </contour>
    <contour>
      <point x="617" y="700" type="line"/>
      <point x="809" y="700" type="line"/>
      <point x="689" y="0" type="line"/>
      <point x="497" y="0" type="line"/>
    </contour>
    <contour>
      <point x="161" y="700" type="line"/>
      <point x="353" y="700" type="line"/>
      <point x="232" y="0" type="line"/>
      <point x="41" y="0" type="line"/>
    </contour>
  </outline>
</glyph>
<glyph name="I" format="2">
  <advance width="331"/>
  <unicode hex="0049"/>
  <outline>
    <contour>
      <point x="161" y="700" type="line"/>
      <point x="356" y="700" type="line"/>
      <point x="236" y="0" type="line"/>
      <point x="41" y="0" type="line"/>
    </contour>
  </outline>
</glyph>
<glyph name="J" format="2">
  <advance width="346"/>
  <unicode hex="004A"/>
  <outline>
    <contour>
      <point x="-112" y="-52" type="line"/>
      <point x="-92" y="-68"/>
      <point x="-66" y="-84"/>
      <point x="-39" y="-84" type="curve" smooth="yes"/>
      <point x="-3" y="-83"/>
      <point x="34" y="-53"/>
      <point x="40" y="-5" type="curve" smooth="yes"/>
      <point x="161" y="700" type="line"/>
      <point x="372" y="700" type="line"/>
      <point x="244" y="-52" type="line" smooth="yes"/>
      <point x="222" y="-186"/>
      <point x="99" y="-244"/>
      <point x="-33" y="-244" type="curve" smooth="yes"/>
      <point x="-111" y="-244"/>
      <point x="-180" y="-216"/>
      <point x="-234" y="-184" type="curve"/>
    </contour>
  </outline>
</glyph>
<glyph name="K" format="2">
  <advance width="717"/>
  <unicode hex="004B"/>
  <outline>
    <contour>
      <point x="161" y="700" type="line"/>
      <point x="360" y="700" type="line"/>
      <point x="240" y="0" type="line"/>
      <point x="41" y="0" type="line"/>
    </contour>
    <contour>
      <point x="574" y="700" type="line"/>
      <point x="804" y="700" type="line"/>
      <point x="472" y="368" type="line"/>
      <point x="693" y="0" type="line"/>
      <point x="468" y="0" type="line"/>
      <point x="248" y="370" type="line"/>
    </contour>
  </outline>
</glyph>
<glyph name="L" format="2">
  <advance width="534"/>
  <unicode hex="004C"/>
  <outline>
    <contour>
      <point x="161" y="700" type="line"/>
      <point x="353" y="700" type="line"/>
      <point x="261" y="166" type="line"/>
      <point x="536" y="166" type="line"/>
      <point x="508" y="0" type="line"/>
      <point x="41" y="0" type="line"/>
    </contour>
  </outline>
</glyph>
<glyph name="M" format="2">
  <advance width="888"/>
  <unicode hex="004D"/>
  <outline>
    <contour>
      <point x="300" y="320" type="line"/>
      <point x="206" y="0" type="line"/>
      <point x="1" y="0" type="line"/>
      <point x="246" y="735" type="line"/>
      <point x="471" y="334" type="line"/>
      <point x="840" y="740" type="line"/>
      <point x="831" y="0" type="line"/>
      <point x="628" y="0" type="line"/>
      <point x="645" y="314" type="line"/>
      <point x="431" y="64" type="line"/>
    </contour>
  </outline>
</glyph>
<glyph name="N" format="2">
  <advance width="775"/>
  <unicode hex="004E"/>
  <outline>
    <contour>
      <point x="616" y="700" type="line"/>
      <point x="800" y="700" type="line"/>
      <point x="675" y="-34" type="line"/>
      <point x="286" y="356" type="line"/>
      <point x="225" y="0" type="line"/>
      <point x="41" y="0" type="line"/>
      <point x="166" y="734" type="line"/>
      <point x="554" y="344" type="line"/>
    </contour>
  </outline>
</glyph>
<glyph name="P" format="2">
  <advance width="625"/>
  <unicode hex="0050"/>
  <outline>
    <contour>
      <point x="161" y="700" type="line"/>
      <point x="353" y="700" type="line"/>
      <point x="232" y="0" type="line"/>
      <point x="41" y="0" type="line"/>
    </contour>
    <contour>
      <point x="255" y="544" type="line"/>
      <point x="282" y="700" type="line"/>
      <point x="408" y="700" type="line"/>
      <point x="574" y="698"/>
      <point x="664" y="614"/>
      <point x="650" y="466" type="curve" smooth="yes"/>
      <point x="635" y="316"/>
      <point x="512" y="233"/>
      <point x="340" y="231" type="curve"/>
      <point x="200" y="231" type="line"/>
      <point x="228" y="388" type="line"/>
      <point x="356" y="388" type="line"/>
      <point x="412" y="388"/>
      <point x="457" y="416"/>
      <point x="466" y="466" type="curve" smooth="yes"/>
      <point x="474" y="514"/>
      <point x="443" y="544"/>
      <point x="390" y="544" type="curve" smooth="yes"/>
    </contour>
  </outline>
</glyph>
<glyph name="Q" format="2">
  <advance width="859"/>
  <unicode hex="0051"/>
  <outline>
    <contour>
      <point x="265" y="350" type="curve" smooth="yes"/>
      <point x="248" y="240"/>
      <point x="303" y="144"/>
      <point x="415" y="143" type="curve" smooth="yes"/>
      <point x="523" y="142"/>
      <point x="607" y="221"/>
      <point x="626" y="326" type="curve" smooth="yes"/>
      <point x="644" y="428"/>
      <point x="602" y="539"/>
      <point x="478" y="541" type="curve" smooth="yes"/>
      <point x="369" y="542"/>
      <point x="283" y="456"/>
    </contour>
    <contour>
      <point x="62" y="350" type="curve" smooth="yes"/>
      <point x="94" y="561"/>
      <point x="281" y="718"/>
      <point x="497" y="718" type="curve" smooth="yes"/>
      <point x="711" y="718"/>
      <point x="839" y="554"/>
      <point x="810" y="350" type="curve" smooth="yes"/>
      <point x="778" y="139"/>
      <point x="604" y="-26"/>
      <point x="382" y="-26" type="curve" smooth="yes"/>
      <point x="164" y="-26"/>
      <point x="32" y="145"/>
    </contour>
    <contour>
      <point x="367" y="300" type="line"/>
      <point x="550" y="300" type="line"/>
      <point x="834" y="-16" type="line"/>
      <point x="643" y="-16" type="line"/>
    </contour>
  </outline>
</glyph>
<glyph name="R" format="2">
  <advance width="653"/>
  <unicode hex="0052"/>
  <outline>
    <contour>
      <point x="281" y="308" type="line"/>
      <point x="472" y="308" type="line"/>
      <point x="623" y="0" type="line"/>
      <point x="406" y="0" type="line"/>
    </contour>
    <contour>
      <point x="161" y="700" type="line"/>
      <point x="353" y="700" type="line"/>
      <point x="232" y="0" type="line"/>
      <point x="41" y="0" type="line"/>
    </contour>
    <contour>
      <point x="254" y="536" type="line"/>
      <point x="282" y="700" type="line"/>
      <point x="424" y="700" type="line" smooth="yes"/>
      <point x="589" y="700"/>
      <point x="683" y="608"/>
      <point x="665" y="466" type="curve" smooth="yes"/>
      <point x="647" y="322"/>
      <point x="524" y="231"/>
      <point x="354" y="231" type="curve" smooth="yes"/>
      <point x="200" y="231" type="line"/>
      <point x="227" y="380" type="line"/>
      <point x="354" y="380" type="line" smooth="yes"/>
      <point x="410" y="380"/>
      <point x="455" y="408"/>
      <point x="464" y="458" type="curve" smooth="yes"/>
      <point x="472" y="506"/>
      <point x="443" y="536"/>
      <point x="390" y="536" type="curve" smooth="yes"/>
    </contour>
  </outline>
</glyph>
<glyph name="S" format="2">
  <advance width="629"/>
  <unicode hex="0053"/>
  <outline>
    <contour>
      <point x="171" y="256" type="line"/>
      <point x="203" y="189"/>
      <point x="248" y="140"/>
      <point x="316" y="140" type="curve" smooth="yes"/>
      <point x="359" y="140"/>
      <point x="397" y="163"/>
      <point x="402" y="199" type="curve" smooth="yes"/>
      <point x="410" y="244"/>
      <point x="360" y="261"/>
      <point x="288" y="291" type="curve" smooth="yes"/>
      <point x="212" y="325"/>
      <point x="122" y="392"/>
      <point x="134" y="511" type="curve" smooth="yes"/>
      <point x="150" y="642"/>
      <point x="279" y="718"/>
      <point x="417" y="718" type="curve" smooth="yes"/>
      <point x="547" y="718"/>
      <point x="624" y="646"/>
      <point x="659" y="562" type="curve"/>
      <point x="507" y="484" type="line"/>
      <point x="483" y="528"/>
      <point x="451" y="556"/>
      <point x="402" y="556" type="curve" smooth="yes"/>
      <point x="365" y="556"/>
      <point x="333" y="540"/>
      <point x="328" y="510" type="curve" smooth="yes"/>
      <point x="319" y="464"/>
      <point x="400" y="441"/>
      <point x="460" y="418" type="curve" smooth="yes"/>
      <point x="556" y="381"/>
      <point x="616" y="308"/>
      <point x="604" y="204" type="curve" smooth="yes"/>
      <point x="586" y="58"/>
      <point x="446" y="-26"/>
      <point x="304" y="-26" type="curve" smooth="yes"/>
      <point x="172" y="-26"/>
      <point x="68" y="52"/>
      <point x="30" y="161" type="curve"/>
    </contour>
  </outline>
</glyph>
<glyph name="T" format="2">
  <advance width="572"/>
  <unicode hex="0054"/>
  <outline>
    <contour>
      <point x="63" y="526" type="line"/>
      <point x="93" y="700" type="line"/>
      <point x="666" y="700" type="line"/>
      <point x="636" y="526" type="line"/>
      <point x="446" y="526" type="line"/>
      <point x="356" y="0" type="line"/>
      <point x="163" y="0" type="line"/>
      <point x="254" y="526" type="line"/>
    </contour>
  </outline>
</glyph>
<glyph name="U" format="2">
  <advance width="701"/>
  <unicode hex="0055"/>
  <outline>
    <contour>
      <point x="156" y="700" type="line"/>
      <point x="348" y="700" type="line"/>
      <point x="269" y="246" type="line" smooth="yes"/>
      <point x="262" y="190"/>
      <point x="278" y="141"/>
      <point x="343" y="140" type="curve" smooth="yes"/>
      <point x="411" y="139"/>
      <point x="450" y="187"/>
      <point x="461" y="246" type="curve"/>
      <point x="540" y="700" type="line"/>
      <point x="731" y="700" type="line"/>
      <point x="651" y="230" type="line" smooth="yes"/>
      <point x="623" y="58"/>
      <point x="492" y="-34"/>
      <point x="324" y="-34" type="curve" smooth="yes"/>
      <point x="164" y="-34"/>
      <point x="53" y="60"/>
      <point x="76" y="230" type="curve"/>
    </contour>
  </outline>
</glyph>
<glyph name="V" format="2">
  <advance width="734"/>
  <unicode hex="0056"/>
  <outline>
    <contour>
      <point x="398" y="324" type="line"/>
      <point x="604" y="700" type="line"/>
      <point x="832" y="700" type="line"/>
      <point x="344" y="-50" type="line"/>
      <point x="88" y="700" type="line"/>
      <point x="309" y="700" type="line"/>
    </contour>
  </outline>
</glyph>
<glyph name="W" format="2">
  <advance width="1054"/>
  <unicode hex="0057"/>
  <outline>
    <contour>
      <point x="742" y="330" type="line"/>
      <point x="915" y="700" type="line"/>
      <point x="1148" y="700" type="line"/>
      <point x="729" y="-44" type="line"/>
      <point x="566" y="340" type="line"/>
      <point x="281" y="-46" type="line"/>
      <point x="93" y="700" type="line"/>
      <point x="318" y="700" type="line"/>
      <point x="374" y="332" type="line"/>
      <point x="623" y="738" type="line"/>
    </contour>
  </outline>
</glyph>
<glyph name="X" format="2">
  <advance width="703"/>
  <unicode hex="0058"/>
  <outline>
    <contour>
      <point x="540" y="700" type="line"/>
      <point x="782" y="700" type="line"/>
      <point x="509" y="352" type="line"/>
      <point x="684" y="0" type="line"/>
      <point x="452" y="0" type="line"/>
      <point x="372" y="212" type="line"/>
      <point x="223" y="0" type="line"/>
      <point x="-19" y="0" type="line"/>
      <point x="277" y="360" type="line"/>
      <point x="118" y="700" type="line"/>
      <point x="351" y="700" type="line"/>
      <point x="415" y="517" type="line"/>
    </contour>
  </outline>
</glyph>
<glyph name="Y" format="2">
  <advance width="669"/>
  <unicode hex="0059"/>
  <outline>
    <contour>
      <point x="544" y="700" type="line"/>
      <point x="770" y="700" type="line"/>
      <point x="452" y="276" type="line"/>
      <point x="406" y="0" type="line"/>
      <point x="210" y="0" type="line"/>
      <point x="260" y="284" type="line"/>
      <point x="90" y="700" type="line"/>
      <point x="307" y="700" type="line"/>
      <point x="384" y="459" type="line"/>
    </contour>
  </outline>
</glyph>
<glyph name="Z" format="2">
  <advance width="622"/>
  <unicode hex="005A"/>
  <outline>
    <contour>
      <point x="123" y="526" type="line"/>
      <point x="153" y="700" type="line"/>
      <point x="708" y="700" type="line"/>
      <point x="308" y="166" type="line"/>
      <point x="576" y="166" type="line"/>
      <point x="546" y="0" type="line"/>
      <point x="-24" y="0" type="line"/>
      <point x="370" y="526" type="line"/>
    </contour>
  </outline>
</glyph>
<glyph name="bracketleft" format="2">
  <advance width="369"/>
  <unicode hex="005B"/>
  <outline>
    <contour>
      <point x="334" y="632" type="line"/>
      <point x="226" y="-72" type="line"/>
      <point x="324" y="-72" type="line"/>
      <point x="300" y="-220" type="line"/>
      <point x="32" y="-220" type="line"/>
      <point x="187" y="780" type="line"/>
      <point x="455" y="780" type="line"/>
      <point x="432" y="632" type="line"/>
    </contour>
  </outline>
</glyph>
<glyph name="bracketright" format="2">
  <advance width="369"/>
  <unicode hex="005D"/>
  <outline>
    <contour>
      <point x="88" y="-72" type="line"/>
      <point x="196" y="632" type="line"/>
      <point x="98" y="632" type="line"/>
      <point x="121" y="780" type="line"/>
      <point x="390" y="780" type="line"/>
      <point x="235" y="-220" type="line"/>
      <point x="-34" y="-220" type="line"/>
      <point x="-10" y="-72" type="line"/>
    </contour>
  </outline>
</glyph>
<glyph name="asciicircum" format="2">
  <advance width="494"/>
  <unicode hex="005E"/>
  <outline>
    <contour>
      <point x="320" y="565" type="line"/>
      <point x="232" y="444" type="line"/>
      <point x="76" y="444" type="line"/>
      <point x="286" y="710" type="line"/>
      <point x="391" y="710" type="line"/>
      <point x="511" y="444" type="line"/>
      <point x="364" y="444" type="line"/>
    </contour>
  </outline>
</glyph>
<glyph name="underscore" format="2">
  <advance width="524"/>
  <unicode hex="005F"/>
  <outline>
    <contour>
      <point x="-56" y="-160" type="line"/>
      <point x="-37" y="-52" type="line"/>
      <point x="490" y="-52" type="line"/>
      <point x="471" y="-160" type="line"/>
    </contour>
  </outline>
</glyph>
<glyph name="a" format="2">
  <advance width="611"/>
  <unicode hex="0061"/>
  <outline>
    <contour>
      <point x="442" y="460" type="line"/>
      <point x="614" y="460" type="line"/>
      <point x="534" y="0" type="line"/>
      <point x="364" y="0" type="line"/>
    </contour>
    <contour>
      <point x="40" y="230" type="curve" smooth="yes"/>
      <point x="58" y="368"/>
      <point x="167" y="470"/>
      <point x="287" y="470" type="curve" smooth="yes"/>
      <point x="411" y="470"/>
      <point x="463" y="356"/>
      <point x="447" y="230" type="curve" smooth="yes"/>
      <point x="429" y="98"/>
      <point x="338" y="-10"/>
      <point x="216" y="-10" type="curve" smooth="yes"/>
      <point x="96" y="-10"/>
      <point x="24" y="98"/>
    </contour>
    <contour>
      <point x="220" y="230" type="curve" smooth="yes"/>
      <point x="212" y="178"/>
      <point x="238" y="127"/>
      <point x="291" y="126" type="curve" smooth="yes"/>
      <point x="342" y="125"/>
      <point x="393" y="173"/>
      <point x="402" y="230" type="curve" smooth="yes"/>
      <point x="410" y="283"/>
      <point x="385" y="332"/>
      <point x="335" y="334" type="curve" smooth="yes"/>
      <point x="281" y="336"/>
      <point x="229" y="285"/>
    </contour>
  </outline>
</glyph>
<glyph name="b" format="2">
  <advance width="611"/>
  <unicode hex="0062"/>
  <outline>
    <contour>
      <point x="328" y="780" type="line"/>
      <point x="194" y="0" type="line"/>
      <point x="23" y="0" type="line"/>
      <point x="157" y="780" type="line"/>
    </contour>
    <contour>
      <point x="596" y="230" type="curve" smooth="yes"/>
      <point x="578" y="92"/>
      <point x="470" y="-10"/>
      <point x="350" y="-10" type="curve" smooth="yes"/>
      <point x="226" y="-10"/>
      <point x="174" y="104"/>
      <point x="190" y="230" type="curve" smooth="yes"/>
      <point x="208" y="362"/>
      <point x="299" y="470"/>
      <point x="421" y="470" type="curve" smooth="yes"/>
      <point x="541" y="470"/>
      <point x="612" y="362"/>
    </contour>
    <contour>
      <point x="418" y="230" type="curve" smooth="yes"/>
      <point x="426" y="282"/>
      <point x="399" y="333"/>
      <point x="346" y="334" type="curve" smooth="yes"/>
      <point x="295" y="335"/>
      <point x="243" y="287"/>
      <point x="234" y="230" type="curve" smooth="yes"/>
      <point x="226" y="177"/>
      <point x="253" y="128"/>
      <point x="303" y="126" type="curve" smooth="yes"/>
      <point x="357" y="124"/>
      <point x="409" y="175"/>
    </contour>
  </outline>
</glyph>
<glyph name="c" format="2">
  <advance width="477"/>
  <unicode hex="0063"/>
  <outline>
    <contour>
      <point x="215" y="230" type="curve" smooth="yes"/>
      <point x="206" y="170"/>
      <point x="244" y="127"/>
      <point x="304" y="125" type="curve" smooth="yes"/>
      <point x="356" y="123"/>
      <point x="405" y="151"/>
      <point x="440" y="188" type="curve"/>
      <point x="419" y="26" type="line"/>
      <point x="381" y="4"/>
      <point x="336" y="-10"/>
      <point x="276" y="-10" type="curve" smooth="yes"/>
      <point x="128" y="-10"/>
      <point x="22" y="88"/>
      <point x="40" y="230" type="curve" smooth="yes"/>
      <point x="59" y="374"/>
      <point x="188" y="470"/>
      <point x="340" y="470" type="curve" smooth="yes"/>
      <point x="400" y="470"/>
      <point x="441" y="455"/>
      <point x="478" y="435" type="curve"/>
      <point x="457" y="273" type="line"/>
      <point x="431" y="313"/>
      <point x="388" y="336"/>
      <point x="344" y="336" type="curve" smooth="yes"/>
      <point x="279" y="336"/>
      <point x="225" y="289"/>
    </contour>
  </outline>
</glyph>
<glyph name="e" format="2">
  <advance width="573"/>
  <unicode hex="0065"/>
  <outline>
    <contour>
      <point x="287" y="-10" type="curve" smooth="yes"/>
      <point x="139" y="-10"/>
      <point x="44" y="70"/>
      <point x="44" y="200" type="curve" smooth="yes"/>
      <point x="44" y="354"/>
      <point x="166" y="470"/>
      <point x="344" y="470" type="curve" smooth="yes"/>
      <point x="490" y="470"/>
      <point x="566" y="391"/>
      <point x="566" y="265" type="curve" smooth="yes"/>
      <point x="566" y="243"/>
      <point x="563" y="216"/>
      <point x="556" y="194" type="curve"/>
      <point x="128" y="194" type="line"/>
      <point x="128" y="283" type="line"/>
      <point x="414" y="283" type="line"/>
      <point x="378" y="237" type="line"/>
      <point x="386" y="249"/>
      <point x="392" y="264"/>
      <point x="392" y="276" type="curve" smooth="yes"/>
      <point x="392" y="328"/>
      <point x="373" y="360"/>
      <point x="327" y="360" type="curve" smooth="yes"/>
      <point x="264" y="360"/>
      <point x="232" y="314"/>
      <point x="216" y="226" type="curve" smooth="yes"/>
      <point x="202" y="156"/>
      <point x="233" y="110"/>
      <point x="293" y="110" type="curve" smooth="yes"/>
      <point x="339" y="110"/>
      <point x="371" y="128"/>
      <point x="395" y="162" type="curve"/>
      <point x="547" y="132" type="line"/>
      <point x="497" y="38"/>
      <point x="409" y="-10"/>
    </contour>
  </outline>
</glyph>
<glyph name="f" format="2">
  <advance width="350"/>
  <unicode hex="0066"/>
  <outline>
    <contour>
      <point x="62" y="460" type="line"/>
      <point x="394" y="460" type="line"/>
      <point x="370" y="320" type="line"/>
      <point x="37" y="320" type="line"/>
    </contour>
    <contour>
      <point x="405" y="620" type="line"/>
      <point x="395" y="634"/>
      <point x="382" y="646"/>
      <point x="365" y="646" type="curve" smooth="yes"/>
      <point x="334" y="646"/>
      <point x="311" y="617"/>
      <point x="306" y="583" type="curve" smooth="yes"/>
      <point x="205" y="0" type="line"/>
      <point x="42" y="0" type="line"/>
      <point x="148" y="630" type="line" smooth="yes"/>
      <point x="166" y="728"/>
      <point x="240" y="799"/>
      <point x="355" y="798" type="curve" smooth="yes"/>
      <point x="419" y="798"/>
      <point x="457" y="770"/>
      <point x="487" y="743" type="curve"/>
    </contour>
  </outline>
</glyph>
<glyph name="g" format="2">
  <advance width="603"/>
  <unicode hex="0067"/>
  <outline>
    <contour>
      <point x="4" y="-34" type="curve"/>
      <point x="166" y="-34" type="line"/>
      <point x="170" y="-82"/>
      <point x="191" y="-106"/>
      <point x="240" y="-106" type="curve" smooth="yes"/>
      <point x="305" y="-107"/>
      <point x="354" y="-57"/>
      <point x="364" y="10" type="curve" smooth="yes"/>
      <point x="442" y="460" type="line"/>
      <point x="606" y="460" type="line"/>
      <point x="528" y="10" type="line" smooth="yes"/>
      <point x="502" y="-154"/>
      <point x="391" y="-242"/>
      <point x="237" y="-242" type="curve" smooth="yes"/>
      <point x="77" y="-242"/>
      <point x="5" y="-162"/>
    </contour>
    <contour>
      <point x="42" y="238" type="curve" smooth="yes"/>
      <point x="60" y="376"/>
      <point x="168" y="470"/>
      <point x="287" y="470" type="curve" smooth="yes"/>
      <point x="409" y="470"/>
      <point x="465" y="364"/>
      <point x="449" y="238" type="curve" smooth="yes"/>
      <point x="432" y="106"/>
      <point x="340" y="6"/>
      <point x="218" y="6" type="curve" smooth="yes"/>
      <point x="99" y="6"/>
      <point x="26" y="106"/>
    </contour>
    <contour>
      <point x="221" y="237" type="curve" smooth="yes"/>
      <point x="213" y="184"/>
      <point x="242" y="144"/>
      <point x="294" y="142" type="curve" smooth="yes"/>
      <point x="344" y="140"/>
      <point x="396" y="182"/>
      <point x="404" y="239" type="curve" smooth="yes"/>
      <point x="412" y="293"/>
      <point x="383" y="334"/>
      <point x="335" y="334" type="curve" smooth="yes"/>
      <point x="278" y="334"/>
      <point x="229" y="292"/>
    </contour>
  </outline>
</glyph>
<glyph name="h" format="2">
  <advance width="563"/>
  <unicode hex="0068"/>
  <outline>
    <contour>
      <point x="330" y="780" type="line"/>
      <point x="195" y="0" type="line"/>
      <point x="24" y="0" type="line"/>
      <point x="158" y="780" type="line"/>
    </contour>
    <contour>
      <point x="365" y="280" type="line" smooth="yes"/>
      <point x="370" y="317"/>
      <point x="366" y="350"/>
      <point x="325" y="354" type="curve" smooth="yes"/>
      <point x="283" y="358"/>
      <point x="253" y="320"/>
      <point x="243" y="280" type="curve"/>
      <point x="216" y="281" type="line"/>
      <point x="234" y="383"/>
      <point x="291" y="477"/>
      <point x="408" y="478" type="curve" smooth="yes"/>
      <point x="522" y="479"/>
      <point x="552" y="406"/>
      <point x="538" y="306" type="curve"/>
      <point x="486" y="0" type="line"/>
      <point x="315" y="0" type="line"/>
    </contour>
  </outline>
</glyph>
<glyph name="i" format="2">
  <advance width="272"/>
  <unicode hex="0069"/>
  <outline>
    <contour>
      <point x="118" y="626" type="curve" smooth="yes"/>
      <point x="118" y="680"/>
      <point x="162" y="716"/>
      <point x="216" y="716" type="curve" smooth="yes"/>
      <point x="270" y="716"/>
      <point x="314" y="680"/>
      <point x="314" y="626" type="curve" smooth="yes"/>
      <point x="314" y="572"/>
      <point x="270" y="537"/>
      <point x="216" y="537" type="curve" smooth="yes"/>
      <point x="162" y="537"/>
      <point x="118" y="572"/>
    </contour>
    <contour>
      <point x="104" y="460" type="line"/>
      <point x="270" y="460" type="line"/>
      <point x="192" y="0" type="line"/>
      <point x="26" y="0" type="line"/>
    </contour>
  </outline>
</glyph>
<glyph name="j" format="2">
  <advance width="269"/>
  <unicode hex="006A"/>
  <outline>
    <contour>
      <point x="116" y="626" type="curve" smooth="yes"/>
      <point x="116" y="680"/>
      <point x="160" y="716"/>
      <point x="214" y="716" type="curve" smooth="yes"/>
      <point x="268" y="716"/>
      <point x="312" y="680"/>
      <point x="312" y="626" type="curve" smooth="yes"/>
      <point x="312" y="572"/>
      <point x="268" y="537"/>
      <point x="214" y="537" type="curve" smooth="yes"/>
      <point x="160" y="537"/>
      <point x="116" y="572"/>
    </contour>
    <contour>
      <point x="-80" y="-66" type="line"/>
      <point x="-70" y="-80"/>
      <point x="-55" y="-92"/>
      <point x="-36" y="-92" type="curve" smooth="yes"/>
      <point x="-4" y="-92"/>
      <point x="16" y="-62"/>
      <point x="20" y="-30" type="curve" smooth="yes"/>
      <point x="104" y="460" type="line"/>
      <point x="268" y="460" type="line"/>
      <point x="176" y="-77" type="line" smooth="yes"/>
      <point x="158" y="-175"/>
      <point x="87" y="-245"/>
      <point x="-28" y="-244" type="curve" smooth="yes"/>
      <point x="-91" y="-244"/>
      <point x="-131" y="-217"/>
      <point x="-161" y="-189" type="curve"/>
    </contour>
  </outline>
</glyph>
<glyph name="k" format="2">
  <advance width="599"/>
  <unicode hex="006B"/>
  <outline>
    <contour>
      <point x="157" y="780" type="line"/>
      <point x="320" y="780" type="line"/>
      <point x="186" y="0" type="line"/>
      <point x="24" y="0" type="line"/>
    </contour>
    <contour>
      <point x="421" y="460" type="line"/>
      <point x="630" y="460" type="line"/>
      <point x="400" y="266" type="line"/>
      <point x="563" y="0" type="line"/>
      <point x="372" y="0" type="line"/>
      <point x="204" y="274" type="line"/>
    </contour>
  </outline>
</glyph>
<glyph name="l" format="2">
  <advance width="273"/>
  <unicode hex="006C"/>
  <outline>
    <contour>
      <point x="157" y="780" type="line"/>
      <point x="330" y="780" type="line"/>
      <point x="195" y="0" type="line"/>
      <point x="24" y="0" type="line"/>
    </contour>
  </outline>
</glyph>
<glyph name="m" format="2">
  <advance width="807"/>
  <unicode hex="006D"/>
  <outline>
    <contour>
      <point x="780" y="298" type="curve" smooth="yes"/>
      <point x="729" y="0" type="line"/>
      <point x="557" y="0" type="line"/>
      <point x="608" y="280" type="line" smooth="yes"/>
      <point x="612" y="315"/>
      <point x="612" y="354"/>
      <point x="576" y="354" type="curve" smooth="yes"/>
      <point x="541" y="354"/>
      <point x="513" y="327"/>
      <point x="506" y="281" type="curve" smooth="yes"/>
      <point x="458" y="0" type="line"/>
      <point x="287" y="0" type="line"/>
      <point x="338" y="280" type="line" smooth="yes"/>
      <point x="341" y="315"/>
      <point x="340" y="354"/>
      <point x="305" y="354" type="curve" smooth="yes"/>
      <point x="271" y="354"/>
      <point x="243" y="328"/>
      <point x="237" y="284" type="curve" smooth="yes"/>
      <point x="188" y="0" type="line"/>
      <point x="24" y="0" type="line"/>
      <point x="103" y="460" type="line"/>
      <point x="267" y="460" type="line"/>
      <point x="257" y="398" type="line"/>
      <point x="287" y="442"/>
      <point x="331" y="470"/>
      <point x="393" y="470" type="curve" smooth="yes"/>
      <point x="463" y="470"/>
      <point x="497" y="442"/>
      <point x="508" y="395" type="curve"/>
      <point x="546" y="441"/>
      <point x="600" y="470"/>
      <point x="664" y="470" type="curve" smooth="yes"/>
      <point x="772" y="470"/>
      <point x="792" y="394"/>
    </contour>
  </outline>
</glyph>
<glyph name="n" format="2">
  <advance width="572"/>
  <unicode hex="006E"/>
  <outline>
    <contour>
      <point x="365" y="280" type="line" smooth="yes"/>
      <point x="369" y="317"/>
      <point x="365" y="354"/>
      <point x="320" y="354" type="curve" smooth="yes"/>
      <point x="278" y="354"/>
      <point x="251" y="327"/>
      <point x="244" y="282" type="curve" smooth="yes"/>
      <point x="195" y="0" type="line"/>
      <point x="24" y="0" type="line"/>
      <point x="103" y="460" type="line"/>
      <point x="274" y="460" type="line"/>
      <point x="264" y="397" type="line"/>
      <point x="295" y="441"/>
      <point x="341" y="470"/>
      <point x="406" y="470" type="curve" smooth="yes"/>
      <point x="520" y="471"/>
      <point x="559" y="398"/>
      <point x="544" y="298" type="curve" smooth="yes"/>
      <point x="494" y="0" type="line"/>
      <point x="315" y="0" type="line"/>
    </contour>
  </outline>
</glyph>
<glyph name="o" format="2">
  <advance width="584"/>
  <unicode hex="006F"/>
  <outline>
    <contour>
      <point x="47" y="230" type="curve" smooth="yes"/>
      <point x="66" y="374"/>
      <point x="193" y="470"/>
      <point x="343" y="470" type="curve" smooth="yes"/>
      <point x="489" y="470"/>
      <point x="593" y="372"/>
      <point x="575" y="230" type="curve" smooth="yes"/>
      <point x="556" y="86"/>
      <point x="429" y="-10"/>
      <point x="279" y="-10" type="curve" smooth="yes"/>
      <point x="133" y="-10"/>
      <point x="29" y="88"/>
    </contour>
    <contour>
      <point x="222" y="230" type="curve" smooth="yes"/>
      <point x="215" y="177"/>
      <point x="241" y="131"/>
      <point x="292" y="130" type="curve" smooth="yes"/>
      <point x="344" y="129"/>
      <point x="392" y="174"/>
      <point x="400" y="230" type="curve" smooth="yes"/>
      <point x="407" y="283"/>
      <point x="381" y="329"/>
      <point x="330" y="330" type="curve" smooth="yes"/>
      <point x="278" y="331"/>
      <point x="230" y="286"/>
    </contour>
  </outline>
</glyph>
<glyph name="p" format="2">
  <advance width="611"/>
  <unicode hex="0070"/>
  <outline>
    <contour>
      <point x="158" y="-220" type="line"/>
      <point x="-14" y="-220" type="line"/>
      <point x="102" y="460" type="line"/>
      <point x="274" y="460" type="line"/>
    </contour>
    <contour>
      <point x="596" y="230" type="curve" smooth="yes"/>
      <point x="578" y="87"/>
      <point x="470" y="-18"/>
      <point x="348" y="-18" type="curve" smooth="yes"/>
      <point x="218" y="-18"/>
      <point x="182" y="106"/>
      <point x="198" y="230" type="curve" smooth="yes"/>
      <point x="216" y="362"/>
      <point x="294" y="478"/>
      <point x="422" y="478" type="curve" smooth="yes"/>
      <point x="544" y="478"/>
      <point x="612" y="367"/>
    </contour>
    <contour>
      <point x="418" y="231" type="curve" smooth="yes"/>
      <point x="426" y="284"/>
      <point x="397" y="324"/>
      <point x="345" y="326" type="curve" smooth="yes"/>
      <point x="295" y="328"/>
      <point x="242" y="286"/>
      <point x="234" y="229" type="curve" smooth="yes"/>
      <point x="226" y="175"/>
      <point x="256" y="136"/>
      <point x="304" y="134" type="curve" smooth="yes"/>
      <point x="357" y="132"/>
      <point x="410" y="176"/>
    </contour>
  </outline>
</glyph>
<glyph name="q" format="2">
  <advance width="611"/>
  <unicode hex="0071"/>
  <outline>
    <contour>
      <point x="325" y="-220" type="line"/>
      <point x="442" y="460" type="line"/>
      <point x="614" y="460" type="line"/>
      <point x="496" y="-220" type="line"/>
    </contour>
    <contour>
      <point x="40" y="230" type="curve" smooth="yes"/>
      <point x="58" y="373"/>
      <point x="166" y="478"/>
      <point x="288" y="478" type="curve" smooth="yes"/>
      <point x="418" y="478"/>
      <point x="455" y="354"/>
      <point x="439" y="230" type="curve" smooth="yes"/>
      <point x="421" y="98"/>
      <point x="342" y="-18"/>
      <point x="214" y="-18" type="curve" smooth="yes"/>
      <point x="92" y="-18"/>
      <point x="24" y="93"/>
    </contour>
    <contour>
      <point x="220" y="229" type="curve" smooth="yes"/>
      <point x="212" y="176"/>
      <point x="240" y="136"/>
      <point x="292" y="134" type="curve" smooth="yes"/>
      <point x="342" y="132"/>
      <point x="394" y="174"/>
      <point x="402" y="231" type="curve" smooth="yes"/>
      <point x="410" y="285"/>
      <point x="381" y="324"/>
      <point x="333" y="326" type="curve" smooth="yes"/>
      <point x="280" y="328"/>
      <point x="228" y="284"/>
    </contour>
  </outline>
</glyph>
<glyph name="r" format="2">
  <advance width="423"/>
  <unicode hex="0072"/>
  <outline>
    <contour>
      <point x="271" y="460" type="line"/>
      <point x="191" y="0" type="line"/>
      <point x="24" y="0" type="line"/>
      <point x="103" y="460" type="line"/>
    </contour>
    <contour>
      <point x="374" y="283" type="line"/>
      <point x="361" y="297"/>
      <point x="345" y="310"/>
      <point x="322" y="310" type="curve" smooth="yes"/>
      <point x="275" y="311"/>
      <point x="235" y="263"/>
      <point x="228" y="210" type="curve"/>
      <point x="210" y="281" type="line"/>
      <point x="227" y="377"/>
      <point x="309" y="472"/>
      <point x="389" y="472" type="curve" smooth="yes"/>
      <point x="423" y="472"/>
      <point x="449" y="453"/>
      <point x="466" y="430" type="curve"/>
    </contour>
  </outline>
</glyph>
<glyph name="s" format="2">
  <advance width="458"/>
  <unicode hex="0073"/>
  <outline>
    <contour>
      <point x="85" y="174" type="line"/>
      <point x="144" y="125"/>
      <point x="195" y="98"/>
      <point x="234" y="101" type="curve" smooth="yes"/>
      <point x="256" y="102"/>
      <point x="273" y="114"/>
      <point x="274" y="132" type="curve" smooth="yes"/>
      <point x="277" y="161"/>
      <point x="244" y="172"/>
      <point x="193" y="190" type="curve" smooth="yes"/>
      <point x="130" y="213"/>
      <point x="76" y="256"/>
      <point x="84" y="336" type="curve" smooth="yes"/>
      <point x="94" y="424"/>
      <point x="177" y="470"/>
      <point x="273" y="470" type="curve" smooth="yes"/>
      <point x="349" y="470"/>
      <point x="412" y="441"/>
      <point x="470" y="407" type="curve"/>
      <point x="408" y="294" type="line"/>
      <point x="372" y="328"/>
      <point x="324" y="356"/>
      <point x="282" y="356" type="curve" smooth="yes"/>
      <point x="259" y="356"/>
      <point x="241" y="345"/>
      <point x="239" y="330" type="curve" smooth="yes"/>
      <point x="234" y="298"/>
      <point x="284" y="291"/>
      <point x="332" y="272" type="curve" smooth="yes"/>
      <point x="396" y="246"/>
      <point x="448" y="208"/>
      <point x="442" y="130" type="curve" smooth="yes"/>
      <point x="432" y="30"/>
      <point x="357" y="-21"/>
      <point x="252" y="-22" type="curve" smooth="yes"/>
      <point x="156" y="-23"/>
      <point x="79" y="12"/>
      <point x="9" y="58" type="curve"/>
    </contour>
  </outline>
</glyph>
<glyph name="t" format="2">
  <advance width="330"/>
  <unicode hex="0074"/>
  <outline>
    <contour>
      <point x="56" y="460" type="line"/>
      <point x="380" y="460" type="line"/>
      <point x="355" y="320" type="line"/>
      <point x="30" y="320" type="line"/>
    </contour>
    <contour>
      <point x="163" y="620" type="line"/>
      <point x="327" y="620" type="line"/>
      <point x="220" y="0" type="line"/>
      <point x="56" y="0" type="line"/>
    </contour>
  </outline>
</glyph>
<glyph name="u" format="2">
  <advance width="572"/>
  <unicode hex="0075"/>
  <outline>
    <contour>
      <point x="232" y="180" type="line" smooth="yes"/>
      <point x="228" y="143"/>
      <point x="230" y="106"/>
      <point x="272" y="106" type="curve" smooth="yes"/>
      <point x="313" y="106"/>
      <point x="344" y="130"/>
      <point x="352" y="178" type="curve" smooth="yes"/>
      <point x="402" y="460" type="line"/>
      <point x="573" y="460" type="line"/>
      <point x="494" y="0" type="line"/>
      <point x="322" y="0" type="line"/>
      <point x="332" y="63" type="line"/>
      <point x="301" y="19"/>
      <point x="255" y="-10"/>
      <point x="190" y="-10" type="curve" smooth="yes"/>
      <point x="76" y="-10"/>
      <point x="39" y="62"/>
      <point x="52" y="162" type="curve"/>
      <point x="103" y="460" type="line"/>
      <point x="282" y="460" type="line"/>
    </contour>
  </outline>
</glyph>
<glyph name="v" format="2">
  <advance width="536"/>
  <unicode hex="0076"/>
  <outline>
    <contour>
      <point x="51" y="460" type="line"/>
      <point x="230" y="460" type="line"/>
      <point x="286" y="230" type="line"/>
      <point x="416" y="460" type="line"/>
      <point x="599" y="460" type="line"/>
      <point x="244" y="-62" type="line"/>
    </contour>
  </outline>
</glyph>
<glyph name="w" format="2">
  <advance width="761"/>
  <unicode hex="0077"/>
  <outline>
    <contour>
      <point x="42" y="460" type="line"/>
      <point x="214" y="460" type="line"/>
      <point x="263" y="248" type="line"/>
      <point x="437" y="498" type="line"/>
      <point x="524" y="246" type="line"/>
      <point x="648" y="460" type="line"/>
      <point x="829" y="460" type="line"/>
      <point x="502" y="-29" type="line"/>
      <point x="395" y="225" type="line"/>
      <point x="200" y="-30" type="line"/>
    </contour>
  </outline>
</glyph>
<glyph name="x" format="2">
  <advance width="549"/>
  <unicode hex="0078"/>
  <outline>
    <contour>
      <point x="404" y="460" type="line"/>
      <point x="598" y="460" type="line"/>
      <point x="382" y="232" type="line"/>
      <point x="530" y="0" type="line"/>
      <point x="348" y="0" type="line"/>
      <point x="278" y="124" type="line"/>
      <point x="180" y="0" type="line"/>
      <point x="-22" y="0" type="line"/>
      <point x="206" y="244" type="line"/>
      <point x="65" y="460" type="line"/>
      <point x="255" y="460" type="line"/>
      <point x="312" y="352" type="line"/>
    </contour>
  </outline>
</glyph>
<glyph name="y" format="2">
  <advance width="528"/>
  <unicode hex="0079"/>
  <outline>
    <contour>
      <point x="597" y="460" type="line"/>
      <point x="189" y="-220" type="line"/>
      <point x="15" y="-220" type="line"/>
      <point x="167" y="33" type="line"/>
      <point x="41" y="460" type="line"/>
      <point x="221" y="460" type="line"/>
      <point x="303" y="88" type="line"/>
      <point x="212" y="89" type="line"/>
      <point x="420" y="460" type="line"/>
    </contour>
  </outline>
</glyph>
<glyph name="z" format="2">
  <advance width="524"/>
  <unicode hex="007A"/>
  <outline>
    <contour>
      <point x="256" y="304" type="line"/>
      <point x="82" y="304" type="line"/>
      <point x="110" y="460" type="line"/>
      <point x="566" y="460" type="line"/>
      <point x="308" y="156" type="line"/>
      <point x="477" y="156" type="line"/>
      <point x="450" y="0" type="line"/>
      <point x="-17" y="0" type="line"/>
    </contour>
  </outline>
</glyph>
<glyph name="braceleft" format="2">
  <advance width="411"/>
  <unicode hex="007B"/>
  <outline>
    <contour>
      <point x="360" y="594" type="curve" smooth="yes"/>
      <point x="344" y="490" type="line" smooth="yes"/>
      <point x="326" y="388"/>
      <point x="297" y="289"/>
      <point x="160" y="280" type="curve"/>
      <point x="162" y="300" type="line"/>
      <point x="295" y="288"/>
      <point x="295" y="184"/>
      <point x="280" y="90" type="curve" smooth="yes"/>
      <point x="264" y="-15" type="line" smooth="yes"/>
      <point x="260" y="-42"/>
      <point x="271" y="-64"/>
      <point x="301" y="-64" type="curve" smooth="yes"/>
      <point x="336" y="-65" type="line"/>
      <point x="316" y="-200" type="line"/>
      <point x="223" y="-200" type="line" smooth="yes"/>
      <point x="135" y="-199"/>
      <point x="54" y="-154"/>
      <point x="68" y="-60" type="curve" smooth="yes"/>
      <point x="96" y="118" type="line" smooth="yes"/>
      <point x="103" y="181"/>
      <point x="96" y="208"/>
      <point x="50" y="228" type="curve"/>
      <point x="68" y="352" type="line"/>
      <point x="117" y="369"/>
      <point x="138" y="398"/>
      <point x="147" y="463" type="curve" smooth="yes"/>
      <point x="174" y="640" type="line" smooth="yes"/>
      <point x="188" y="734"/>
      <point x="272" y="778"/>
      <point x="364" y="780" type="curve"/>
      <point x="468" y="780" type="line"/>
      <point x="448" y="646" type="line"/>
      <point x="416" y="646" type="line" smooth="yes"/>
      <point x="386" y="646"/>
      <point x="364" y="622"/>
    </contour>
  </outline>
</glyph>
<glyph name="braceright" format="2">
  <advance width="411"/>
  <unicode hex="007D"/>
  <outline>
    <contour>
      <point x="109" y="-15" type="curve" smooth="yes"/>
      <point x="125" y="90" type="line" smooth="yes"/>
      <point x="143" y="192"/>
      <point x="172" y="291"/>
      <point x="309" y="300" type="curve"/>
      <point x="307" y="280" type="line"/>
      <point x="174" y="292"/>
      <point x="173" y="396"/>
      <point x="188" y="490" type="curve" smooth="yes"/>
      <point x="205" y="596" type="line" smooth="yes"/>
      <point x="209" y="622"/>
      <point x="197" y="644"/>
      <point x="168" y="644" type="curve" smooth="yes"/>
      <point x="132" y="644" type="line"/>
      <point x="152" y="780" type="line"/>
      <point x="246" y="780" type="line" smooth="yes"/>
      <point x="334" y="779"/>
      <point x="414" y="734"/>
      <point x="400" y="640" type="curve" smooth="yes"/>
      <point x="373" y="462" type="line" smooth="yes"/>
      <point x="366" y="399"/>
      <point x="372" y="372"/>
      <point x="418" y="352" type="curve"/>
      <point x="401" y="228" type="line"/>
      <point x="352" y="211"/>
      <point x="331" y="182"/>
      <point x="322" y="117" type="curve" smooth="yes"/>
      <point x="295" y="-60" type="line" smooth="yes"/>
      <point x="281" y="-154"/>
      <point x="196" y="-198"/>
      <point x="104" y="-200" type="curve"/>
      <point x="1" y="-200" type="line"/>
      <point x="20" y="-66" type="line"/>
      <point x="53" y="-66" type="line" smooth="yes"/>
      <point x="83" y="-66"/>
      <point x="105" y="-43"/>
    </contour>
  </outline>
</glyph>
<glyph name="asciitilde" format="2">
  <advance width="558"/>
  <unicode hex="007E"/>
  <outline>
    <contour>
      <point x="166" y="159" type="curve"/>
      <point x="36" y="164" type="line"/>
      <point x="35" y="172"/>
      <point x="34" y="181"/>
      <point x="35" y="189" type="curve" smooth="yes"/>
      <point x="39" y="227"/>
      <point x="55" y="262"/>
      <point x="81" y="292" type="curve" smooth="yes"/>
      <point x="113" y="328"/>
      <point x="156" y="353"/>
      <point x="220" y="352" type="curve" smooth="yes"/>
      <point x="264" y="352"/>
      <point x="296" y="331"/>
      <point x="336" y="302" type="curve" smooth="yes"/>
      <point x="359" y="286"/>
      <point x="379" y="268"/>
      <point x="398" y="268" type="curve" smooth="yes"/>
      <point x="417" y="268"/>
      <point x="430" y="288"/>
      <point x="434" y="304" type="curve" smooth="yes"/>
      <point x="436" y="316"/>
      <point x="435" y="329"/>
      <point x="433" y="340" type="curve"/>
      <point x="564" y="334" type="line"/>
      <point x="565" y="325"/>
      <point x="565" y="316"/>
      <point x="564" y="306" type="curve" smooth="yes"/>
      <point x="560" y="269"/>
      <point x="548" y="232"/>
      <point x="522" y="202" type="curve" smooth="yes"/>
      <point x="492" y="170"/>
      <point x="453" y="148"/>
      <point x="400" y="148" type="curve" smooth="yes"/>
      <point x="358" y="148"/>
      <point x="325" y="169"/>
      <point x="284" y="198" type="curve" smooth="yes"/>
      <point x="259" y="215"/>
      <point x="236" y="233"/>
      <point x="212" y="232" type="curve" smooth="yes"/>
      <point x="185" y="231"/>
      <point x="168" y="209"/>
      <point x="164" y="190" type="curve" smooth="yes"/>
      <point x="162" y="178"/>
      <point x="164" y="168"/>
    </contour>
  </outline>
</glyph>
<glyph name="exclamdown" format="2">
  <advance width="345"/>
  <unicode hex="00A1"/>
  <outline>
    <contour>
      <point x="212" y="-224" type="line"/>
      <point x="2" y="-224" type="line"/>
      <point x="116" y="234" type="line"/>
      <point x="256" y="234" type="line"/>
    </contour>
    <contour>
      <point x="319" y="406" type="curve" smooth="yes"/>
      <point x="312" y="352"/>
      <point x="261" y="312"/>
      <point x="203" y="312" type="curve" smooth="yes"/>
      <point x="145" y="312"/>
      <point x="104" y="352"/>
      <point x="112" y="408" type="curve" smooth="yes"/>
      <point x="119" y="462"/>
      <point x="170" y="502"/>
      <point x="228" y="502" type="curve" smooth="yes"/>
      <point x="286" y="502"/>
      <point x="327" y="462"/>
    </contour>
  </outline>
</glyph>
<glyph name="cent" format="2">
  <advance width="562"/>
  <unicode hex="00A2"/>
  <outline>
    <contour>
      <point x="194" y="38" type="line"/>
      <point x="319" y="38" type="line"/>
      <point x="304" y="-112" type="line"/>
      <point x="156" y="-112" type="line"/>
    </contour>
    <contour>
      <point x="224" y="230" type="curve" smooth="yes"/>
      <point x="214" y="168"/>
      <point x="254" y="127"/>
      <point x="312" y="125" type="curve" smooth="yes"/>
      <point x="368" y="123"/>
      <point x="413" y="155"/>
      <point x="449" y="189" type="curve"/>
      <point x="425" y="24" type="line"/>
      <point x="387" y="2"/>
      <point x="338" y="-10"/>
      <point x="282" y="-10" type="curve" smooth="yes"/>
      <point x="134" y="-10"/>
      <point x="30" y="88"/>
      <point x="50" y="230" type="curve" smooth="yes"/>
      <point x="71" y="374"/>
      <point x="201" y="470"/>
      <point x="354" y="470" type="curve" smooth="yes"/>
      <point x="410" y="470"/>
      <point x="455" y="457"/>
      <point x="492" y="435" type="curve"/>
      <point x="467" y="270" type="line"/>
      <point x="441" y="308"/>
      <point x="408" y="336"/>
      <point x="356" y="336" type="curve" smooth="yes"/>
      <point x="296" y="336"/>
      <point x="235" y="290"/>
    </contour>
    <contour>
      <point x="276" y="578" type="line"/>
      <point x="423" y="578" type="line"/>
      <point x="385" y="428" type="line"/>
      <point x="261" y="428" type="line"/>
    </contour>
  </outline>
</glyph>
<glyph name="sterling" format="2">
  <advance width="601"/>
  <unicode hex="00A3"/>
  <outline>
    <contour>
      <point x="100" y="370" type="line"/>
      <point x="476" y="370" type="line"/>
      <point x="457" y="262" type="line"/>
      <point x="80" y="262" type="line"/>
    </contour>
    <contour>
      <point x="472" y="463" type="line"/>
      <point x="473" y="509"/>
      <point x="465" y="559"/>
      <point x="401" y="560" type="curve" smooth="yes"/>
      <point x="356" y="561"/>
      <point x="315" y="533"/>
      <point x="306" y="487" type="curve" smooth="yes"/>
      <point x="290" y="414"/>
      <point x="368" y="364"/>
      <point x="358" y="272" type="curve" smooth="yes"/>
      <point x="342" y="160"/>
      <point x="205" y="78"/>
      <point x="114" y="52" type="curve"/>
      <point x="194" y="156" type="line"/>
      <point x="531" y="157" type="line"/>
      <point x="504" y="0" type="line"/>
      <point x="19" y="0" type="line"/>
      <point x="111" y="95"/>
      <point x="180" y="184"/>
      <point x="198" y="298" type="curve" smooth="yes"/>
      <point x="210" y="385"/>
      <point x="123" y="426"/>
      <point x="134" y="522" type="curve" smooth="yes"/>
      <point x="150" y="642"/>
      <point x="282" y="710"/>
      <point x="408" y="710" type="curve" smooth="yes"/>
      <point x="545" y="710"/>
      <point x="634" y="623"/>
      <point x="632" y="520" type="curve"/>
    </contour>
  </outline>
</glyph>
<glyph name="currency" format="2">
  <advance width="558"/>
  <unicode hex="00A4"/>
  <outline>
    <contour>
      <point x="76" y="505" type="line"/>
      <point x="151" y="570" type="line"/>
      <point x="233" y="462" type="line"/>
      <point x="164" y="402" type="line"/>
    </contour>
    <contour>
      <point x="65" y="30" type="line"/>
      <point x="8" y="102" type="line"/>
      <point x="122" y="198" type="line"/>
      <point x="178" y="130" type="line"/>
    </contour>
    <contour>
      <point x="488" y="402" type="line"/>
      <point x="430" y="472" type="line"/>
      <point x="545" y="570" type="line"/>
      <point x="600" y="500" type="line"/>
    </contour>
    <contour>
      <point x="372" y="134" type="line"/>
      <point x="446" y="198" type="line"/>
      <point x="529" y="92" type="line"/>
      <point x="460" y="31" type="line"/>
    </contour>
    <contour>
      <point x="71" y="300" type="curve" smooth="yes"/>
      <point x="90" y="432"/>
      <point x="203" y="540"/>
      <point x="339" y="540" type="curve" smooth="yes"/>
      <point x="473" y="540"/>
      <point x="554" y="428"/>
      <point x="536" y="300" type="curve" smooth="yes"/>
      <point x="517" y="168"/>
      <point x="404" y="60"/>
      <point x="268" y="60" type="curve" smooth="yes"/>
      <point x="134" y="60"/>
      <point x="53" y="172"/>
    </contour>
    <contour>
      <point x="222" y="299" type="curve" smooth="yes"/>
      <point x="215" y="254"/>
      <point x="239" y="217"/>
      <point x="286" y="216" type="curve" smooth="yes"/>
      <point x="335" y="215"/>
      <point x="377" y="254"/>
      <point x="385" y="301" type="curve" smooth="yes"/>
      <point x="392" y="346"/>
      <point x="369" y="383"/>
      <point x="322" y="384" type="curve" smooth="yes"/>
      <point x="273" y="385"/>
      <point x="230" y="346"/>
    </contour>
  </outline>
</glyph>
<glyph name="yen" format="2">
  <advance width="675"/>
  <unicode hex="00A5"/>
  <outline>
    <contour>
      <point x="58" y="258" type="line"/>
      <point x="78" y="365" type="line"/>
      <point x="666" y="365" type="line"/>
      <point x="647" y="258" type="line"/>
    </contour>
    <contour>
      <point x="34" y="108" type="line"/>
      <point x="52" y="215" type="line"/>
      <point x="640" y="215" type="line"/>
      <point x="622" y="108" type="line"/>
    </contour>
    <contour>
      <point x="546" y="700" type="line"/>
      <point x="771" y="700" type="line"/>
      <point x="456" y="277" type="line"/>
      <point x="409" y="0" type="line"/>
      <point x="212" y="0" type="line"/>
      <point x="262" y="284" type="line"/>
      <point x="92" y="700" type="line"/>
      <point x="309" y="700" type="line"/>
      <point x="386" y="459" type="line"/>
    </contour>
  </outline>
</glyph>
<glyph name="brokenbar" format="2">
  <advance width="364"/>
  <unicode hex="00A6"/>
  <outline>
    <contour>
      <point x="188" y="695" type="line"/>
      <point x="362" y="695" type="line"/>
      <point x="314" y="422" type="line"/>
      <point x="140" y="422" type="line"/>
    </contour>
    <contour>
      <point x="290" y="278" type="line"/>
      <point x="243" y="5" type="line"/>
      <point x="69" y="5" type="line"/>
      <point x="116" y="278" type="line"/>
    </contour>
  </outline>
</glyph>
<glyph name="section" format="2">
  <advance width="609"/>
  <unicode hex="00A7"/>
  <outline>
    <contour>
      <point x="485" y="541" type="line"/>
      <point x="458" y="567"/>
      <point x="420" y="588"/>
      <point x="388" y="588" type="curve" smooth="yes"/>
      <point x="364" y="588"/>
      <point x="337" y="578"/>
      <point x="335" y="562" type="curve" smooth="yes"/>
      <point x="333" y="538"/>
      <point x="385" y="534"/>
      <point x="420" y="524" type="curve" smooth="yes"/>
      <point x="492" y="504"/>
      <point x="545" y="451"/>
      <point x="535" y="379" type="curve" smooth="yes"/>
      <point x="519" y="270"/>
      <point x="396" y="230"/>
      <point x="289" y="227" type="curve"/>
      <point x="296" y="270" type="line"/>
      <point x="330" y="280"/>
      <point x="372" y="299"/>
      <point x="378" y="339" type="curve" smooth="yes"/>
      <point x="388" y="393"/>
      <point x="318" y="411"/>
      <point x="274" y="430" type="curve" smooth="yes"/>
      <point x="217" y="456"/>
      <point x="169" y="500"/>
      <point x="178" y="576" type="curve" smooth="yes"/>
      <point x="192" y="676"/>
      <point x="296" y="728"/>
      <point x="390" y="728" type="curve" smooth="yes"/>
      <point x="465" y="728"/>
      <point x="534" y="698"/>
      <point x="572" y="654" type="curve"/>
    </contour>
    <contour>
      <point x="132" y="177" type="line"/>
      <point x="180" y="137"/>
      <point x="233" y="113"/>
      <point x="276" y="114" type="curve" smooth="yes"/>
      <point x="302" y="114"/>
      <point x="328" y="124"/>
      <point x="331" y="142" type="curve" smooth="yes"/>
      <point x="335" y="170"/>
      <point x="287" y="178"/>
      <point x="250" y="188" type="curve" smooth="yes"/>
      <point x="178" y="208"/>
      <point x="107" y="251"/>
      <point x="117" y="327" type="curve" smooth="yes"/>
      <point x="132" y="435"/>
      <point x="263" y="476"/>
      <point x="371" y="479" type="curve"/>
      <point x="364" y="438" type="line"/>
      <point x="329" y="425"/>
      <point x="287" y="408"/>
      <point x="281" y="368" type="curve" smooth="yes"/>
      <point x="271" y="310"/>
      <point x="352" y="302"/>
      <point x="396" y="282" type="curve" smooth="yes"/>
      <point x="458" y="254"/>
      <point x="508" y="205"/>
      <point x="498" y="130" type="curve" smooth="yes"/>
      <point x="484" y="26"/>
      <point x="371" y="-26"/>
      <point x="273" y="-26" type="curve" smooth="yes"/>
      <point x="171" y="-26"/>
      <point x="99" y="9"/>
      <point x="44" y="63" type="curve"/>
    </contour>
  </outline>
</glyph>
<glyph name="dieresis" format="2">
  <advance width="507"/>
  <unicode hex="00A8"/>
  <outline>
    <contour>
      <point x="361" y="625" type="curve" smooth="yes"/>
      <point x="367" y="676"/>
      <point x="417" y="713"/>
      <point x="468" y="713" type="curve" smooth="yes"/>
      <point x="520" y="713"/>
      <point x="560" y="675"/>
      <point x="554" y="623" type="curve" smooth="yes"/>
      <point x="548" y="572"/>
      <point x="498" y="534"/>
      <point x="447" y="534" type="curve" smooth="yes"/>
      <point x="395" y="534"/>
      <point x="355" y="573"/>
    </contour>
    <contour>
      <point x="112" y="625" type="curve" smooth="yes"/>
      <point x="118" y="676"/>
      <point x="168" y="713"/>
      <point x="219" y="713" type="curve" smooth="yes"/>
      <point x="271" y="713"/>
      <point x="311" y="675"/>
      <point x="305" y="623" type="curve" smooth="yes"/>
      <point x="299" y="572"/>
      <point x="249" y="534"/>
      <point x="198" y="534" type="curve" smooth="yes"/>
      <point x="146" y="534"/>
      <point x="106" y="573"/>
    </contour>
  </outline>
</glyph>
<glyph name="copyright" format="2">
  <advance width="776"/>
  <unicode hex="00A9"/>
  <outline>
    <contour>
      <point x="332" y="350" type="curve" smooth="yes"/>
      <point x="322" y="286"/>
      <point x="362" y="242"/>
      <point x="424" y="240" type="curve" smooth="yes"/>
      <point x="478" y="239"/>
      <point x="520" y="266"/>
      <point x="554" y="293" type="curve"/>
      <point x="538" y="170" type="line"/>
      <point x="501" y="146"/>
      <point x="462" y="130"/>
      <point x="408" y="130" type="curve" smooth="yes"/>
      <point x="276" y="130"/>
      <point x="190" y="224"/>
      <point x="206" y="350" type="curve" smooth="yes"/>
      <point x="223" y="478"/>
      <point x="332" y="570"/>
      <point x="467" y="570" type="curve" smooth="yes"/>
      <point x="521" y="570"/>
      <point x="557" y="554"/>
      <point x="592" y="529" type="curve"/>
      <point x="576" y="406" type="line"/>
      <point x="550" y="436"/>
      <point x="517" y="460"/>
      <point x="466" y="460" type="curve" smooth="yes"/>
      <point x="402" y="460"/>
      <point x="343" y="416"/>
    </contour>
    <contour>
      <point x="130" y="350" type="curve" smooth="yes"/>
      <point x="106" y="189"/>
      <point x="200" y="41"/>
      <point x="372" y="40" type="curve" smooth="yes"/>
      <point x="546" y="39"/>
      <point x="693" y="181"/>
      <point x="720" y="350" type="curve" smooth="yes"/>
      <point x="744" y="511"/>
      <point x="650" y="659"/>
      <point x="478" y="660" type="curve" smooth="yes"/>
      <point x="304" y="661"/>
      <point x="157" y="519"/>
    </contour>
    <contour>
      <point x="74" y="350" type="curve" smooth="yes"/>
      <point x="101" y="550"/>
      <point x="271" y="710"/>
      <point x="475" y="710" type="curve" smooth="yes"/>
      <point x="676" y="710"/>
      <point x="801" y="544"/>
      <point x="776" y="350" type="curve" smooth="yes"/>
      <point x="749" y="150"/>
      <point x="578" y="-10"/>
      <point x="374" y="-10" type="curve" smooth="yes"/>
      <point x="173" y="-10"/>
      <point x="49" y="156"/>
    </contour>
  </outline>
</glyph>
<glyph name="ordfeminine" format="2">
  <advance width="271"/>
  <unicode hex="00AA"/>
  <outline>
    <contour>
      <point x="164" y="529" type="curve" smooth="yes"/>
      <point x="163" y="517"/>
      <point x="173" y="509"/>
      <point x="186" y="509" type="curve" smooth="yes"/>
      <point x="212" y="509"/>
      <point x="232" y="527"/>
      <point x="240" y="554" type="curve"/>
      <point x="243" y="524" type="line"/>
      <point x="231" y="484"/>
      <point x="199" y="456"/>
      <point x="152" y="456" type="curve" smooth="yes"/>
      <point x="106" y="456"/>
      <point x="72" y="484"/>
      <point x="78" y="528" type="curve" smooth="yes"/>
      <point x="85" y="574"/>
      <point x="133" y="600"/>
      <point x="184" y="600" type="curve" smooth="yes"/>
      <point x="214" y="600"/>
      <point x="243" y="589"/>
      <point x="261" y="577" type="curve"/>
      <point x="255" y="538" type="line"/>
      <point x="240" y="548"/>
      <point x="227" y="556"/>
      <point x="205" y="556" type="curve" smooth="yes"/>
      <point x="187" y="556"/>
      <point x="166" y="545"/>
    </contour>
    <contour>
      <point x="143" y="618" type="curve"/>
      <point x="124" y="681" type="line"/>
      <point x="156" y="693"/>
      <point x="193" y="705"/>
      <point x="232" y="705" type="curve" smooth="yes"/>
      <point x="288" y="705"/>
      <point x="337" y="681"/>
      <point x="333" y="629" type="curve"/>
      <point x="305" y="460" type="line"/>
      <point x="222" y="460" type="line"/>
      <point x="249" y="604" type="line"/>
      <point x="248" y="622"/>
      <point x="242" y="635"/>
      <point x="220" y="637" type="curve" smooth="yes"/>
      <point x="191" y="640"/>
      <point x="160" y="625"/>
    </contour>
  </outline>
</glyph>
<glyph name="guillemotleft" format="2">
  <advance width="533"/>
  <unicode hex="00AB"/>
  <outline>
    <contour>
      <point x="376" y="256" type="line"/>
      <point x="489" y="62" type="line"/>
      <point x="376" y="-6" type="line"/>
      <point x="250" y="260" type="line"/>
      <point x="459" y="514" type="line"/>
      <point x="556" y="441" type="line"/>
    </contour>
    <contour>
      <point x="166" y="256" type="line"/>
      <point x="279" y="62" type="line"/>
      <point x="166" y="-6" type="line"/>
      <point x="40" y="260" type="line"/>
      <point x="249" y="514" type="line"/>
      <point x="345" y="441" type="line"/>
    </contour>
  </outline>
</glyph>
<glyph name="logicalnot" format="2">
  <advance width="639"/>
  <unicode hex="00AC"/>
  <outline>
    <contour>
      <point x="82" y="264" type="line"/>
      <point x="106" y="412" type="line"/>
      <point x="622" y="412" type="line"/>
      <point x="582" y="175" type="line"/>
      <point x="466" y="175" type="line"/>
      <point x="484" y="264" type="line"/>
    </contour>
  </outline>
</glyph>
<glyph name="registered" format="2">
  <advance width="776"/>
  <unicode hex="00AE"/>
  <outline>
    <contour>
      <point x="406" y="319" type="line"/>
      <point x="506" y="319" type="line"/>
      <point x="586" y="150" type="line"/>
      <point x="456" y="150" type="line"/>
    </contour>
    <contour>
      <point x="310" y="570" type="line"/>
      <point x="426" y="570" type="line"/>
      <point x="360" y="150" type="line"/>
      <point x="244" y="150" type="line"/>
    </contour>
    <contour>
      <point x="368" y="472" type="line"/>
      <point x="382" y="570" type="line"/>
      <point x="466" y="570" type="line"/>
      <point x="562" y="568"/>
      <point x="627" y="518"/>
      <point x="616" y="437" type="curve" smooth="yes"/>
      <point x="605" y="351"/>
      <point x="533" y="300"/>
      <point x="433" y="298" type="curve"/>
      <point x="339" y="297" type="line"/>
      <point x="353" y="386" type="line"/>
      <point x="430" y="386" type="line"/>
      <point x="462" y="387"/>
      <point x="491" y="401"/>
      <point x="495" y="430" type="curve" smooth="yes"/>
      <point x="499" y="458"/>
      <point x="477" y="471"/>
      <point x="448" y="472" type="curve"/>
    </contour>
    <contour>
      <point x="130" y="350" type="curve" smooth="yes"/>
      <point x="106" y="189"/>
      <point x="200" y="41"/>
      <point x="372" y="40" type="curve" smooth="yes"/>
      <point x="546" y="39"/>
      <point x="693" y="181"/>
      <point x="720" y="350" type="curve" smooth="yes"/>
      <point x="744" y="511"/>
      <point x="650" y="659"/>
      <point x="478" y="660" type="curve" smooth="yes"/>
      <point x="304" y="661"/>
      <point x="157" y="519"/>
    </contour>
    <contour>
      <point x="74" y="350" type="curve" smooth="yes"/>
      <point x="101" y="550"/>
      <point x="271" y="710"/>
      <point x="475" y="710" type="curve" smooth="yes"/>
      <point x="676" y="710"/>
      <point x="801" y="544"/>
      <point x="776" y="350" type="curve" smooth="yes"/>
      <point x="749" y="150"/>
      <point x="578" y="-10"/>
      <point x="374" y="-10" type="curve" smooth="yes"/>
      <point x="173" y="-10"/>
      <point x="49" y="156"/>
    </contour>
  </outline>
</glyph>
<glyph name="macron" format="2">
  <advance width="521"/>
  <unicode hex="00AF"/>
  <outline>
    <contour>
      <point x="146" y="564" type="line"/>
      <point x="169" y="712" type="line"/>
      <point x="539" y="712" type="line"/>
      <point x="516" y="564" type="line"/>
    </contour>
  </outline>
</glyph>
<glyph name="degree" format="2">
  <advance width="292"/>
  <unicode hex="00B0"/>
  <outline>
    <contour>
      <point x="89" y="597" type="curve" smooth="yes"/>
      <point x="99" y="667"/>
      <point x="163" y="720"/>
      <point x="237" y="720" type="curve" smooth="yes"/>
      <point x="311" y="720"/>
      <point x="364" y="665"/>
      <point x="354" y="595" type="curve" smooth="yes"/>
      <point x="344" y="525"/>
      <point x="278" y="472"/>
      <point x="204" y="472" type="curve" smooth="yes"/>
      <point x="130" y="472"/>
      <point x="79" y="527"/>
    </contour>
    <contour>
      <point x="172" y="595" type="curve" smooth="yes"/>
      <point x="169" y="570"/>
      <point x="183" y="547"/>
      <point x="209" y="546" type="curve" smooth="yes"/>
      <point x="236" y="545"/>
      <point x="266" y="569"/>
      <point x="270" y="597" type="curve" smooth="yes"/>
      <point x="273" y="622"/>
      <point x="258" y="647"/>
      <point x="232" y="648" type="curve" smooth="yes"/>
      <point x="205" y="649"/>
      <point x="176" y="623"/>
    </contour>
  </outline>
</glyph>
<glyph name="plusminus" format="2">
  <advance width="619"/>
  <unicode hex="00B1"/>
  <outline>
    <contour>
      <point x="46" y="8" type="line"/>
      <point x="68" y="153" type="line"/>
      <point x="566" y="153" type="line"/>
      <point x="542" y="8" type="line"/>
    </contour>
    <contour>
      <point x="95" y="328" type="line"/>
      <point x="120" y="482" type="line"/>
      <point x="616" y="482" type="line"/>
      <point x="592" y="328" type="line"/>
    </contour>
    <contour>
      <point x="302" y="620" type="line"/>
      <point x="476" y="620" type="line"/>
      <point x="408" y="190" type="line"/>
      <point x="236" y="190" type="line"/>
    </contour>
  </outline>
</glyph>
<glyph name="uni00B2" format="2">
  <advance width="414"/>
  <unicode hex="00B2"/>
  <outline>
    <contour>
      <point x="41" y="282" type="line"/>
      <point x="252" y="470" type="line" smooth="yes"/>
      <point x="286" y="501"/>
      <point x="322" y="529"/>
      <point x="328" y="566" type="curve" smooth="yes"/>
      <point x="331" y="588"/>
      <point x="319" y="611"/>
      <point x="291" y="612" type="curve" smooth="yes"/>
      <point x="255" y="614"/>
      <point x="230" y="578"/>
      <point x="222" y="544" type="curve"/>
      <point x="108" y="545" type="line"/>
      <point x="126" y="635"/>
      <point x="193" y="711"/>
      <point x="303" y="711" type="curve" smooth="yes"/>
      <point x="396" y="711"/>
      <point x="459" y="647"/>
      <point x="447" y="572" type="curve" smooth="yes"/>
      <point x="440" y="526"/>
      <point x="409" y="491"/>
      <point x="371" y="462" type="curve" smooth="yes"/>
      <point x="275" y="389" type="line"/>
      <point x="428" y="388" type="line"/>
      <point x="410" y="282" type="line"/>
    </contour>
  </outline>
</glyph>
<glyph name="uni00B3" format="2">
  <advance width="369"/>
  <unicode hex="00B3"/>
  <outline>
    <contour>
      <point x="209" y="483" type="curve"/>
      <point x="216" y="531" type="line"/>
      <point x="254" y="535"/>
      <point x="295" y="552"/>
      <point x="300" y="584" type="curve" smooth="yes"/>
      <point x="302" y="602"/>
      <point x="289" y="616"/>
      <point x="267" y="616" type="curve" smooth="yes"/>
      <point x="238" y="616"/>
      <point x="218" y="596"/>
      <point x="210" y="572" type="curve"/>
      <point x="103" y="573" type="line"/>
      <point x="121" y="649"/>
      <point x="182" y="708"/>
      <point x="274" y="708" type="curve" smooth="yes"/>
      <point x="358" y="708"/>
      <point x="425" y="662"/>
      <point x="413" y="590" type="curve" smooth="yes"/>
      <point x="400" y="507"/>
      <point x="301" y="485"/>
    </contour>
    <contour>
      <point x="204" y="270" type="curve" smooth="yes"/>
      <point x="104" y="271"/>
      <point x="53" y="338"/>
      <point x="58" y="420" type="curve"/>
      <point x="169" y="420" type="line"/>
      <point x="169" y="386"/>
      <point x="183" y="364"/>
      <point x="215" y="362" type="curve" smooth="yes"/>
      <point x="243" y="360"/>
      <point x="276" y="379"/>
      <point x="280" y="408" type="curve" smooth="yes"/>
      <point x="287" y="444"/>
      <point x="249" y="458"/>
      <point x="203" y="460" type="curve"/>
      <point x="212" y="516" type="line"/>
      <point x="308" y="514"/>
      <point x="406" y="488"/>
      <point x="392" y="395" type="curve" smooth="yes"/>
      <point x="381" y="317"/>
      <point x="300" y="269"/>
    </contour>
  </outline>
</glyph>
<glyph name="acute" format="2">
  <advance width="363"/>
  <unicode hex="00B4"/>
  <outline>
    <contour>
      <point x="399" y="649" type="line"/>
      <point x="204" y="502" type="line"/>
      <point x="110" y="551" type="line"/>
      <point x="278" y="708" type="line"/>
    </contour>
  </outline>
</glyph>
<glyph name="mu" format="2">
  <advance width="587"/>
  <unicode hex="00B5"/>
  <outline>
    <contour>
      <point x="282" y="460" type="line"/>
      <point x="236" y="210" type="line" smooth="yes"/>
      <point x="229" y="168"/>
      <point x="241" y="138"/>
      <point x="285" y="138" type="curve" smooth="yes"/>
      <point x="327" y="138"/>
      <point x="352" y="165"/>
      <point x="360" y="212" type="curve" smooth="yes"/>
      <point x="406" y="460" type="line"/>
      <point x="572" y="460" type="line"/>
      <point x="496" y="0" type="line"/>
      <point x="322" y="0" type="line"/>
      <point x="331" y="50" type="line"/>
      <point x="310" y="18"/>
      <point x="279" y="-2"/>
      <point x="248" y="-2" type="curve" smooth="yes"/>
      <point x="228" y="-2"/>
      <point x="210" y="1"/>
      <point x="190" y="18" type="curve"/>
      <point x="135" y="-320" type="line"/>
      <point x="-30" y="-320" type="line"/>
      <point x="104" y="460" type="line"/>
    </contour>
  </outline>
</glyph>
<glyph name="paragraph" format="2">
  <advance width="678"/>
  <unicode hex="00B6"/>
  <outline>
    <contour>
      <point x="298" y="271" type="line"/>
      <point x="178" y="279"/>
      <point x="94" y="358"/>
      <point x="112" y="486" type="curve" smooth="yes"/>
      <point x="132" y="622"/>
      <point x="242" y="700"/>
      <point x="370" y="700" type="curve" smooth="yes"/>
      <point x="715" y="700" type="line"/>
      <point x="558" y="-220" type="line"/>
      <point x="408" y="-220" type="line"/>
      <point x="548" y="598" type="line"/>
      <point x="503" y="598" type="line"/>
      <point x="362" y="-220" type="line"/>
      <point x="213" y="-220" type="line"/>
    </contour>
  </outline>
</glyph>
<glyph name="periodcentered" format="2">
  <advance width="319"/>
  <unicode hex="00B7"/>
  <outline>
    <contour>
      <point x="75" y="277" type="curve" smooth="yes"/>
      <point x="83" y="332"/>
      <point x="134" y="380"/>
      <point x="193" y="380" type="curve" smooth="yes"/>
      <point x="253" y="380"/>
      <point x="292" y="330"/>
      <point x="284" y="275" type="curve" smooth="yes"/>
      <point x="276" y="220"/>
      <point x="225" y="174"/>
      <point x="166" y="174" type="curve" smooth="yes"/>
      <point x="106" y="174"/>
      <point x="67" y="222"/>
    </contour>
  </outline>
</glyph>
<glyph name="cedilla" format="2">
  <advance width="394"/>
  <unicode hex="00B8"/>
  <outline>
    <contour>
      <point x="156" y="74" type="line"/>
      <point x="285" y="69" type="line"/>
      <point x="168" y="-56" type="line"/>
      <point x="180" y="-53"/>
      <point x="194" y="-50"/>
      <point x="208" y="-50" type="curve" smooth="yes"/>
      <point x="257" y="-52"/>
      <point x="298" y="-95"/>
      <point x="291" y="-156" type="curve" smooth="yes"/>
      <point x="281" y="-228"/>
      <point x="206" y="-266"/>
      <point x="140" y="-268" type="curve" smooth="yes"/>
      <point x="82" y="-269"/>
      <point x="35" y="-256"/>
      <point x="-14" y="-228" type="curve"/>
      <point x="44" y="-153" type="line"/>
      <point x="68" y="-169"/>
      <point x="100" y="-178"/>
      <point x="122" y="-178" type="curve" smooth="yes"/>
      <point x="148" y="-178"/>
      <point x="184" y="-166"/>
      <point x="186" y="-142" type="curve" smooth="yes"/>
      <point x="188" y="-118"/>
      <point x="154" y="-113"/>
      <point x="132" y="-113" type="curve" smooth="yes"/>
      <point x="111" y="-112"/>
      <point x="75" y="-117"/>
      <point x="40" y="-127" type="curve"/>
    </contour>
  </outline>
</glyph>
<glyph name="uni00B9" format="2">
  <advance width="471"/>
  <unicode hex="00B9"/>
  <outline>
    <contour>
      <point x="191" y="559" type="line"/>
      <point x="208" y="661" type="line"/>
      <point x="432" y="704" type="line"/>
      <point x="358" y="274" type="line"/>
      <point x="246" y="274" type="line"/>
      <point x="300" y="584" type="line"/>
    </contour>
  </outline>
</glyph>
<glyph name="ordmasculine" format="2">
  <advance width="269"/>
  <unicode hex="00BA"/>
  <outline>
    <contour>
      <point x="88" y="581" type="curve" smooth="yes"/>
      <point x="98" y="651"/>
      <point x="162" y="700"/>
      <point x="236" y="700" type="curve" smooth="yes"/>
      <point x="309" y="700"/>
      <point x="364" y="649"/>
      <point x="354" y="579" type="curve" smooth="yes"/>
      <point x="344" y="509"/>
      <point x="278" y="460"/>
      <point x="204" y="460" type="curve" smooth="yes"/>
      <point x="131" y="460"/>
      <point x="78" y="511"/>
    </contour>
    <contour>
      <point x="176" y="579" type="curve" smooth="yes"/>
      <point x="173" y="555"/>
      <point x="186" y="532"/>
      <point x="209" y="531" type="curve" smooth="yes"/>
      <point x="233" y="530"/>
      <point x="262" y="554"/>
      <point x="266" y="581" type="curve" smooth="yes"/>
      <point x="269" y="605"/>
      <point x="255" y="629"/>
      <point x="232" y="630" type="curve" smooth="yes"/>
      <point x="208" y="631"/>
      <point x="180" y="606"/>
    </contour>
  </outline>
</glyph>
<glyph name="guillemotright" format="2">
  <advance width="533"/>
  <unicode hex="00BB"/>
  <outline>
    <contour>
      <point x="191" y="254" type="line"/>
      <point x="78" y="448" type="line"/>
      <point x="191" y="516" type="line"/>
      <point x="317" y="250" type="line"/>
      <point x="108" y="-4" type="line"/>
      <point x="12" y="69" type="line"/>
    </contour>
    <contour>
      <point x="402" y="254" type="line"/>
      <point x="288" y="448" type="line"/>
      <point x="402" y="516" type="line"/>
      <point x="528" y="250" type="line"/>
      <point x="318" y="-4" type="line"/>
      <point x="222" y="69" type="line"/>
    </contour>
  </outline>
</glyph>
<glyph name="onequarter" format="2">
  <advance width="817"/>
  <unicode hex="00BC"/>
  <outline>
    <contour>
      <point x="704" y="700" type="line"/>
      <point x="815" y="699" type="line"/>
      <point x="190" y="0" type="line"/>
      <point x="79" y="0" type="line"/>
    </contour>
    <contour>
      <point x="88" y="559" type="line"/>
      <point x="106" y="661" type="line"/>
      <point x="330" y="704" type="line"/>
      <point x="256" y="274" type="line"/>
      <point x="144" y="274" type="line"/>
      <point x="197" y="584" type="line"/>
    </contour>
    <contour>
      <point x="378" y="72" type="line"/>
      <point x="484" y="153" type="line"/>
      <point x="665" y="154" type="line"/>
      <point x="678" y="170" type="line"/>
      <point x="794" y="170" type="line"/>
      <point x="776" y="72" type="line"/>
    </contour>
    <contour>
      <point x="506" y="110" type="line"/>
      <point x="374" y="68" type="line"/>
      <point x="678" y="420" type="line"/>
      <point x="773" y="420" type="line"/>
      <point x="700" y="0" type="line"/>
      <point x="579" y="0" type="line"/>
      <point x="595" y="94" type="line"/>
      <point x="610" y="100" type="line"/>
      <point x="637" y="254" type="line"/>
    </contour>
  </outline>
</glyph>
<glyph name="onehalf" format="2">
  <advance width="888"/>
  <unicode hex="00BD"/>
  <outline>
    <contour>
      <point x="704" y="700" type="line"/>
      <point x="815" y="699" type="line"/>
      <point x="190" y="0" type="line"/>
      <point x="79" y="0" type="line"/>
    </contour>
    <contour>
      <point x="88" y="559" type="line"/>
      <point x="106" y="661" type="line"/>
      <point x="330" y="704" type="line"/>
      <point x="256" y="274" type="line"/>
      <point x="144" y="274" type="line"/>
      <point x="197" y="584" type="line"/>
    </contour>
    <contour>
      <point x="463" y="2" type="line"/>
      <point x="675" y="190" type="line" smooth="yes"/>
      <point x="709" y="221"/>
      <point x="744" y="249"/>
      <point x="750" y="286" type="curve" smooth="yes"/>
      <point x="753" y="308"/>
      <point x="741" y="331"/>
      <point x="713" y="332" type="curve" smooth="yes"/>
      <point x="677" y="334"/>
      <point x="653" y="298"/>
      <point x="645" y="264" type="curve"/>
      <point x="530" y="265" type="line"/>
      <point x="548" y="355"/>
      <point x="615" y="431"/>
      <point x="725" y="431" type="curve" smooth="yes"/>
      <point x="818" y="431"/>
      <point x="881" y="367"/>
      <point x="869" y="292" type="curve" smooth="yes"/>
      <point x="862" y="246"/>
      <point x="832" y="211"/>
      <point x="794" y="182" type="curve" smooth="yes"/>
      <point x="697" y="109" type="line"/>
      <point x="851" y="108" type="line"/>
      <point x="832" y="2" type="line"/>
    </contour>
  </outline>
</glyph>
<glyph name="threequarters" format="2">
  <advance width="870"/>
  <unicode hex="00BE"/>
  <outline>
    <contour>
      <point x="764" y="700" type="line"/>
      <point x="876" y="699" type="line"/>
      <point x="252" y="0" type="line"/>
      <point x="140" y="0" type="line"/>
    </contour>
    <contour>
      <point x="218" y="483" type="curve"/>
      <point x="226" y="531" type="line"/>
      <point x="264" y="535"/>
      <point x="303" y="552"/>
      <point x="308" y="584" type="curve" smooth="yes"/>
      <point x="310" y="602"/>
      <point x="298" y="616"/>
      <point x="276" y="616" type="curve" smooth="yes"/>
      <point x="247" y="616"/>
      <point x="227" y="596"/>
      <point x="219" y="572" type="curve"/>
      <point x="111" y="573" type="line"/>
      <point x="129" y="649"/>
      <point x="191" y="708"/>
      <point x="283" y="708" type="curve" smooth="yes"/>
      <point x="367" y="708"/>
      <point x="434" y="662"/>
      <point x="422" y="590" type="curve" smooth="yes"/>
      <point x="409" y="507"/>
      <point x="310" y="485"/>
    </contour>
    <contour>
      <point x="212" y="270" type="curve" smooth="yes"/>
      <point x="112" y="271"/>
      <point x="61" y="338"/>
      <point x="66" y="420" type="curve"/>
      <point x="178" y="420" type="line"/>
      <point x="178" y="386"/>
      <point x="192" y="364"/>
      <point x="224" y="362" type="curve" smooth="yes"/>
      <point x="252" y="360"/>
      <point x="284" y="379"/>
      <point x="288" y="408" type="curve" smooth="yes"/>
      <point x="295" y="444"/>
      <point x="258" y="458"/>
      <point x="212" y="460" type="curve"/>
      <point x="220" y="516" type="line"/>
      <point x="316" y="514"/>
      <point x="415" y="488"/>
      <point x="401" y="395" type="curve" smooth="yes"/>
      <point x="390" y="317"/>
      <point x="308" y="269"/>
    </contour>
    <contour>
      <point x="431" y="72" type="line"/>
      <point x="538" y="153" type="line"/>
      <point x="718" y="154" type="line"/>
      <point x="731" y="170" type="line"/>
      <point x="848" y="170" type="line"/>
      <point x="830" y="72" type="line"/>
    </contour>
    <contour>
      <point x="560" y="110" type="line"/>
      <point x="426" y="68" type="line"/>
      <point x="732" y="420" type="line"/>
      <point x="826" y="420" type="line"/>
      <point x="754" y="0" type="line"/>
      <point x="632" y="0" type="line"/>
      <point x="648" y="94" type="line"/>
      <point x="663" y="100" type="line"/>
      <point x="690" y="254" type="line"/>
    </contour>
  </outline>
</glyph>
<glyph name="questiondown" format="2">
  <advance width="628"/>
  <unicode hex="00BF"/>
  <outline>
    <contour>
      <point x="227" y="200" type="curve" smooth="yes"/>
      <point x="219" y="151"/>
      <point x="252" y="123"/>
      <point x="308" y="122" type="curve" smooth="yes"/>
      <point x="372" y="120"/>
      <point x="436" y="160"/>
      <point x="480" y="210" type="curve"/>
      <point x="580" y="110" type="line"/>
      <point x="497" y="32"/>
      <point x="402" y="-22"/>
      <point x="284" y="-22" type="curve" smooth="yes"/>
      <point x="155" y="-22"/>
      <point x="36" y="63"/>
      <point x="56" y="200" type="curve" smooth="yes"/>
      <point x="74" y="323"/>
      <point x="188" y="390"/>
      <point x="298" y="416" type="curve"/>
      <point x="316" y="490" type="line"/>
      <point x="458" y="490" type="line"/>
      <point x="448" y="310" type="line"/>
      <point x="416" y="310" type="line"/>
      <point x="320" y="308"/>
      <point x="240" y="260"/>
    </contour>
    <contour>
      <point x="517" y="635" type="curve" smooth="yes"/>
      <point x="510" y="586"/>
      <point x="456" y="544"/>
      <point x="400" y="544" type="curve" smooth="yes"/>
      <point x="344" y="544"/>
      <point x="301" y="587"/>
      <point x="308" y="637" type="curve" smooth="yes"/>
      <point x="315" y="686"/>
      <point x="368" y="726"/>
      <point x="424" y="726" type="curve" smooth="yes"/>
      <point x="480" y="726"/>
      <point x="524" y="685"/>
    </contour>
  </outline>
</glyph>
<glyph name="Agrave" format="2">
  <advance width="734"/>
  <unicode hex="00C0"/>
  <outline>
    <contour>
      <point x="180" y="112" type="line"/>
      <point x="211" y="256" type="line"/>
      <point x="562" y="256" type="line"/>
      <point x="542" y="112" type="line"/>
    </contour>
    <contour>
      <point x="414" y="412" type="line"/>
      <point x="288" y="202" type="line"/>
      <point x="293" y="158" type="line"/>
      <point x="188" y="0" type="line"/>
      <point x="-34" y="0" type="line"/>
      <point x="467" y="750" type="line"/>
      <point x="710" y="0" type="line"/>
      <point x="498" y="0" type="line"/>
      <point x="445" y="152" type="line"/>
      <point x="465" y="202" type="line"/>
    </contour>
    <contour>
      <point x="339" y="960" type="line"/>
      <point x="469" y="1014" type="line"/>
      <point x="590" y="851" type="line"/>
      <point x="491" y="807" type="line"/>
    </contour>
  </outline>
</glyph>
<glyph name="Aacute" format="2">
  <advance width="734"/>
  <unicode hex="00C1"/>
  <outline>
    <contour>
      <point x="180" y="112" type="line"/>
      <point x="211" y="256" type="line"/>
      <point x="562" y="256" type="line"/>
      <point x="542" y="112" type="line"/>
    </contour>
    <contour>
      <point x="414" y="412" type="line"/>
      <point x="288" y="202" type="line"/>
      <point x="293" y="158" type="line"/>
      <point x="188" y="0" type="line"/>
      <point x="-34" y="0" type="line"/>
      <point x="467" y="750" type="line"/>
      <point x="710" y="0" type="line"/>
      <point x="498" y="0" type="line"/>
      <point x="445" y="152" type="line"/>
      <point x="465" y="202" type="line"/>
    </contour>
    <contour>
      <point x="667" y="954" type="line"/>
      <point x="470" y="808" type="line"/>
      <point x="377" y="857" type="line"/>
      <point x="547" y="1013" type="line"/>
    </contour>
  </outline>
</glyph>
<glyph name="Acircumflex" format="2">
  <advance width="734"/>
  <unicode hex="00C2"/>
  <outline>
    <contour>
      <point x="180" y="112" type="line"/>
      <point x="211" y="256" type="line"/>
      <point x="562" y="256" type="line"/>
      <point x="542" y="112" type="line"/>
    </contour>
    <contour>
      <point x="414" y="412" type="line"/>
      <point x="288" y="202" type="line"/>
      <point x="293" y="158" type="line"/>
      <point x="188" y="0" type="line"/>
      <point x="-34" y="0" type="line"/>
      <point x="467" y="750" type="line"/>
      <point x="710" y="0" type="line"/>
      <point x="498" y="0" type="line"/>
      <point x="445" y="152" type="line"/>
      <point x="465" y="202" type="line"/>
    </contour>
    <contour>
      <point x="496" y="881" type="line"/>
      <point x="398" y="800" type="line"/>
      <point x="288" y="883" type="line"/>
      <point x="510" y="1020" type="line"/>
      <point x="694" y="877" type="line"/>
      <point x="563" y="799" type="line"/>
    </contour>
  </outline>
</glyph>
<glyph name="Atilde" format="2">
  <advance width="734"/>
  <unicode hex="00C3"/>
  <outline>
    <contour>
      <point x="180" y="112" type="line"/>
      <point x="211" y="256" type="line"/>
      <point x="562" y="256" type="line"/>
      <point x="542" y="112" type="line"/>
    </contour>
    <contour>
      <point x="414" y="412" type="line"/>
      <point x="288" y="202" type="line"/>
      <point x="293" y="158" type="line"/>
      <point x="188" y="0" type="line"/>
      <point x="-34" y="0" type="line"/>
      <point x="467" y="750" type="line"/>
      <point x="710" y="0" type="line"/>
      <point x="498" y="0" type="line"/>
      <point x="445" y="152" type="line"/>
      <point x="465" y="202" type="line"/>
    </contour>
    <contour>
      <point x="290" y="880" type="line"/>
      <point x="311" y="928"/>
      <point x="357" y="978"/>
      <point x="423" y="976" type="curve" smooth="yes"/>
      <point x="478" y="975"/>
      <point x="500" y="921"/>
      <point x="550" y="923" type="curve" smooth="yes"/>
      <point x="580" y="924"/>
      <point x="605" y="951"/>
      <point x="627" y="977" type="curve"/>
      <point x="694" y="892" type="line"/>
      <point x="667" y="854"/>
      <point x="607" y="802"/>
      <point x="544" y="804" type="curve" smooth="yes"/>
      <point x="494" y="806"/>
      <point x="459" y="863"/>
      <point x="412" y="859" type="curve" smooth="yes"/>
      <point x="379" y="857"/>
      <point x="365" y="826"/>
      <point x="357" y="808" type="curve"/>
    </contour>
  </outline>
</glyph>
<glyph name="Adieresis" format="2">
  <advance width="734"/>
  <unicode hex="00C4"/>
  <outline>
    <contour>
      <point x="180" y="112" type="line"/>
      <point x="211" y="256" type="line"/>
      <point x="562" y="256" type="line"/>
      <point x="542" y="112" type="line"/>
    </contour>
    <contour>
      <point x="414" y="412" type="line"/>
      <point x="288" y="202" type="line"/>
      <point x="293" y="158" type="line"/>
      <point x="188" y="0" type="line"/>
      <point x="-34" y="0" type="line"/>
      <point x="467" y="750" type="line"/>
      <point x="710" y="0" type="line"/>
      <point x="498" y="0" type="line"/>
      <point x="445" y="152" type="line"/>
      <point x="465" y="202" type="line"/>
    </contour>
    <contour>
      <point x="533" y="826" type="curve" smooth="yes"/>
      <point x="540" y="877"/>
      <point x="590" y="914"/>
      <point x="641" y="914" type="curve" smooth="yes"/>
      <point x="693" y="914"/>
      <point x="733" y="874"/>
      <point x="726" y="822" type="curve" smooth="yes"/>
      <point x="719" y="771"/>
      <point x="669" y="734"/>
      <point x="618" y="734" type="curve" smooth="yes"/>
      <point x="566" y="734"/>
      <point x="526" y="774"/>
    </contour>
    <contour>
      <point x="230" y="834" type="curve" smooth="yes"/>
      <point x="237" y="885"/>
      <point x="287" y="922"/>
      <point x="338" y="922" type="curve" smooth="yes"/>
      <point x="390" y="922"/>
      <point x="430" y="883"/>
      <point x="423" y="831" type="curve" smooth="yes"/>
      <point x="416" y="780"/>
      <point x="366" y="742"/>
      <point x="315" y="742" type="curve" smooth="yes"/>
      <point x="263" y="742"/>
      <point x="223" y="782"/>
    </contour>
  </outline>
</glyph>
<glyph name="Aring" format="2">
  <advance width="734"/>
  <unicode hex="00C5"/>
  <outline>
    <contour>
      <point x="180" y="112" type="line"/>
      <point x="211" y="256" type="line"/>
      <point x="562" y="256" type="line"/>
      <point x="542" y="112" type="line"/>
    </contour>
    <contour>
      <point x="414" y="412" type="line"/>
      <point x="288" y="202" type="line"/>
      <point x="293" y="158" type="line"/>
      <point x="188" y="0" type="line"/>
      <point x="-34" y="0" type="line"/>
      <point x="467" y="750" type="line"/>
      <point x="710" y="0" type="line"/>
      <point x="498" y="0" type="line"/>
      <point x="445" y="152" type="line"/>
      <point x="465" y="202" type="line"/>
    </contour>
    <contour>
      <point x="348" y="802" type="curve" smooth="yes"/>
      <point x="357" y="871"/>
      <point x="420" y="921"/>
      <point x="492" y="921" type="curve" smooth="yes"/>
      <point x="564" y="921"/>
      <point x="616" y="870"/>
      <point x="606" y="800" type="curve" smooth="yes"/>
      <point x="597" y="731"/>
      <point x="532" y="682"/>
      <point x="460" y="682" type="curve" smooth="yes"/>
      <point x="388" y="682"/>
      <point x="338" y="733"/>
    </contour>
    <contour>
      <point x="434" y="800" type="curve" smooth="yes"/>
      <point x="432" y="778"/>
      <point x="444" y="757"/>
      <point x="466" y="756" type="curve" smooth="yes"/>
      <point x="490" y="755"/>
      <point x="517" y="778"/>
      <point x="521" y="802" type="curve" smooth="yes"/>
      <point x="523" y="824"/>
      <point x="509" y="847"/>
      <point x="487" y="848" type="curve" smooth="yes"/>
      <point x="463" y="849"/>
      <point x="438" y="824"/>
    </contour>
  </outline>
</glyph>
<glyph name="AE" format="2">
  <advance width="1088"/>
  <unicode hex="00C6"/>
  <outline>
    <contour>
      <point x="271" y="133" type="line"/>
      <point x="310" y="310" type="line"/>
      <point x="604" y="310" type="line"/>
      <point x="573" y="133" type="line"/>
    </contour>
    <contour>
      <point x="522" y="700" type="line"/>
      <point x="700" y="658" type="line"/>
      <point x="235" y="0" type="line"/>
      <point x="-14" y="0" type="line"/>
    </contour>
    <contour>
      <point x="610" y="0" type="line"/>
      <point x="638" y="157" type="line"/>
      <point x="1023" y="157" type="line"/>
      <point x="996" y="0" type="line"/>
    </contour>
    <contour>
      <point x="717" y="543" type="line"/>
      <point x="522" y="700" type="line"/>
      <point x="1115" y="700" type="line"/>
      <point x="1088" y="543" type="line"/>
    </contour>
    <contour>
      <point x="660" y="288" type="line"/>
      <point x="686" y="440" type="line"/>
      <point x="1052" y="440" type="line"/>
      <point x="1025" y="287" type="line"/>
    </contour>
    <contour>
      <point x="642" y="700" type="line"/>
      <point x="849" y="700" type="line"/>
      <point x="729" y="0" type="line"/>
      <point x="522" y="0" type="line"/>
    </contour>
  </outline>
</glyph>
<glyph name="Ccedilla" format="2">
  <advance width="684"/>
  <unicode hex="00C7"/>
  <outline>
    <contour>
      <point x="272" y="350" type="curve" smooth="yes"/>
      <point x="254" y="245"/>
      <point x="318" y="168"/>
      <point x="423" y="166" type="curve" smooth="yes"/>
      <point x="515" y="165"/>
      <point x="583" y="210"/>
      <point x="639" y="255" type="curve"/>
      <point x="609" y="50" type="line"/>
      <point x="547" y="10"/>
      <point x="480" y="-18"/>
      <point x="389" y="-18" type="curve" smooth="yes"/>
      <point x="167" y="-18"/>
      <point x="31" y="142"/>
      <point x="62" y="350" type="curve" smooth="yes"/>
      <point x="94" y="564"/>
      <point x="277" y="718"/>
      <point x="504" y="718" type="curve" smooth="yes"/>
      <point x="592" y="718"/>
      <point x="652" y="691"/>
      <point x="708" y="649" type="curve"/>
      <point x="677" y="444" type="line"/>
      <point x="635" y="495"/>
      <point x="580" y="534"/>
      <point x="496" y="534" type="curve" smooth="yes"/>
      <point x="388" y="534"/>
      <point x="291" y="460"/>
    </contour>
    <contour>
      <point x="318" y="44" type="line"/>
      <point x="446" y="40" type="line"/>
      <point x="330" y="-85" type="line"/>
      <point x="342" y="-82"/>
      <point x="356" y="-81"/>
      <point x="370" y="-81" type="curve" smooth="yes"/>
      <point x="418" y="-83"/>
      <point x="461" y="-125"/>
      <point x="453" y="-186" type="curve" smooth="yes"/>
      <point x="443" y="-258"/>
      <point x="368" y="-296"/>
      <point x="302" y="-298" type="curve" smooth="yes"/>
      <point x="244" y="-299"/>
      <point x="197" y="-285"/>
      <point x="148" y="-257" type="curve"/>
      <point x="206" y="-182" type="line"/>
      <point x="230" y="-198"/>
      <point x="262" y="-208"/>
      <point x="284" y="-208" type="curve" smooth="yes"/>
      <point x="310" y="-208"/>
      <point x="345" y="-196"/>
      <point x="347" y="-172" type="curve" smooth="yes"/>
      <point x="349" y="-148"/>
      <point x="316" y="-142"/>
      <point x="294" y="-142" type="curve" smooth="yes"/>
      <point x="273" y="-141"/>
      <point x="237" y="-146"/>
      <point x="202" y="-156" type="curve"/>
    </contour>
  </outline>
</glyph>
<glyph name="Egrave" format="2">
  <advance width="600"/>
  <unicode hex="00C8"/>
  <outline>
    <contour>
      <point x="169" y="0" type="line"/>
      <point x="197" y="157" type="line"/>
      <point x="542" y="157" type="line"/>
      <point x="514" y="0" type="line"/>
    </contour>
    <contour>
      <point x="262" y="543" type="line"/>
      <point x="289" y="700" type="line"/>
      <point x="635" y="700" type="line"/>
      <point x="608" y="543" type="line"/>
    </contour>
    <contour>
      <point x="218" y="288" type="line"/>
      <point x="245" y="440" type="line"/>
      <point x="572" y="440" type="line"/>
      <point x="544" y="287" type="line"/>
    </contour>
    <contour>
      <point x="161" y="700" type="line"/>
      <point x="345" y="700" type="line"/>
      <point x="224" y="0" type="line"/>
      <point x="41" y="0" type="line"/>
    </contour>
    <contour>
      <point x="273" y="939" type="line"/>
      <point x="402" y="993" type="line"/>
      <point x="524" y="829" type="line"/>
      <point x="425" y="786" type="line"/>
    </contour>
  </outline>
</glyph>
<glyph name="Eacute" format="2">
  <advance width="600"/>
  <unicode hex="00C9"/>
  <outline>
    <contour>
      <point x="169" y="0" type="line"/>
      <point x="197" y="157" type="line"/>
      <point x="542" y="157" type="line"/>
      <point x="514" y="0" type="line"/>
    </contour>
    <contour>
      <point x="262" y="543" type="line"/>
      <point x="289" y="700" type="line"/>
      <point x="635" y="700" type="line"/>
      <point x="608" y="543" type="line"/>
    </contour>
    <contour>
      <point x="218" y="288" type="line"/>
      <point x="245" y="440" type="line"/>
      <point x="572" y="440" type="line"/>
      <point x="544" y="287" type="line"/>
    </contour>
    <contour>
      <point x="161" y="700" type="line"/>
      <point x="345" y="700" type="line"/>
      <point x="224" y="0" type="line"/>
      <point x="41" y="0" type="line"/>
    </contour>
    <contour>
      <point x="602" y="933" type="line"/>
      <point x="404" y="787" type="line"/>
      <point x="311" y="835" type="line"/>
      <point x="481" y="991" type="line"/>
    </contour>
  </outline>
</glyph>
<glyph name="Ecircumflex" format="2">
  <advance width="600"/>
  <unicode hex="00CA"/>
  <outline>
    <contour>
      <point x="169" y="0" type="line"/>
      <point x="197" y="157" type="line"/>
      <point x="542" y="157" type="line"/>
      <point x="514" y="0" type="line"/>
    </contour>
    <contour>
      <point x="262" y="543" type="line"/>
      <point x="289" y="700" type="line"/>
      <point x="635" y="700" type="line"/>
      <point x="608" y="543" type="line"/>
    </contour>
    <contour>
      <point x="218" y="288" type="line"/>
      <point x="245" y="440" type="line"/>
      <point x="572" y="440" type="line"/>
      <point x="544" y="287" type="line"/>
    </contour>
    <contour>
      <point x="161" y="700" type="line"/>
      <point x="345" y="700" type="line"/>
      <point x="224" y="0" type="line"/>
      <point x="41" y="0" type="line"/>
    </contour>
    <contour>
      <point x="416" y="860" type="line"/>
      <point x="318" y="778" type="line"/>
      <point x="209" y="862" type="line"/>
      <point x="431" y="999" type="line"/>
      <point x="614" y="856" type="line"/>
      <point x="485" y="777" type="line"/>
    </contour>
  </outline>
</glyph>
<glyph name="Edieresis" format="2">
  <advance width="600"/>
  <unicode hex="00CB"/>
  <outline>
    <contour>
      <point x="169" y="0" type="line"/>
      <point x="197" y="157" type="line"/>
      <point x="542" y="157" type="line"/>
      <point x="514" y="0" type="line"/>
    </contour>
    <contour>
      <point x="262" y="543" type="line"/>
      <point x="289" y="700" type="line"/>
      <point x="635" y="700" type="line"/>
      <point x="608" y="543" type="line"/>
    </contour>
    <contour>
      <point x="218" y="288" type="line"/>
      <point x="245" y="440" type="line"/>
      <point x="572" y="440" type="line"/>
      <point x="544" y="287" type="line"/>
    </contour>
    <contour>
      <point x="161" y="700" type="line"/>
      <point x="345" y="700" type="line"/>
      <point x="224" y="0" type="line"/>
      <point x="41" y="0" type="line"/>
    </contour>
    <contour>
      <point x="458" y="873" type="curve" smooth="yes"/>
      <point x="465" y="924"/>
      <point x="515" y="961"/>
      <point x="566" y="961" type="curve" smooth="yes"/>
      <point x="618" y="961"/>
      <point x="657" y="922"/>
      <point x="650" y="870" type="curve" smooth="yes"/>
      <point x="643" y="819"/>
      <point x="593" y="782"/>
      <point x="542" y="782" type="curve" smooth="yes"/>
      <point x="490" y="782"/>
      <point x="451" y="821"/>
    </contour>
    <contour>
      <point x="208" y="873" type="curve" smooth="yes"/>
      <point x="215" y="924"/>
      <point x="265" y="961"/>
      <point x="316" y="961" type="curve" smooth="yes"/>
      <point x="368" y="961"/>
      <point x="407" y="922"/>
      <point x="400" y="870" type="curve" smooth="yes"/>
      <point x="393" y="819"/>
      <point x="343" y="782"/>
      <point x="292" y="782" type="curve" smooth="yes"/>
      <point x="240" y="782"/>
      <point x="201" y="821"/>
    </contour>
  </outline>
</glyph>
<glyph name="Igrave" format="2">
  <advance width="331"/>
  <unicode hex="00CC"/>
  <outline>
    <contour>
      <point x="161" y="700" type="line"/>
      <point x="356" y="700" type="line"/>
      <point x="236" y="0" type="line"/>
      <point x="41" y="0" type="line"/>
    </contour>
    <contour>
      <point x="126" y="939" type="line"/>
      <point x="256" y="993" type="line"/>
      <point x="376" y="829" type="line"/>
      <point x="278" y="786" type="line"/>
    </contour>
  </outline>
</glyph>
<glyph name="Iacute" format="2">
  <advance width="331"/>
  <unicode hex="00CD"/>
  <outline>
    <contour>
      <point x="161" y="700" type="line"/>
      <point x="356" y="700" type="line"/>
      <point x="236" y="0" type="line"/>
      <point x="41" y="0" type="line"/>
    </contour>
    <contour>
      <point x="454" y="933" type="line"/>
      <point x="257" y="787" type="line"/>
      <point x="164" y="835" type="line"/>
      <point x="334" y="991" type="line"/>
    </contour>
  </outline>
</glyph>
<glyph name="Icircumflex" format="2">
  <advance width="331"/>
  <unicode hex="00CE"/>
  <outline>
    <contour>
      <point x="161" y="700" type="line"/>
      <point x="356" y="700" type="line"/>
      <point x="236" y="0" type="line"/>
      <point x="41" y="0" type="line"/>
    </contour>
    <contour>
      <point x="277" y="860" type="line"/>
      <point x="179" y="778" type="line"/>
      <point x="70" y="862" type="line"/>
      <point x="292" y="999" type="line"/>
      <point x="475" y="856" type="line"/>
      <point x="346" y="777" type="line"/>
    </contour>
  </outline>
</glyph>
<glyph name="Idieresis" format="2">
  <advance width="331"/>
  <unicode hex="00CF"/>
  <outline>
    <contour>
      <point x="161" y="700" type="line"/>
      <point x="356" y="700" type="line"/>
      <point x="236" y="0" type="line"/>
      <point x="41" y="0" type="line"/>
    </contour>
    <contour>
      <point x="316" y="870" type="curve" smooth="yes"/>
      <point x="323" y="921"/>
      <point x="373" y="958"/>
      <point x="424" y="958" type="curve" smooth="yes"/>
      <point x="476" y="958"/>
      <point x="515" y="919"/>
      <point x="508" y="867" type="curve" smooth="yes"/>
      <point x="501" y="816"/>
      <point x="451" y="778"/>
      <point x="400" y="778" type="curve" smooth="yes"/>
      <point x="348" y="778"/>
      <point x="309" y="818"/>
    </contour>
    <contour>
      <point x="66" y="870" type="curve" smooth="yes"/>
      <point x="73" y="921"/>
      <point x="123" y="958"/>
      <point x="174" y="958" type="curve" smooth="yes"/>
      <point x="226" y="958"/>
      <point x="267" y="919"/>
      <point x="260" y="867" type="curve" smooth="yes"/>
      <point x="253" y="816"/>
      <point x="203" y="778"/>
      <point x="152" y="778" type="curve" smooth="yes"/>
      <point x="100" y="778"/>
      <point x="59" y="818"/>
    </contour>
  </outline>
</glyph>
<glyph name="Eth" format="2">
  <advance width="726"/>
  <unicode hex="00D0"/>
  <outline>
    <contour>
      <point x="28" y="300" type="line"/>
      <point x="47" y="408" type="line"/>
      <point x="404" y="408" type="line"/>
      <point x="386" y="300" type="line"/>
    </contour>
    <contour>
      <point x="161" y="700" type="line"/>
      <point x="360" y="700" type="line"/>
      <point x="240" y="0" type="line"/>
      <point x="41" y="0" type="line"/>
    </contour>
    <contour>
      <point x="303" y="0" type="curve"/>
      <point x="169" y="0" type="line"/>
      <point x="199" y="170" type="line"/>
      <point x="313" y="170" type="line"/>
      <point x="417" y="172"/>
      <point x="510" y="224"/>
      <point x="530" y="350" type="curve" smooth="yes"/>
      <point x="549" y="472"/>
      <point x="485" y="527"/>
      <point x="385" y="530" type="curve"/>
      <point x="259" y="530" type="line"/>
      <point x="289" y="700" type="line"/>
      <point x="411" y="700" type="line"/>
      <point x="631" y="697"/>
      <point x="761" y="557"/>
      <point x="730" y="350" type="curve" smooth="yes"/>
      <point x="698" y="138"/>
      <point x="529" y="2"/>
    </contour>
  </outline>
</glyph>
<glyph name="Ntilde" format="2">
  <advance width="775"/>
  <unicode hex="00D1"/>
  <outline>
    <contour>
      <point x="616" y="700" type="line"/>
      <point x="800" y="700" type="line"/>
      <point x="675" y="-34" type="line"/>
      <point x="286" y="356" type="line"/>
      <point x="225" y="0" type="line"/>
      <point x="41" y="0" type="line"/>
      <point x="166" y="734" type="line"/>
      <point x="554" y="344" type="line"/>
    </contour>
    <contour>
      <point x="270" y="848" type="line"/>
      <point x="291" y="896"/>
      <point x="337" y="946"/>
      <point x="403" y="944" type="curve" smooth="yes"/>
      <point x="458" y="943"/>
      <point x="480" y="889"/>
      <point x="530" y="891" type="curve" smooth="yes"/>
      <point x="560" y="892"/>
      <point x="584" y="918"/>
      <point x="606" y="944" type="curve"/>
      <point x="674" y="860" type="line"/>
      <point x="647" y="822"/>
      <point x="587" y="770"/>
      <point x="524" y="772" type="curve" smooth="yes"/>
      <point x="474" y="774"/>
      <point x="439" y="830"/>
      <point x="392" y="826" type="curve" smooth="yes"/>
      <point x="359" y="824"/>
      <point x="346" y="794"/>
      <point x="338" y="776" type="curve"/>
    </contour>
  </outline>
</glyph>
<glyph name="Oacute" format="2">
  <advance width="805"/>
  <unicode hex="00D3"/>
  <outline>
    <contour>
      <point x="265" y="350" type="curve" smooth="yes"/>
      <point x="249" y="252"/>
      <point x="290" y="161"/>
      <point x="398" y="159" type="curve" smooth="yes"/>
      <point x="507" y="157"/>
      <point x="588" y="245"/>
      <point x="606" y="350" type="curve" smooth="yes"/>
      <point x="622" y="449"/>
      <point x="584" y="540"/>
      <point x="474" y="541" type="curve" smooth="yes"/>
      <point x="365" y="542"/>
      <point x="283" y="455"/>
    </contour>
    <contour>
      <point x="62" y="350" type="curve" smooth="yes"/>
      <point x="94" y="561"/>
      <point x="277" y="718"/>
      <point x="493" y="718" type="curve" smooth="yes"/>
      <point x="707" y="718"/>
      <point x="840" y="554"/>
      <point x="810" y="350" type="curve" smooth="yes"/>
      <point x="778" y="138"/>
      <point x="599" y="-26"/>
      <point x="377" y="-26" type="curve" smooth="yes"/>
      <point x="159" y="-26"/>
      <point x="32" y="146"/>
    </contour>
    <contour>
      <point x="708" y="933" type="line"/>
      <point x="512" y="787" type="line"/>
      <point x="418" y="835" type="line"/>
      <point x="588" y="991" type="line"/>
    </contour>
  </outline>
</glyph>
<glyph name="Otilde" format="2">
  <advance width="805"/>
  <unicode hex="00D5"/>
  <outline>
    <contour>
      <point x="265" y="350" type="curve" smooth="yes"/>
      <point x="249" y="252"/>
      <point x="290" y="161"/>
      <point x="398" y="159" type="curve" smooth="yes"/>
      <point x="507" y="157"/>
      <point x="588" y="245"/>
      <point x="606" y="350" type="curve" smooth="yes"/>
      <point x="622" y="449"/>
      <point x="584" y="540"/>
      <point x="474" y="541" type="curve" smooth="yes"/>
      <point x="365" y="542"/>
      <point x="283" y="455"/>
    </contour>
    <contour>
      <point x="62" y="350" type="curve" smooth="yes"/>
      <point x="94" y="561"/>
      <point x="277" y="718"/>
      <point x="493" y="718" type="curve" smooth="yes"/>
      <point x="707" y="718"/>
      <point x="840" y="554"/>
      <point x="810" y="350" type="curve" smooth="yes"/>
      <point x="778" y="138"/>
      <point x="599" y="-26"/>
      <point x="377" y="-26" type="curve" smooth="yes"/>
      <point x="159" y="-26"/>
      <point x="32" y="146"/>
    </contour>
    <contour>
      <point x="322" y="848" type="line"/>
      <point x="343" y="896"/>
      <point x="389" y="946"/>
      <point x="455" y="944" type="curve" smooth="yes"/>
      <point x="510" y="943"/>
      <point x="532" y="889"/>
      <point x="582" y="891" type="curve" smooth="yes"/>
      <point x="612" y="892"/>
      <point x="636" y="918"/>
      <point x="658" y="944" type="curve"/>
      <point x="726" y="860" type="line"/>
      <point x="699" y="822"/>
      <point x="639" y="770"/>
      <point x="576" y="772" type="curve" smooth="yes"/>
      <point x="526" y="774"/>
      <point x="491" y="830"/>
      <point x="444" y="826" type="curve" smooth="yes"/>
      <point x="411" y="824"/>
      <point x="398" y="794"/>
      <point x="390" y="776" type="curve"/>
    </contour>
  </outline>
</glyph>
<glyph name="Odieresis" format="2">
  <advance width="805"/>
  <unicode hex="00D6"/>
  <outline>
    <contour>
      <point x="265" y="350" type="curve" smooth="yes"/>
      <point x="249" y="252"/>
      <point x="290" y="161"/>
      <point x="398" y="159" type="curve" smooth="yes"/>
      <point x="507" y="157"/>
      <point x="588" y="245"/>
      <point x="606" y="350" type="curve" smooth="yes"/>
      <point x="622" y="449"/>
      <point x="584" y="540"/>
      <point x="474" y="541" type="curve" smooth="yes"/>
      <point x="365" y="542"/>
      <point x="283" y="455"/>
    </contour>
    <contour>
      <point x="62" y="350" type="curve" smooth="yes"/>
      <point x="94" y="561"/>
      <point x="277" y="718"/>
      <point x="493" y="718" type="curve" smooth="yes"/>
      <point x="707" y="718"/>
      <point x="840" y="554"/>
      <point x="810" y="350" type="curve" smooth="yes"/>
      <point x="778" y="138"/>
      <point x="599" y="-26"/>
      <point x="377" y="-26" type="curve" smooth="yes"/>
      <point x="159" y="-26"/>
      <point x="32" y="146"/>
    </contour>
    <contour>
      <point x="553" y="870" type="curve" smooth="yes"/>
      <point x="560" y="921"/>
      <point x="610" y="958"/>
      <point x="661" y="958" type="curve" smooth="yes"/>
      <point x="713" y="958"/>
      <point x="752" y="919"/>
      <point x="745" y="867" type="curve" smooth="yes"/>
      <point x="738" y="816"/>
      <point x="688" y="778"/>
      <point x="637" y="778" type="curve" smooth="yes"/>
      <point x="585" y="778"/>
      <point x="546" y="818"/>
    </contour>
    <contour>
      <point x="304" y="870" type="curve" smooth="yes"/>
      <point x="311" y="921"/>
      <point x="360" y="958"/>
      <point x="411" y="958" type="curve" smooth="yes"/>
      <point x="463" y="958"/>
      <point x="503" y="919"/>
      <point x="496" y="867" type="curve" smooth="yes"/>
      <point x="489" y="816"/>
      <point x="439" y="778"/>
      <point x="388" y="778" type="curve" smooth="yes"/>
      <point x="336" y="778"/>
      <point x="297" y="818"/>
    </contour>
  </outline>
</glyph>
<glyph name="multiply" format="2">
  <advance width="578"/>
  <unicode hex="00D7"/>
  <outline>
    <contour>
      <point x="117" y="-2" type="line"/>
      <point x="30" y="107" type="line"/>
      <point x="209" y="258" type="line"/>
      <point x="82" y="412" type="line"/>
      <point x="198" y="513" type="line"/>
      <point x="319" y="357" type="line"/>
      <point x="494" y="512" type="line"/>
      <point x="582" y="403" type="line"/>
      <point x="402" y="252" type="line"/>
      <point x="530" y="98" type="line"/>
      <point x="413" y="-3" type="line"/>
      <point x="292" y="153" type="line"/>
    </contour>
  </outline>
</glyph>
<glyph name="Oslash" format="2">
  <advance width="766"/>
  <unicode hex="00D8"/>
  <outline>
    <contour>
      <point x="265" y="350" type="curve" smooth="yes"/>
      <point x="249" y="249"/>
      <point x="290" y="160"/>
      <point x="398" y="159" type="curve" smooth="yes"/>
      <point x="507" y="157"/>
      <point x="588" y="242"/>
      <point x="606" y="350" type="curve" smooth="yes"/>
      <point x="622" y="451"/>
      <point x="582" y="540"/>
      <point x="474" y="541" type="curve" smooth="yes"/>
      <point x="365" y="543"/>
      <point x="283" y="458"/>
    </contour>
    <contour>
      <point x="62" y="350" type="curve" smooth="yes"/>
      <point x="94" y="561"/>
      <point x="275" y="718"/>
      <point x="493" y="718" type="curve" smooth="yes"/>
      <point x="707" y="718"/>
      <point x="840" y="554"/>
      <point x="810" y="350" type="curve" smooth="yes"/>
      <point x="778" y="139"/>
      <point x="596" y="-26"/>
      <point x="377" y="-26" type="curve" smooth="yes"/>
      <point x="162" y="-26"/>
      <point x="32" y="146"/>
    </contour>
    <contour>
      <point x="777" y="758" type="line"/>
      <point x="846" y="698" type="line"/>
      <point x="88" y="-58" type="line"/>
      <point x="22" y="-2" type="line"/>
    </contour>
  </outline>
</glyph>
<glyph name="Ugrave" format="2">
  <advance width="701"/>
  <unicode hex="00D9"/>
  <outline>
    <contour>
      <point x="156" y="700" type="line"/>
      <point x="348" y="700" type="line"/>
      <point x="269" y="246" type="line" smooth="yes"/>
      <point x="262" y="190"/>
      <point x="278" y="142"/>
      <point x="343" y="140" type="curve" smooth="yes"/>
      <point x="409" y="138"/>
      <point x="450" y="187"/>
      <point x="461" y="246" type="curve"/>
      <point x="540" y="700" type="line"/>
      <point x="731" y="700" type="line"/>
      <point x="651" y="230" type="line" smooth="yes"/>
      <point x="623" y="58"/>
      <point x="489" y="-34"/>
      <point x="324" y="-34" type="curve" smooth="yes"/>
      <point x="164" y="-34"/>
      <point x="54" y="60"/>
      <point x="76" y="230" type="curve"/>
    </contour>
    <contour>
      <point x="318" y="931" type="line"/>
      <point x="448" y="984" type="line"/>
      <point x="568" y="821" type="line"/>
      <point x="470" y="778" type="line"/>
    </contour>
  </outline>
</glyph>
<glyph name="Ucircumflex" format="2">
  <advance width="701"/>
  <unicode hex="00DB"/>
  <outline>
    <contour>
      <point x="156" y="700" type="line"/>
      <point x="348" y="700" type="line"/>
      <point x="269" y="246" type="line" smooth="yes"/>
      <point x="262" y="190"/>
      <point x="278" y="142"/>
      <point x="343" y="140" type="curve" smooth="yes"/>
      <point x="409" y="138"/>
      <point x="450" y="187"/>
      <point x="461" y="246" type="curve"/>
      <point x="540" y="700" type="line"/>
      <point x="731" y="700" type="line"/>
      <point x="651" y="230" type="line" smooth="yes"/>
      <point x="623" y="58"/>
      <point x="489" y="-34"/>
      <point x="324" y="-34" type="curve" smooth="yes"/>
      <point x="164" y="-34"/>
      <point x="54" y="60"/>
      <point x="76" y="230" type="curve"/>
    </contour>
    <contour>
      <point x="475" y="860" type="line"/>
      <point x="378" y="778" type="line"/>
      <point x="268" y="862" type="line"/>
      <point x="490" y="999" type="line"/>
      <point x="673" y="856" type="line"/>
      <point x="544" y="777" type="line"/>
    </contour>
  </outline>
</glyph>
<glyph name="Udieresis" format="2">
  <advance width="701"/>
  <unicode hex="00DC"/>
  <outline>
    <contour>
      <point x="156" y="700" type="line"/>
      <point x="348" y="700" type="line"/>
      <point x="269" y="246" type="line" smooth="yes"/>
      <point x="262" y="190"/>
      <point x="278" y="142"/>
      <point x="343" y="140" type="curve" smooth="yes"/>
      <point x="409" y="138"/>
      <point x="450" y="187"/>
      <point x="461" y="246" type="curve"/>
      <point x="540" y="700" type="line"/>
      <point x="731" y="700" type="line"/>
      <point x="651" y="230" type="line" smooth="yes"/>
      <point x="623" y="58"/>
      <point x="489" y="-34"/>
      <point x="324" y="-34" type="curve" smooth="yes"/>
      <point x="164" y="-34"/>
      <point x="54" y="60"/>
      <point x="76" y="230" type="curve"/>
    </contour>
    <contour>
      <point x="524" y="870" type="curve" smooth="yes"/>
      <point x="531" y="921"/>
      <point x="581" y="958"/>
      <point x="632" y="958" type="curve" smooth="yes"/>
      <point x="684" y="958"/>
      <point x="723" y="919"/>
      <point x="716" y="867" type="curve" smooth="yes"/>
      <point x="709" y="816"/>
      <point x="659" y="778"/>
      <point x="608" y="778" type="curve" smooth="yes"/>
      <point x="556" y="778"/>
      <point x="517" y="818"/>
    </contour>
    <contour>
      <point x="228" y="870" type="curve" smooth="yes"/>
      <point x="235" y="921"/>
      <point x="285" y="958"/>
      <point x="336" y="958" type="curve" smooth="yes"/>
      <point x="388" y="958"/>
      <point x="427" y="919"/>
      <point x="420" y="867" type="curve" smooth="yes"/>
      <point x="413" y="816"/>
      <point x="363" y="778"/>
      <point x="312" y="778" type="curve" smooth="yes"/>
      <point x="260" y="778"/>
      <point x="221" y="818"/>
    </contour>
  </outline>
</glyph>
<glyph name="Yacute" format="2">
  <advance width="669"/>
  <unicode hex="00DD"/>
  <outline>
    <contour>
      <point x="633" y="925" type="line"/>
      <point x="436" y="778" type="line"/>
      <point x="343" y="827" type="line"/>
      <point x="513" y="983" type="line"/>
    </contour>
    <contour>
      <point x="544" y="700" type="line"/>
      <point x="770" y="700" type="line"/>
      <point x="452" y="276" type="line"/>
      <point x="406" y="0" type="line"/>
      <point x="210" y="0" type="line"/>
      <point x="260" y="284" type="line"/>
      <point x="90" y="700" type="line"/>
      <point x="307" y="700" type="line"/>
      <point x="384" y="459" type="line"/>
    </contour>
  </outline>
</glyph>
<glyph name="Thorn" format="2">
  <advance width="612"/>
  <unicode hex="00DE"/>
  <outline>
    <contour>
      <point x="168" y="700" type="line"/>
      <point x="333" y="700" type="line"/>
      <point x="213" y="0" type="line"/>
      <point x="49" y="0" type="line"/>
    </contour>
    <contour>
      <point x="227" y="436" type="line"/>
      <point x="254" y="584" type="line"/>
      <point x="380" y="584" type="line"/>
      <point x="546" y="582"/>
      <point x="646" y="502"/>
      <point x="623" y="354" type="curve" smooth="yes"/>
      <point x="600" y="206"/>
      <point x="483" y="126"/>
      <point x="312" y="124" type="curve"/>
      <point x="174" y="124" type="line"/>
      <point x="201" y="273" type="line"/>
      <point x="328" y="273" type="line"/>
      <point x="394" y="274"/>
      <point x="444" y="294"/>
      <point x="455" y="354" type="curve" smooth="yes"/>
      <point x="466" y="413"/>
      <point x="427" y="433"/>
      <point x="365" y="435" type="curve"/>
    </contour>
  </outline>
</glyph>
<glyph name="germandbls" format="2">
  <advance width="614"/>
  <unicode hex="00DF"/>
  <outline>
    <contour>
      <point x="398" y="-12" type="curve" smooth="yes"/>
      <point x="348" y="-12"/>
      <point x="273" y="2"/>
      <point x="240" y="20" type="curve"/>
      <point x="264" y="152" type="line"/>
      <point x="291" y="136"/>
      <point x="330" y="124"/>
      <point x="360" y="124" type="curve" smooth="yes"/>
      <point x="408" y="124"/>
      <point x="440" y="154"/>
      <point x="440" y="198" type="curve" smooth="yes"/>
      <point x="440" y="290"/>
      <point x="318" y="298"/>
      <point x="318" y="378" type="curve" smooth="yes"/>
      <point x="318" y="458"/>
      <point x="446" y="483"/>
      <point x="446" y="576" type="curve" smooth="yes"/>
      <point x="446" y="622"/>
      <point x="420" y="644"/>
      <point x="379" y="644" type="curve" smooth="yes"/>
      <point x="321" y="644"/>
      <point x="288" y="607"/>
      <point x="277" y="539" type="curve" smooth="yes"/>
      <point x="187" y="-2" type="line"/>
      <point x="13" y="-2" type="line"/>
      <point x="105" y="536" type="line" smooth="yes"/>
      <point x="131" y="698"/>
      <point x="210" y="798"/>
      <point x="398" y="798" type="curve" smooth="yes"/>
      <point x="526" y="798"/>
      <point x="626" y="723"/>
      <point x="626" y="612" type="curve" smooth="yes"/>
      <point x="626" y="488"/>
      <point x="499" y="444"/>
      <point x="499" y="392" type="curve" smooth="yes"/>
      <point x="499" y="330"/>
      <point x="620" y="339"/>
      <point x="620" y="196" type="curve" smooth="yes"/>
      <point x="620" y="80"/>
      <point x="518" y="-12"/>
    </contour>
  </outline>
</glyph>
<glyph name="aacute" format="2">
  <advance width="611"/>
  <unicode hex="00E1"/>
  <outline>
    <contour>
      <point x="442" y="460" type="line"/>
      <point x="614" y="460" type="line"/>
      <point x="534" y="0" type="line"/>
      <point x="364" y="0" type="line"/>
    </contour>
    <contour>
      <point x="40" y="230" type="curve" smooth="yes"/>
      <point x="58" y="368"/>
      <point x="167" y="470"/>
      <point x="287" y="470" type="curve" smooth="yes"/>
      <point x="411" y="470"/>
      <point x="463" y="356"/>
      <point x="447" y="230" type="curve" smooth="yes"/>
      <point x="429" y="98"/>
      <point x="338" y="-10"/>
      <point x="216" y="-10" type="curve" smooth="yes"/>
      <point x="96" y="-10"/>
      <point x="24" y="98"/>
    </contour>
    <contour>
      <point x="220" y="230" type="curve" smooth="yes"/>
      <point x="212" y="178"/>
      <point x="238" y="127"/>
      <point x="291" y="126" type="curve" smooth="yes"/>
      <point x="342" y="125"/>
      <point x="393" y="173"/>
      <point x="402" y="230" type="curve" smooth="yes"/>
      <point x="410" y="283"/>
      <point x="385" y="332"/>
      <point x="335" y="334" type="curve" smooth="yes"/>
      <point x="281" y="336"/>
      <point x="229" y="285"/>
    </contour>
    <contour>
      <point x="542" y="678" type="line"/>
      <point x="346" y="532" type="line"/>
      <point x="253" y="580" type="line"/>
      <point x="423" y="736" type="line"/>
    </contour>
  </outline>
</glyph>
<glyph name="atilde" format="2">
  <advance width="611"/>
  <unicode hex="00E3"/>
  <outline>
    <contour>
      <point x="442" y="460" type="line"/>
      <point x="614" y="460" type="line"/>
      <point x="534" y="0" type="line"/>
      <point x="364" y="0" type="line"/>
    </contour>
    <contour>
      <point x="40" y="230" type="curve" smooth="yes"/>
      <point x="58" y="368"/>
      <point x="167" y="470"/>
      <point x="287" y="470" type="curve" smooth="yes"/>
      <point x="411" y="470"/>
      <point x="463" y="356"/>
      <point x="447" y="230" type="curve" smooth="yes"/>
      <point x="429" y="98"/>
      <point x="338" y="-10"/>
      <point x="216" y="-10" type="curve" smooth="yes"/>
      <point x="96" y="-10"/>
      <point x="24" y="98"/>
    </contour>
    <contour>
      <point x="220" y="230" type="curve" smooth="yes"/>
      <point x="212" y="178"/>
      <point x="238" y="127"/>
      <point x="291" y="126" type="curve" smooth="yes"/>
      <point x="342" y="125"/>
      <point x="393" y="173"/>
      <point x="402" y="230" type="curve" smooth="yes"/>
      <point x="410" y="283"/>
      <point x="385" y="332"/>
      <point x="335" y="334" type="curve" smooth="yes"/>
      <point x="281" y="336"/>
      <point x="229" y="285"/>
    </contour>
    <contour>
      <point x="198" y="606" type="line"/>
      <point x="218" y="656"/>
      <point x="263" y="703"/>
      <point x="331" y="703" type="curve" smooth="yes"/>
      <point x="386" y="703"/>
      <point x="407" y="649"/>
      <point x="458" y="651" type="curve" smooth="yes"/>
      <point x="488" y="652"/>
      <point x="512" y="678"/>
      <point x="534" y="704" type="curve"/>
      <point x="602" y="619" type="line"/>
      <point x="575" y="581"/>
      <point x="515" y="530"/>
      <point x="452" y="532" type="curve" smooth="yes"/>
      <point x="402" y="534"/>
      <point x="368" y="590"/>
      <point x="321" y="586" type="curve" smooth="yes"/>
      <point x="288" y="584"/>
      <point x="274" y="554"/>
      <point x="266" y="536" type="curve"/>
    </contour>
  </outline>
</glyph>
<glyph name="adieresis" format="2">
  <advance width="611"/>
  <unicode hex="00E4"/>
  <outline>
    <contour>
      <point x="442" y="460" type="line"/>
      <point x="614" y="460" type="line"/>
      <point x="534" y="0" type="line"/>
      <point x="364" y="0" type="line"/>
    </contour>
    <contour>
      <point x="40" y="230" type="curve" smooth="yes"/>
      <point x="58" y="368"/>
      <point x="167" y="470"/>
      <point x="287" y="470" type="curve" smooth="yes"/>
      <point x="411" y="470"/>
      <point x="463" y="356"/>
      <point x="447" y="230" type="curve" smooth="yes"/>
      <point x="429" y="98"/>
      <point x="338" y="-10"/>
      <point x="216" y="-10" type="curve" smooth="yes"/>
      <point x="96" y="-10"/>
      <point x="24" y="98"/>
    </contour>
    <contour>
      <point x="220" y="230" type="curve" smooth="yes"/>
      <point x="212" y="178"/>
      <point x="238" y="127"/>
      <point x="291" y="126" type="curve" smooth="yes"/>
      <point x="342" y="125"/>
      <point x="393" y="173"/>
      <point x="402" y="230" type="curve" smooth="yes"/>
      <point x="410" y="283"/>
      <point x="385" y="332"/>
      <point x="335" y="334" type="curve" smooth="yes"/>
      <point x="281" y="336"/>
      <point x="229" y="285"/>
    </contour>
    <contour>
      <point x="413" y="622" type="curve" smooth="yes"/>
      <point x="420" y="673"/>
      <point x="470" y="710"/>
      <point x="521" y="710" type="curve" smooth="yes"/>
      <point x="573" y="710"/>
      <point x="613" y="671"/>
      <point x="606" y="619" type="curve" smooth="yes"/>
      <point x="599" y="568"/>
      <point x="549" y="532"/>
      <point x="498" y="532" type="curve" smooth="yes"/>
      <point x="446" y="532"/>
      <point x="406" y="570"/>
    </contour>
    <contour>
      <point x="164" y="622" type="curve" smooth="yes"/>
      <point x="171" y="673"/>
      <point x="221" y="710"/>
      <point x="272" y="710" type="curve" smooth="yes"/>
      <point x="324" y="710"/>
      <point x="363" y="671"/>
      <point x="356" y="619" type="curve" smooth="yes"/>
      <point x="349" y="568"/>
      <point x="299" y="532"/>
      <point x="248" y="532" type="curve" smooth="yes"/>
      <point x="196" y="532"/>
      <point x="157" y="570"/>
    </contour>
  </outline>
</glyph>
<glyph name="aring" format="2">
  <advance width="611"/>
  <unicode hex="00E5"/>
  <outline>
    <contour>
      <point x="442" y="460" type="line"/>
      <point x="614" y="460" type="line"/>
      <point x="534" y="0" type="line"/>
      <point x="364" y="0" type="line"/>
    </contour>
    <contour>
      <point x="40" y="230" type="curve" smooth="yes"/>
      <point x="58" y="368"/>
      <point x="167" y="470"/>
      <point x="287" y="470" type="curve" smooth="yes"/>
      <point x="411" y="470"/>
      <point x="463" y="356"/>
      <point x="447" y="230" type="curve" smooth="yes"/>
      <point x="429" y="98"/>
      <point x="338" y="-10"/>
      <point x="216" y="-10" type="curve" smooth="yes"/>
      <point x="96" y="-10"/>
      <point x="24" y="98"/>
    </contour>
    <contour>
      <point x="220" y="230" type="curve" smooth="yes"/>
      <point x="212" y="178"/>
      <point x="238" y="127"/>
      <point x="291" y="126" type="curve" smooth="yes"/>
      <point x="342" y="125"/>
      <point x="393" y="173"/>
      <point x="402" y="230" type="curve" smooth="yes"/>
      <point x="410" y="283"/>
      <point x="385" y="332"/>
      <point x="335" y="334" type="curve" smooth="yes"/>
      <point x="281" y="336"/>
      <point x="229" y="285"/>
    </contour>
    <contour>
      <point x="256" y="652" type="curve" smooth="yes"/>
      <point x="265" y="721"/>
      <point x="328" y="771"/>
      <point x="400" y="771" type="curve" smooth="yes"/>
      <point x="472" y="771"/>
      <point x="525" y="720"/>
      <point x="515" y="650" type="curve" smooth="yes"/>
      <point x="506" y="581"/>
      <point x="440" y="532"/>
      <point x="368" y="532" type="curve" smooth="yes"/>
      <point x="296" y="532"/>
      <point x="246" y="583"/>
    </contour>
    <contour>
      <point x="341" y="650" type="curve" smooth="yes"/>
      <point x="339" y="628"/>
      <point x="351" y="607"/>
      <point x="373" y="606" type="curve" smooth="yes"/>
      <point x="397" y="605"/>
      <point x="424" y="628"/>
      <point x="428" y="652" type="curve" smooth="yes"/>
      <point x="430" y="674"/>
      <point x="417" y="696"/>
      <point x="395" y="697" type="curve" smooth="yes"/>
      <point x="371" y="698"/>
      <point x="345" y="674"/>
    </contour>
  </outline>
</glyph>
<glyph name="ae" format="2">
  <advance width="912"/>
  <unicode hex="00E6"/>
  <outline>
    <contour>
      <point x="190" y="-10" type="curve" smooth="yes"/>
      <point x="64" y="-10"/>
      <point x="1" y="42"/>
      <point x="13" y="128" type="curve" smooth="yes"/>
      <point x="25" y="216"/>
      <point x="114" y="277"/>
      <point x="235" y="277" type="curve" smooth="yes"/>
      <point x="294" y="277"/>
      <point x="344" y="263"/>
      <point x="430" y="222" type="curve"/>
      <point x="352" y="222" type="line"/>
      <point x="360" y="279" type="line" smooth="yes"/>
      <point x="367" y="323"/>
      <point x="344" y="346"/>
      <point x="296" y="346" type="curve" smooth="yes"/>
      <point x="252" y="346"/>
      <point x="182" y="328"/>
      <point x="142" y="308" type="curve"/>
      <point x="104" y="422" type="line"/>
      <point x="191" y="458"/>
      <point x="263" y="474"/>
      <point x="331" y="474" type="curve" smooth="yes"/>
      <point x="431" y="474"/>
      <point x="480" y="438"/>
      <point x="476" y="361" type="curve"/>
      <point x="461" y="358" type="line"/>
      <point x="515" y="430"/>
      <point x="595" y="470"/>
      <point x="697" y="470" type="curve" smooth="yes"/>
      <point x="841" y="470"/>
      <point x="911" y="389"/>
      <point x="891" y="244" type="curve" smooth="yes"/>
      <point x="889" y="224"/>
      <point x="885" y="203"/>
      <point x="881" y="194" type="curve"/>
      <point x="514" y="194" type="line"/>
      <point x="536" y="212" type="line"/>
      <point x="530" y="145"/>
      <point x="553" y="110"/>
      <point x="611" y="110" type="curve" smooth="yes"/>
      <point x="657" y="110"/>
      <point x="702" y="130"/>
      <point x="724" y="162" type="curve"/>
      <point x="876" y="132" type="line"/>
      <point x="811" y="36"/>
      <point x="723" y="-10"/>
      <point x="601" y="-10" type="curve" smooth="yes"/>
      <point x="491" y="-10"/>
      <point x="430" y="26"/>
      <point x="408" y="101" type="curve"/>
      <point x="420" y="100" type="line"/>
      <point x="384" y="29"/>
      <point x="303" y="-10"/>
    </contour>
    <contour>
      <point x="240" y="98" type="curve" smooth="yes"/>
      <point x="298" y="98"/>
      <point x="336" y="128"/>
      <point x="348" y="184" type="curve"/>
      <point x="342" y="139" type="line"/>
      <point x="344" y="187" type="line"/>
      <point x="366" y="160" type="line"/>
      <point x="338" y="178"/>
      <point x="302" y="188"/>
      <point x="266" y="188" type="curve" smooth="yes"/>
      <point x="220" y="188"/>
      <point x="193" y="171"/>
      <point x="189" y="137" type="curve" smooth="yes"/>
      <point x="186" y="109"/>
      <point x="202" y="98"/>
    </contour>
    <contour>
      <point x="539" y="235" type="curve"/>
      <point x="528" y="283" type="line"/>
      <point x="736" y="283" type="line"/>
      <point x="708" y="250" type="line"/>
      <point x="712" y="260"/>
      <point x="711" y="260"/>
      <point x="712" y="266" type="curve" smooth="yes"/>
      <point x="720" y="327"/>
      <point x="701" y="360"/>
      <point x="650" y="360" type="curve" smooth="yes"/>
      <point x="591" y="360"/>
      <point x="554" y="317"/>
    </contour>
  </outline>
</glyph>
<glyph name="ccedilla" format="2">
  <advance width="483"/>
  <unicode hex="00E7"/>
  <outline>
    <contour>
      <point x="215" y="230" type="curve" smooth="yes"/>
      <point x="205" y="170"/>
      <point x="242" y="127"/>
      <point x="302" y="125" type="curve" smooth="yes"/>
      <point x="354" y="123"/>
      <point x="402" y="150"/>
      <point x="438" y="187" type="curve"/>
      <point x="415" y="26" type="line"/>
      <point x="377" y="4"/>
      <point x="332" y="-10"/>
      <point x="272" y="-10" type="curve" smooth="yes"/>
      <point x="124" y="-10"/>
      <point x="20" y="88"/>
      <point x="40" y="230" type="curve" smooth="yes"/>
      <point x="61" y="374"/>
      <point x="190" y="470"/>
      <point x="343" y="470" type="curve" smooth="yes"/>
      <point x="403" y="470"/>
      <point x="445" y="455"/>
      <point x="482" y="435" type="curve"/>
      <point x="457" y="273" type="line"/>
      <point x="431" y="314"/>
      <point x="390" y="336"/>
      <point x="346" y="336" type="curve" smooth="yes"/>
      <point x="284" y="336"/>
      <point x="226" y="288"/>
    </contour>
    <contour>
      <point x="204" y="60" type="line"/>
      <point x="332" y="56" type="line"/>
      <point x="216" y="-69" type="line"/>
      <point x="228" y="-66"/>
      <point x="243" y="-64"/>
      <point x="257" y="-64" type="curve" smooth="yes"/>
      <point x="305" y="-66"/>
      <point x="346" y="-109"/>
      <point x="338" y="-170" type="curve" smooth="yes"/>
      <point x="328" y="-242"/>
      <point x="254" y="-280"/>
      <point x="188" y="-282" type="curve" smooth="yes"/>
      <point x="130" y="-283"/>
      <point x="83" y="-268"/>
      <point x="34" y="-240" type="curve"/>
      <point x="92" y="-166" type="line"/>
      <point x="116" y="-182"/>
      <point x="148" y="-192"/>
      <point x="170" y="-192" type="curve" smooth="yes"/>
      <point x="196" y="-192"/>
      <point x="232" y="-180"/>
      <point x="234" y="-156" type="curve" smooth="yes"/>
      <point x="236" y="-132"/>
      <point x="202" y="-126"/>
      <point x="180" y="-126" type="curve" smooth="yes"/>
      <point x="159" y="-125"/>
      <point x="123" y="-130"/>
      <point x="88" y="-140" type="curve"/>
    </contour>
  </outline>
</glyph>
<glyph name="egrave" format="2">
  <advance width="573"/>
  <unicode hex="00E8"/>
  <outline>
    <contour>
      <point x="130" y="194" type="line"/>
      <point x="143" y="282" type="line"/>
      <point x="381" y="284" type="line"/>
      <point x="379" y="326"/>
      <point x="370" y="357"/>
      <point x="325" y="359" type="curve" smooth="yes"/>
      <point x="266" y="361"/>
      <point x="230" y="310"/>
      <point x="218" y="252" type="curve"/>
      <point x="212" y="230" type="line"/>
      <point x="203" y="162"/>
      <point x="222" y="115"/>
      <point x="278" y="111" type="curve" smooth="yes"/>
      <point x="325" y="109"/>
      <point x="362" y="132"/>
      <point x="388" y="162" type="curve"/>
      <point x="541" y="130" type="line"/>
      <point x="482" y="46"/>
      <point x="398" y="-10"/>
      <point x="274" y="-10" type="curve" smooth="yes"/>
      <point x="112" y="-10"/>
      <point x="21" y="90"/>
      <point x="41" y="230" type="curve" smooth="yes"/>
      <point x="43" y="247"/>
      <point x="47" y="263"/>
      <point x="52" y="279" type="curve" smooth="yes"/>
      <point x="90" y="395"/>
      <point x="193" y="470"/>
      <point x="338" y="470" type="curve" smooth="yes"/>
      <point x="494" y="470"/>
      <point x="574" y="378"/>
      <point x="556" y="238" type="curve" smooth="yes"/>
      <point x="554" y="227"/>
      <point x="551" y="210"/>
      <point x="548" y="194" type="curve"/>
    </contour>
    <contour>
      <point x="214" y="685" type="line"/>
      <point x="344" y="740" type="line"/>
      <point x="464" y="576" type="line"/>
      <point x="366" y="532" type="line"/>
    </contour>
  </outline>
</glyph>
<glyph name="edieresis" format="2">
  <advance width="573"/>
  <unicode hex="00EB"/>
  <outline>
    <contour>
      <point x="130" y="194" type="line"/>
      <point x="143" y="282" type="line"/>
      <point x="381" y="284" type="line"/>
      <point x="379" y="326"/>
      <point x="370" y="357"/>
      <point x="325" y="359" type="curve" smooth="yes"/>
      <point x="266" y="361"/>
      <point x="230" y="310"/>
      <point x="218" y="252" type="curve"/>
      <point x="212" y="230" type="line"/>
      <point x="203" y="162"/>
      <point x="222" y="115"/>
      <point x="278" y="111" type="curve" smooth="yes"/>
      <point x="325" y="109"/>
      <point x="362" y="132"/>
      <point x="388" y="162" type="curve"/>
      <point x="541" y="130" type="line"/>
      <point x="482" y="46"/>
      <point x="398" y="-10"/>
      <point x="274" y="-10" type="curve" smooth="yes"/>
      <point x="112" y="-10"/>
      <point x="21" y="90"/>
      <point x="41" y="230" type="curve" smooth="yes"/>
      <point x="43" y="247"/>
      <point x="47" y="263"/>
      <point x="52" y="279" type="curve" smooth="yes"/>
      <point x="90" y="395"/>
      <point x="193" y="470"/>
      <point x="338" y="470" type="curve" smooth="yes"/>
      <point x="494" y="470"/>
      <point x="574" y="378"/>
      <point x="556" y="238" type="curve" smooth="yes"/>
      <point x="554" y="227"/>
      <point x="551" y="210"/>
      <point x="548" y="194" type="curve"/>
    </contour>
    <contour>
      <point x="398" y="622" type="curve" smooth="yes"/>
      <point x="405" y="673"/>
      <point x="455" y="710"/>
      <point x="506" y="710" type="curve" smooth="yes"/>
      <point x="558" y="710"/>
      <point x="597" y="671"/>
      <point x="590" y="619" type="curve" smooth="yes"/>
      <point x="583" y="568"/>
      <point x="533" y="532"/>
      <point x="482" y="532" type="curve" smooth="yes"/>
      <point x="430" y="532"/>
      <point x="391" y="570"/>
    </contour>
    <contour>
      <point x="148" y="622" type="curve" smooth="yes"/>
      <point x="155" y="673"/>
      <point x="205" y="710"/>
      <point x="256" y="710" type="curve" smooth="yes"/>
      <point x="308" y="710"/>
      <point x="348" y="671"/>
      <point x="341" y="619" type="curve" smooth="yes"/>
      <point x="334" y="568"/>
      <point x="284" y="532"/>
      <point x="233" y="532" type="curve" smooth="yes"/>
      <point x="181" y="532"/>
      <point x="141" y="570"/>
    </contour>
  </outline>
</glyph>
<glyph name="igrave" format="2">
  <advance width="272"/>
  <unicode hex="00EC"/>
  <outline>
    <contour>
      <point x="104" y="460" type="line"/>
      <point x="270" y="460" type="line"/>
      <point x="191" y="0" type="line"/>
      <point x="26" y="0" type="line"/>
    </contour>
    <contour>
      <point x="46" y="687" type="line"/>
      <point x="176" y="742" type="line"/>
      <point x="296" y="578" type="line"/>
      <point x="198" y="534" type="line"/>
    </contour>
  </outline>
</glyph>
<glyph name="iacute" format="2">
  <advance width="272"/>
  <unicode hex="00ED"/>
  <outline>
    <contour>
      <point x="104" y="460" type="line"/>
      <point x="270" y="460" type="line"/>
      <point x="191" y="0" type="line"/>
      <point x="26" y="0" type="line"/>
    </contour>
    <contour>
      <point x="398" y="681" type="line"/>
      <point x="201" y="535" type="line"/>
      <point x="108" y="584" type="line"/>
      <point x="278" y="740" type="line"/>
    </contour>
  </outline>
</glyph>
<glyph name="icircumflex" format="2">
  <advance width="272"/>
  <unicode hex="00EE"/>
  <outline>
    <contour>
      <point x="104" y="460" type="line"/>
      <point x="270" y="460" type="line"/>
      <point x="191" y="0" type="line"/>
      <point x="26" y="0" type="line"/>
    </contour>
    <contour>
      <point x="218" y="614" type="line"/>
      <point x="120" y="532" type="line"/>
      <point x="10" y="617" type="line"/>
      <point x="233" y="754" type="line"/>
      <point x="416" y="610" type="line"/>
      <point x="286" y="532" type="line"/>
    </contour>
  </outline>
</glyph>
<glyph name="idieresis" format="2">
  <advance width="272"/>
  <unicode hex="00EF"/>
  <outline>
    <contour>
      <point x="104" y="460" type="line"/>
      <point x="270" y="460" type="line"/>
      <point x="191" y="0" type="line"/>
      <point x="26" y="0" type="line"/>
    </contour>
    <contour>
      <point x="244" y="628" type="curve" smooth="yes"/>
      <point x="251" y="679"/>
      <point x="301" y="716"/>
      <point x="352" y="716" type="curve" smooth="yes"/>
      <point x="404" y="716"/>
      <point x="444" y="677"/>
      <point x="437" y="625" type="curve" smooth="yes"/>
      <point x="430" y="574"/>
      <point x="381" y="537"/>
      <point x="330" y="537" type="curve" smooth="yes"/>
      <point x="278" y="537"/>
      <point x="237" y="576"/>
    </contour>
    <contour>
      <point x="-5" y="628" type="curve" smooth="yes"/>
      <point x="2" y="679"/>
      <point x="52" y="716"/>
      <point x="103" y="716" type="curve" smooth="yes"/>
      <point x="155" y="716"/>
      <point x="195" y="677"/>
      <point x="188" y="625" type="curve" smooth="yes"/>
      <point x="181" y="574"/>
      <point x="131" y="537"/>
      <point x="80" y="537" type="curve" smooth="yes"/>
      <point x="28" y="537"/>
      <point x="-12" y="576"/>
    </contour>
  </outline>
</glyph>
<glyph name="eth" format="2">
  <advance width="641"/>
  <unicode hex="00F0"/>
  <outline>
    <contour>
      <point x="304" y="-18" type="curve" smooth="yes"/>
      <point x="162" y="-18"/>
      <point x="54" y="74"/>
      <point x="54" y="217" type="curve" smooth="yes"/>
      <point x="54" y="364"/>
      <point x="162" y="478"/>
      <point x="302" y="478" type="curve" smooth="yes"/>
      <point x="390" y="478"/>
      <point x="458" y="429"/>
      <point x="519" y="331" type="curve"/>
      <point x="478" y="332" type="line"/>
      <point x="423" y="491"/>
      <point x="334" y="591"/>
      <point x="192" y="690" type="curve"/>
      <point x="324" y="772" type="line"/>
      <point x="538" y="588"/>
      <point x="621" y="445"/>
      <point x="621" y="279" type="curve" smooth="yes"/>
      <point x="621" y="116"/>
      <point x="487" y="-18"/>
    </contour>
    <contour>
      <point x="320" y="134" type="curve" smooth="yes"/>
      <point x="385" y="134"/>
      <point x="432" y="189"/>
      <point x="432" y="247" type="curve" smooth="yes"/>
      <point x="432" y="296"/>
      <point x="400" y="335"/>
      <point x="349" y="335" type="curve" smooth="yes"/>
      <point x="287" y="335"/>
      <point x="236" y="281"/>
      <point x="236" y="221" type="curve" smooth="yes"/>
      <point x="236" y="173"/>
      <point x="268" y="134"/>
    </contour>
    <contour>
      <point x="212" y="508" type="line"/>
      <point x="196" y="566" type="line"/>
      <point x="566" y="679" type="line"/>
      <point x="582" y="622" type="line"/>
    </contour>
  </outline>
</glyph>
<glyph name="ntilde" format="2">
  <advance width="572"/>
  <unicode hex="00F1"/>
  <outline>
    <contour>
      <point x="274" y="460" type="line"/>
      <point x="195" y="0" type="line"/>
      <point x="24" y="0" type="line"/>
      <point x="103" y="460" type="line"/>
    </contour>
    <contour>
      <point x="365" y="280" type="line"/>
      <point x="369" y="318"/>
      <point x="366" y="350"/>
      <point x="325" y="354" type="curve" smooth="yes"/>
      <point x="283" y="358"/>
      <point x="253" y="320"/>
      <point x="243" y="280" type="curve"/>
      <point x="214" y="273" type="line"/>
      <point x="232" y="375"/>
      <point x="289" y="469"/>
      <point x="406" y="470" type="curve" smooth="yes"/>
      <point x="520" y="471"/>
      <point x="557" y="400"/>
      <point x="544" y="298" type="curve"/>
      <point x="494" y="0" type="line"/>
      <point x="315" y="0" type="line"/>
    </contour>
    <contour>
      <point x="162" y="607" type="line"/>
      <point x="183" y="655"/>
      <point x="229" y="705"/>
      <point x="295" y="703" type="curve" smooth="yes"/>
      <point x="350" y="702"/>
      <point x="372" y="649"/>
      <point x="422" y="651" type="curve" smooth="yes"/>
      <point x="452" y="652"/>
      <point x="477" y="678"/>
      <point x="499" y="704" type="curve"/>
      <point x="566" y="619" type="line"/>
      <point x="539" y="581"/>
      <point x="479" y="530"/>
      <point x="416" y="532" type="curve" smooth="yes"/>
      <point x="366" y="534"/>
      <point x="332" y="590"/>
      <point x="285" y="586" type="curve" smooth="yes"/>
      <point x="252" y="584"/>
      <point x="237" y="554"/>
      <point x="229" y="536" type="curve"/>
    </contour>
  </outline>
</glyph>
<glyph name="ocircumflex" format="2">
  <advance width="584"/>
  <unicode hex="00F4"/>
  <outline>
    <contour>
      <point x="40" y="230" type="curve" smooth="yes"/>
      <point x="61" y="374"/>
      <point x="190" y="470"/>
      <point x="340" y="470" type="curve" smooth="yes"/>
      <point x="486" y="470"/>
      <point x="589" y="370"/>
      <point x="569" y="230" type="curve" smooth="yes"/>
      <point x="548" y="86"/>
      <point x="419" y="-10"/>
      <point x="269" y="-10" type="curve" smooth="yes"/>
      <point x="123" y="-10"/>
      <point x="20" y="90"/>
    </contour>
    <contour>
      <point x="216" y="230" type="curve" smooth="yes"/>
      <point x="208" y="178"/>
      <point x="232" y="131"/>
      <point x="284" y="130" type="curve" smooth="yes"/>
      <point x="337" y="129"/>
      <point x="385" y="174"/>
      <point x="394" y="230" type="curve" smooth="yes"/>
      <point x="402" y="282"/>
      <point x="378" y="329"/>
      <point x="326" y="330" type="curve" smooth="yes"/>
      <point x="273" y="331"/>
      <point x="225" y="286"/>
    </contour>
    <contour>
      <point x="375" y="616" type="line"/>
      <point x="278" y="534" type="line"/>
      <point x="168" y="618" type="line"/>
      <point x="390" y="755" type="line"/>
      <point x="573" y="612" type="line"/>
      <point x="444" y="534" type="line"/>
    </contour>
  </outline>
</glyph>
<glyph name="otilde" format="2">
  <advance width="584"/>
  <unicode hex="00F5"/>
  <outline>
    <contour>
      <point x="40" y="230" type="curve" smooth="yes"/>
      <point x="61" y="374"/>
      <point x="190" y="470"/>
      <point x="340" y="470" type="curve" smooth="yes"/>
      <point x="486" y="470"/>
      <point x="589" y="370"/>
      <point x="569" y="230" type="curve" smooth="yes"/>
      <point x="548" y="86"/>
      <point x="419" y="-10"/>
      <point x="269" y="-10" type="curve" smooth="yes"/>
      <point x="123" y="-10"/>
      <point x="20" y="90"/>
    </contour>
    <contour>
      <point x="216" y="230" type="curve" smooth="yes"/>
      <point x="208" y="178"/>
      <point x="232" y="131"/>
      <point x="284" y="130" type="curve" smooth="yes"/>
      <point x="337" y="129"/>
      <point x="385" y="174"/>
      <point x="394" y="230" type="curve" smooth="yes"/>
      <point x="402" y="282"/>
      <point x="378" y="329"/>
      <point x="326" y="330" type="curve" smooth="yes"/>
      <point x="273" y="331"/>
      <point x="225" y="286"/>
    </contour>
    <contour>
      <point x="168" y="606" type="line"/>
      <point x="168" y="656"/>
      <point x="248" y="703"/>
      <point x="302" y="703" type="curve" smooth="yes"/>
      <point x="357" y="703"/>
      <point x="377" y="649"/>
      <point x="428" y="651" type="curve" smooth="yes"/>
      <point x="458" y="652"/>
      <point x="483" y="678"/>
      <point x="505" y="704" type="curve"/>
      <point x="572" y="619" type="line"/>
      <point x="545" y="581"/>
      <point x="485" y="530"/>
      <point x="422" y="532" type="curve" smooth="yes"/>
      <point x="372" y="534"/>
      <point x="337" y="590"/>
      <point x="290" y="586" type="curve" smooth="yes"/>
      <point x="257" y="584"/>
      <point x="244" y="554"/>
      <point x="236" y="536" type="curve"/>
    </contour>
  </outline>
</glyph>
<glyph name="odieresis" format="2">
  <advance width="584"/>
  <unicode hex="00F6"/>
  <outline>
    <contour>
      <point x="40" y="230" type="curve" smooth="yes"/>
      <point x="61" y="374"/>
      <point x="190" y="470"/>
      <point x="340" y="470" type="curve" smooth="yes"/>
      <point x="486" y="470"/>
      <point x="589" y="370"/>
      <point x="569" y="230" type="curve" smooth="yes"/>
      <point x="548" y="86"/>
      <point x="419" y="-10"/>
      <point x="269" y="-10" type="curve" smooth="yes"/>
      <point x="123" y="-10"/>
      <point x="20" y="90"/>
    </contour>
    <contour>
      <point x="216" y="230" type="curve" smooth="yes"/>
      <point x="208" y="178"/>
      <point x="232" y="131"/>
      <point x="284" y="130" type="curve" smooth="yes"/>
      <point x="337" y="129"/>
      <point x="385" y="174"/>
      <point x="394" y="230" type="curve" smooth="yes"/>
      <point x="402" y="282"/>
      <point x="378" y="329"/>
      <point x="326" y="330" type="curve" smooth="yes"/>
      <point x="273" y="331"/>
      <point x="225" y="286"/>
    </contour>
    <contour>
      <point x="401" y="628" type="curve" smooth="yes"/>
      <point x="408" y="679"/>
      <point x="457" y="716"/>
      <point x="508" y="716" type="curve" smooth="yes"/>
      <point x="560" y="716"/>
      <point x="600" y="677"/>
      <point x="593" y="625" type="curve" smooth="yes"/>
      <point x="586" y="574"/>
      <point x="536" y="537"/>
      <point x="485" y="537" type="curve" smooth="yes"/>
      <point x="433" y="537"/>
      <point x="394" y="576"/>
    </contour>
    <contour>
      <point x="152" y="628" type="curve" smooth="yes"/>
      <point x="159" y="679"/>
      <point x="209" y="716"/>
      <point x="260" y="716" type="curve" smooth="yes"/>
      <point x="312" y="716"/>
      <point x="351" y="677"/>
      <point x="344" y="625" type="curve" smooth="yes"/>
      <point x="337" y="574"/>
      <point x="287" y="537"/>
      <point x="236" y="537" type="curve" smooth="yes"/>
      <point x="184" y="537"/>
      <point x="145" y="576"/>
    </contour>
  </outline>
</glyph>
<glyph name="divide" format="2">
  <advance width="625"/>
  <unicode hex="00F7"/>
  <outline>
    <contour>
      <point x="281" y="585" type="curve" smooth="yes"/>
      <point x="289" y="640"/>
      <point x="340" y="688"/>
      <point x="399" y="688" type="curve" smooth="yes"/>
      <point x="459" y="688"/>
      <point x="497" y="638"/>
      <point x="489" y="583" type="curve" smooth="yes"/>
      <point x="481" y="528"/>
      <point x="431" y="481"/>
      <point x="372" y="481" type="curve" smooth="yes"/>
      <point x="312" y="481"/>
      <point x="273" y="530"/>
    </contour>
    <contour>
      <point x="200" y="107" type="curve" smooth="yes"/>
      <point x="208" y="162"/>
      <point x="259" y="210"/>
      <point x="318" y="210" type="curve" smooth="yes"/>
      <point x="378" y="210"/>
      <point x="416" y="160"/>
      <point x="408" y="105" type="curve" smooth="yes"/>
      <point x="400" y="50"/>
      <point x="349" y="4"/>
      <point x="290" y="4" type="curve" smooth="yes"/>
      <point x="230" y="4"/>
      <point x="192" y="52"/>
    </contour>
    <contour>
      <point x="32" y="270" type="line"/>
      <point x="60" y="423" type="line"/>
      <point x="658" y="423" type="line"/>
      <point x="630" y="270" type="line"/>
    </contour>
  </outline>
</glyph>
<glyph name="oslash" format="2">
  <advance width="529"/>
  <unicode hex="00F8"/>
  <outline>
    <contour>
      <point x="40" y="230" type="curve" smooth="yes"/>
      <point x="61" y="378"/>
      <point x="191" y="470"/>
      <point x="340" y="470" type="curve" smooth="yes"/>
      <point x="485" y="470"/>
      <point x="589" y="376"/>
      <point x="569" y="230" type="curve" smooth="yes"/>
      <point x="548" y="82"/>
      <point x="418" y="-10"/>
      <point x="269" y="-10" type="curve" smooth="yes"/>
      <point x="124" y="-10"/>
      <point x="20" y="84"/>
    </contour>
    <contour>
      <point x="200" y="230" type="curve" smooth="yes"/>
      <point x="190" y="169"/>
      <point x="223" y="123"/>
      <point x="282" y="122" type="curve" smooth="yes"/>
      <point x="342" y="121"/>
      <point x="400" y="166"/>
      <point x="410" y="230" type="curve" smooth="yes"/>
      <point x="419" y="286"/>
      <point x="386" y="337"/>
      <point x="328" y="338" type="curve" smooth="yes"/>
      <point x="269" y="339"/>
      <point x="210" y="289"/>
    </contour>
    <contour>
      <point x="501" y="508" type="line"/>
      <point x="561" y="468" type="line"/>
      <point x="96" y="-52" type="line"/>
      <point x="38" y="-14" type="line"/>
    </contour>
  </outline>
</glyph>
<glyph name="ugrave" format="2">
  <advance width="572"/>
  <unicode hex="00F9"/>
  <outline>
    <contour>
      <point x="322" y="0" type="line"/>
      <point x="402" y="460" type="line"/>
      <point x="573" y="460" type="line"/>
      <point x="494" y="0" type="line"/>
    </contour>
    <contour>
      <point x="232" y="180" type="line"/>
      <point x="228" y="142"/>
      <point x="231" y="110"/>
      <point x="272" y="106" type="curve" smooth="yes"/>
      <point x="314" y="102"/>
      <point x="344" y="140"/>
      <point x="354" y="180" type="curve"/>
      <point x="384" y="187" type="line"/>
      <point x="366" y="85"/>
      <point x="307" y="-9"/>
      <point x="190" y="-10" type="curve" smooth="yes"/>
      <point x="76" y="-11"/>
      <point x="39" y="60"/>
      <point x="52" y="162" type="curve"/>
      <point x="103" y="460" type="line"/>
      <point x="282" y="460" type="line"/>
    </contour>
    <contour>
      <point x="228" y="687" type="line"/>
      <point x="358" y="742" type="line"/>
      <point x="479" y="578" type="line"/>
      <point x="381" y="534" type="line"/>
    </contour>
  </outline>
</glyph>
<glyph name="udieresis" format="2">
  <advance width="572"/>
  <unicode hex="00FC"/>
  <outline>
    <contour>
      <point x="322" y="0" type="line"/>
      <point x="402" y="460" type="line"/>
      <point x="573" y="460" type="line"/>
      <point x="494" y="0" type="line"/>
    </contour>
    <contour>
      <point x="232" y="180" type="line"/>
      <point x="228" y="142"/>
      <point x="231" y="110"/>
      <point x="272" y="106" type="curve" smooth="yes"/>
      <point x="314" y="102"/>
      <point x="344" y="140"/>
      <point x="354" y="180" type="curve"/>
      <point x="384" y="187" type="line"/>
      <point x="366" y="85"/>
      <point x="307" y="-9"/>
      <point x="190" y="-10" type="curve" smooth="yes"/>
      <point x="76" y="-11"/>
      <point x="39" y="60"/>
      <point x="52" y="162" type="curve"/>
      <point x="103" y="460" type="line"/>
      <point x="282" y="460" type="line"/>
    </contour>
    <contour>
      <point x="395" y="626" type="curve" smooth="yes"/>
      <point x="402" y="677"/>
      <point x="451" y="714"/>
      <point x="502" y="714" type="curve" smooth="yes"/>
      <point x="554" y="714"/>
      <point x="594" y="675"/>
      <point x="587" y="623" type="curve" smooth="yes"/>
      <point x="580" y="572"/>
      <point x="530" y="535"/>
      <point x="479" y="535" type="curve" smooth="yes"/>
      <point x="427" y="535"/>
      <point x="388" y="574"/>
    </contour>
    <contour>
      <point x="146" y="626" type="curve" smooth="yes"/>
      <point x="153" y="677"/>
      <point x="202" y="714"/>
      <point x="253" y="714" type="curve" smooth="yes"/>
      <point x="305" y="714"/>
      <point x="345" y="675"/>
      <point x="338" y="623" type="curve" smooth="yes"/>
      <point x="331" y="572"/>
      <point x="281" y="535"/>
      <point x="230" y="535" type="curve" smooth="yes"/>
      <point x="178" y="535"/>
      <point x="139" y="574"/>
    </contour>
  </outline>
</glyph>
<glyph name="yacute" format="2">
  <advance width="528"/>
  <unicode hex="00FD"/>
  <outline>
    <contour>
      <point x="597" y="460" type="line"/>
      <point x="189" y="-220" type="line"/>
      <point x="15" y="-220" type="line"/>
      <point x="167" y="33" type="line"/>
      <point x="41" y="460" type="line"/>
      <point x="222" y="460" type="line"/>
      <point x="303" y="88" type="line"/>
      <point x="212" y="89" type="line"/>
      <point x="420" y="460" type="line"/>
    </contour>
    <contour>
      <point x="521" y="681" type="line"/>
      <point x="324" y="535" type="line"/>
      <point x="232" y="584" type="line"/>
      <point x="402" y="740" type="line"/>
    </contour>
  </outline>
</glyph>
<glyph name="thorn" format="2">
  <advance width="611"/>
  <unicode hex="00FE"/>
  <outline>
    <contour>
      <point x="158" y="-220" type="line"/>
      <point x="-14" y="-220" type="line"/>
      <point x="157" y="780" type="line"/>
      <point x="328" y="780" type="line"/>
    </contour>
    <contour>
      <point x="596" y="230" type="curve" smooth="yes"/>
      <point x="578" y="92"/>
      <point x="470" y="-10"/>
      <point x="350" y="-10" type="curve" smooth="yes"/>
      <point x="226" y="-10"/>
      <point x="172" y="104"/>
      <point x="188" y="230" type="curve" smooth="yes"/>
      <point x="206" y="362"/>
      <point x="299" y="470"/>
      <point x="421" y="470" type="curve" smooth="yes"/>
      <point x="541" y="470"/>
      <point x="612" y="362"/>
    </contour>
    <contour>
      <point x="418" y="230" type="curve" smooth="yes"/>
      <point x="426" y="282"/>
      <point x="399" y="333"/>
      <point x="346" y="334" type="curve" smooth="yes"/>
      <point x="295" y="335"/>
      <point x="241" y="287"/>
      <point x="232" y="230" type="curve" smooth="yes"/>
      <point x="224" y="177"/>
      <point x="253" y="128"/>
      <point x="303" y="126" type="curve" smooth="yes"/>
      <point x="357" y="124"/>
      <point x="409" y="175"/>
    </contour>
  </outline>
</glyph>
<glyph name="ydieresis" format="2">
  <advance width="528"/>
  <unicode hex="00FF"/>
  <outline>
    <contour>
      <point x="597" y="460" type="line"/>
      <point x="189" y="-220" type="line"/>
      <point x="15" y="-220" type="line"/>
      <point x="167" y="33" type="line"/>
      <point x="41" y="460" type="line"/>
      <point x="222" y="460" type="line"/>
      <point x="303" y="88" type="line"/>
      <point x="212" y="89" type="line"/>
      <point x="420" y="460" type="line"/>
    </contour>
    <contour>
      <point x="372" y="622" type="curve" smooth="yes"/>
      <point x="379" y="673"/>
      <point x="429" y="710"/>
      <point x="480" y="710" type="curve" smooth="yes"/>
      <point x="532" y="710"/>
      <point x="572" y="671"/>
      <point x="565" y="619" type="curve" smooth="yes"/>
      <point x="558" y="568"/>
      <point x="507" y="532"/>
      <point x="456" y="532" type="curve" smooth="yes"/>
      <point x="404" y="532"/>
      <point x="365" y="570"/>
    </contour>
    <contour>
      <point x="123" y="622" type="curve" smooth="yes"/>
      <point x="130" y="673"/>
      <point x="179" y="710"/>
      <point x="230" y="710" type="curve" smooth="yes"/>
      <point x="282" y="710"/>
      <point x="322" y="671"/>
      <point x="315" y="619" type="curve" smooth="yes"/>
      <point x="308" y="568"/>
      <point x="258" y="532"/>
      <point x="207" y="532" type="curve" smooth="yes"/>
      <point x="155" y="532"/>
      <point x="116" y="570"/>
    </contour>
  </outline>
</glyph>
<glyph name="Abreve" format="2">
  <advance width="734"/>
  <unicode hex="0102"/>
  <outline>
    <contour>
      <point x="180" y="112" type="line"/>
      <point x="211" y="256" type="line"/>
      <point x="562" y="256" type="line"/>
      <point x="542" y="112" type="line"/>
    </contour>
    <contour>
      <point x="414" y="412" type="line"/>
      <point x="288" y="202" type="line"/>
      <point x="293" y="158" type="line"/>
      <point x="188" y="0" type="line"/>
      <point x="-34" y="0" type="line"/>
      <point x="467" y="750" type="line"/>
      <point x="710" y="0" type="line"/>
      <point x="498" y="0" type="line"/>
      <point x="445" y="152" type="line"/>
      <point x="465" y="202" type="line"/>
    </contour>
    <contour>
      <point x="340" y="956" type="curve"/>
      <point x="444" y="956" type="line"/>
      <point x="444" y="925"/>
      <point x="459" y="903"/>
      <point x="489" y="901" type="curve" smooth="yes"/>
      <point x="521" y="899"/>
      <point x="548" y="925"/>
      <point x="557" y="955" type="curve"/>
      <point x="664" y="954" type="line"/>
      <point x="646" y="870"/>
      <point x="584" y="808"/>
      <point x="484" y="808" type="curve" smooth="yes"/>
      <point x="384" y="808"/>
      <point x="334" y="870"/>
    </contour>
  </outline>
</glyph>
